<svg xmlns="http://www.w3.org/2000/svg" width="24.33" height="22.751" viewBox="0 0 24.33 22.751">
  <g id="Asset_management" data-name="Asset management" style="isolation: isolate">
    <path id="Path_41406" data-name="Path 41406" d="M-5283.155,1450.608q-4.77,0-9.541,0a2.248,2.248,0,0,1-2.531-2.541c0-1.283-.009-2.566,0-3.849a5.417,5.417,0,0,1,2.727-4.8c.24-.149.372-.2.124-.5a3.888,3.888,0,0,1-.717-2.788c.012-.3.176-.264.362-.264,1.116,0,2.23-.006,3.348,0a1.4,1.4,0,0,0,.827-.251c2.429-1.6,4.873-3.181,7.3-4.78a.619.619,0,0,1,.812-.02q3.639,2.412,7.312,4.773a.735.735,0,0,1,.39.709q-.019,6.918,0,13.835c0,.394-.1.483-.487.481C-5276.535,1450.6-5279.845,1450.608-5283.155,1450.608Zm8.812-7.8c0-1.858-.008-3.716.005-5.575a.726.726,0,0,0-.363-.723q-2.9-1.859-5.766-3.768a.555.555,0,0,0-.728.009c-1.542,1.025-3.09,2.043-4.652,3.037a.732.732,0,0,0-.414.753,3.211,3.211,0,0,1-.657,2.3c-.244.309-.2.422.127.629a5.348,5.348,0,0,1,2.667,4.673c.026,1.5.017,3.01-.019,4.515-.008.346.125.347.372.344.725-.007,1.451-.034,2.173.009.459.028.548-.133.544-.557-.02-2.49,0-4.98-.02-7.47,0-.375.073-.507.473-.5q2.2.036,4.4,0c.4-.006.479.121.477.5-.019,2.36-.009,4.72-.009,7.079,0,.944,0,.918.924.946.427.013.471-.155.468-.514C-5274.352,1446.594-5274.343,1444.7-5274.343,1442.8Zm-15.361,6.189c1.061,0,2.119,0,3.18,0,.584,0,.8-.221.8-.8,0-1.376.022-2.752,0-4.127a3.968,3.968,0,0,0-3.986-3.808,3.967,3.967,0,0,0-3.9,3.854c-.01,1.338-.005,2.677,0,4.015,0,.693.186.87.9.871Q-5291.209,1448.994-5289.7,1448.992Zm12.358-3.4c0-.612,0-1.224,0-1.836,0-.534.187-1.273-.086-1.552-.346-.354-1.084-.071-1.651-.12-.3-.026-.375.083-.373.373q.015,3.088,0,6.176c0,.307.1.376.384.363a12.849,12.849,0,0,1,1.335,0c.315.018.407-.085.4-.4C-5277.357,1447.6-5277.344,1446.6-5277.345,1445.594Zm-10.667-8.072h-3.336a1.833,1.833,0,0,0,1.592,1.094A1.758,1.758,0,0,0-5288.013,1437.522Z" transform="translate(5295.231 -1427.867)" fill="aqua"/>
    <path id="Path_41407" data-name="Path 41407" d="M-5238.933,1408.915c0-.778.012-1.479-.007-2.179-.008-.292.08-.369.375-.374,1.232-.021,1.232-.032,1.231,1.183,0,.576-.014,1.155-.014,1.728,0,.752,0,.667.012.667s.616.473.626.479c.667.4,1.3.854,1.965,1.258.28.17.343.289.142.592-.667,1-.656,1.018-1.658.366q-3.891-2.533-7.771-5.081a.589.589,0,0,0-.773,0c-2.768,1.828-5.553,3.631-8.321,5.46-.339.224-.482.221-.706-.146-.587-.961-.607-.946.344-1.567,2.871-1.875,5.747-3.742,8.6-5.637a.734.734,0,0,1,.968.013c1.461.982,2.942,1.935,4.417,2.9C-5239.333,1408.684-5239.162,1408.778-5238.933,1408.915Z" transform="translate(5258.815 -1405.491)" fill="aqua"/>
    <path id="Path_41408" data-name="Path 41408" d="M-5264.474,1528.624h.837c.166,0,.3-.064.316-.24.018-.21-.127-.294-.316-.3-.261-.006-.521,0-.78,0a1.882,1.882,0,0,1-1.914-1.463,1.894,1.894,0,0,1,1.176-2.2c.109-.048.313-.022.289-.2-.087-.678.4-.486.741-.5.166-.008.423,0,.59,0,.089,0,.072.559.072.559a8.5,8.5,0,0,1,.941.129c0,.465.013.93-.014,1.393-.011.187-.208.109-.322.112-.408.01-.818-.011-1.228.012-.244.014-.659-.143-.644.287.015.413.424.24.674.266.221.023.445,0,.668.015a1.672,1.672,0,0,1,1.567,1.6,1.74,1.74,0,0,1-1.213,2.085c-.064.022-.167.083-.167.119s.016.5.016.5-1.422,0-1.655.013c0,0-.033,0-.033-.459,0-.082-.1-.114-.17-.1-.63.116-.507-.324-.507-.677C-5265.549,1528.626-5265.549,1528.626-5264.474,1528.624Z" transform="translate(5269.595 -1510.513)" fill="aqua"/>
  </g>
</svg>
