<svg xmlns="http://www.w3.org/2000/svg" width="29.567" height="37" viewBox="0 0 29.567 37">
  <g id="Group_51970" data-name="Group 51970" transform="translate(-3597.906 -143.696)">
    <path id="Path_42604" data-name="Path 42604" d="M3604.423,195.763v2.447c-.184-.009-.357-.015-.53-.026-1.789-.116-3.033.48-3.613,2.229a4.086,4.086,0,0,0-.168,1.259q-.015,8.875-.007,17.75c0,1.279-.01,2.558,0,3.837a3.134,3.134,0,0,0,2.59,3.249,4.716,4.716,0,0,0,.925.072q8.991.006,17.983,0a3.249,3.249,0,0,0,3.529-3.559q-.005-10.7-.006-21.394a4.817,4.817,0,0,0-.122-1.15,3.091,3.091,0,0,0-3.011-2.39c-.359-.009-.719,0-1.11,0v-2.227a7.394,7.394,0,0,1,2.89.255,5.328,5.328,0,0,1,3.676,5.12q.013,8.391,0,16.782c0,1.924.034,3.848,0,5.771a5.1,5.1,0,0,1-5,4.932q-9.592.022-19.185,0a5.372,5.372,0,0,1-5.361-5.393c-.019-4.212-.007-8.423-.007-12.635q0-4.69,0-9.379a5.31,5.31,0,0,1,5.569-5.543C3603.785,195.765,3604.092,195.763,3604.423,195.763Z" transform="translate(0 -48.03)" fill="#0098bf"/>
    <path id="Path_42605" data-name="Path 42605" d="M3704.125,150.563q-2.827,0-5.653,0c-.245,0-.49-.018-.735-.025a.55.55,0,0,1-.6-.574q-.032-1.2-.006-2.4c.008-.354.257-.555.653-.58.27-.018.542-.019.813-.01a3.152,3.152,0,0,0,3.013-1.8c.095-.168.167-.349.262-.517a1.772,1.772,0,0,1,1.542-.948c.361-.017.723.008,1.084-.009a2.013,2.013,0,0,1,1.878,1.011c.19.292.37.59.558.883a2.985,2.985,0,0,0,2.771,1.454c.284-.009.568-.012.852,0a.528.528,0,0,1,.58.545c.02.747.04,1.5.015,2.242-.018.537-.207.707-.754.717-1.1.019-2.194.012-3.291.014q-1.491,0-2.981,0Z" transform="translate(-91.521)" fill="#0098bf"/>
    <g id="Group_51972" data-name="Group 51972" transform="translate(3602.541 154.913)">
      <path id="Path_42606" data-name="Path 42606" d="M3677.8,289.455a8.115,8.115,0,0,0-1.392-.878,1.215,1.215,0,0,0-.982.051.868.868,0,0,0-.444.507.832.832,0,0,0,.056.644.926.926,0,0,0,1.139.485c.4-.113.485-.073.681.331a1.471,1.471,0,0,1,.09,1.186c-.364,1.025-.758,2.119-1.2,3.343a.594.594,0,0,1-.047.064,1.083,1.083,0,0,0-.1.147l-.023.042c-.092.166-.188.338-.268.522-.055.127-.1.256-.143.38a2.561,2.561,0,0,1-.245.562.693.693,0,0,1-.607.348.718.718,0,0,1-.585-.424.836.836,0,0,1-.055-.209,1.569,1.569,0,0,0-.083-.316c-.084-.2-.176-.407-.264-.6-.127-.281-.248-.547-.349-.822-.3-.831-.591-1.686-.87-2.512l-.137-.406a4.347,4.347,0,0,1-.174-.66,1.163,1.163,0,0,1,.357-1.009c.107-.122.162-.121.429-.06.062.014.127.029.2.041a1.078,1.078,0,0,0,.915-.376.971.971,0,0,0,.06-.98,1.085,1.085,0,0,0-.862-.471,2.592,2.592,0,0,0-2.387,1.941,4.834,4.834,0,0,0,.043,1.826,8.493,8.493,0,0,0,.387,1.283c.071.2.144.4.206.594.052.163.113.325.172.482a3.515,3.515,0,0,1,.283,1.062,3.589,3.589,0,0,0,.7,2.03,2.607,2.607,0,0,0,1.09.914c.206.081.208.1.168.361,0,.028-.01.056-.016.084-.01.046-.02.1-.027.155a7.175,7.175,0,1,1-14.229-1.847,6.989,6.989,0,0,1,4.076-5.5c.239-.118.485-.216.747-.32.122-.049.245-.1.367-.149l.124-.052a1.4,1.4,0,0,0,1,.411h.006a1.34,1.34,0,0,0,.957-.392,1.367,1.367,0,0,0,.388-.981,1.415,1.415,0,0,0-.435-1,1.323,1.323,0,0,0-.934-.384,1.464,1.464,0,0,0-1.3.971l-.248.066-.112.029c-.081.02-.165.041-.25.07a8.732,8.732,0,0,0,2.737,17.012,8.539,8.539,0,0,0,.914-.049,8.662,8.662,0,0,0,7.838-8.185.391.391,0,0,1,.024-.1,3.277,3.277,0,0,0,1.752-2.391c.226-.789.472-1.588.709-2.36q.193-.627.383-1.254c.03-.1.062-.2.094-.3a7.346,7.346,0,0,0,.258-.96A1.909,1.909,0,0,0,3677.8,289.455Z" transform="translate(-3657.695 -288.383)" fill="#0098bf"/>
      <path id="Path_42607" data-name="Path 42607" d="M3719.8,379.083c-.011-.01-.024-.023-.041-.04-.359-.381-.762-.786-1.27-1.273a1.054,1.054,0,0,0-.751-.33.91.91,0,0,0-.643.306.877.877,0,0,0,.062,1.345c.731.741,1.343,1.35,1.927,1.918a1.632,1.632,0,0,0,.365.249c.057.032.116.065.177.1l.172.106.167-.114c.072-.049.147-.1.219-.141a2.95,2.95,0,0,0,.487-.353c.989-.942,1.986-1.909,2.949-2.844l.582-.563c.211-.2.429-.413.626-.644a.887.887,0,0,0,.026-1.177.872.872,0,0,0-1.151-.242,2.005,2.005,0,0,0-.43.336l-.48.462c-.969.932-1.971,1.9-2.946,2.856C3719.827,379.059,3719.812,379.073,3719.8,379.083Z" transform="translate(-3712.229 -368.531)" fill="#0098bf"/>
    </g>
  </g>
</svg>
