<svg xmlns="http://www.w3.org/2000/svg" width="22.751" height="28.36" viewBox="0 0 22.751 28.36">
  <g id="Budget_management" data-name="Budget management" style="isolation: isolate">
    <path id="Path_41409" data-name="Path 41409" d="M-3301.543,2720.842q0-5.561,0-11.122a1.485,1.485,0,0,1,.822-1.448,1.513,1.513,0,0,1,.659-.145q6.068-.012,12.136.005a1.006,1.006,0,0,1,.632.275q2.27,2.224,4.5,4.492a1.139,1.139,0,0,1,.23.73c.018,2.077.01,4.154.011,6.23,0,.483,0,.483.479.483.447,0,.893,0,1.34,0a1.959,1.959,0,0,1,1.927,1.909q.012,6.159,0,12.318a1.941,1.941,0,0,1-1.889,1.9q-5.235.015-10.47,0a1.944,1.944,0,0,1-1.888-1.947c-.037-.879-.037-.879-.905-.879-1.944,0-3.889-.026-5.833.01a1.626,1.626,0,0,1-1.757-1.767C-3301.523,2728.209-3301.543,2724.525-3301.543,2720.842Zm1.07.027q0,5.289,0,10.578,0,.326.013.652a.422.422,0,0,0,.478.461q3.3,0,6.593,0c.23,0,.33-.1.326-.326-.006-.338,0-.676,0-1.014,0-2.9.026-5.8-.011-8.694a2.083,2.083,0,0,1,2.177-2.2c2.269.047,4.54.01,6.81.018.294,0,.439-.056.437-.395q-.019-2.844,0-5.687c0-.328-.126-.411-.431-.4-.8.016-1.6.037-2.39-.01a2.371,2.371,0,0,1-1.008-.323,1.88,1.88,0,0,1-.894-1.679c-.025-.784-.012-1.57-.006-2.354,0-.242-.08-.342-.337-.342q-5.6.01-11.194.006c-.385,0-.517.13-.551.517-.014.156-.009.313-.009.47Q-3300.474,2715.508-3300.473,2720.869Zm8.5,7.51q0,1.449,0,2.9c0,1.075-.006,2.15.007,3.224a.863.863,0,0,0,.9.922c.1.006.193,0,.29,0h9.708c.868,0,1.175-.308,1.175-1.173q0-5.833,0-11.665c0-.887-.31-1.2-1.191-1.2h-9.744c-.828,0-1.141.3-1.142,1.122Q-3291.973,2725.444-3291.969,2728.379Zm4.729-18.176.057-.1c-.032.069-.094.138-.094.208,0,.567-.01,1.134.012,1.7a.728.728,0,0,0,.559.722,5.364,5.364,0,0,0,1.029.1c.363.015.728,0,1.178,0Z" transform="translate(3301.556 -2708.121)" fill="aqua"/>
    <path id="Path_41410" data-name="Path 41410" d="M-3266.145,2742.391a1.042,1.042,0,0,0,.305,1.47,1.6,1.6,0,0,1,.953,1.463,1.52,1.52,0,0,1-.967,1.367,2.315,2.315,0,0,0-.593.484.458.458,0,0,1-.766.018,3.987,3.987,0,0,0-.72-.557,1.551,1.551,0,0,1-.844-1.187c-.047-.409.213-.682.6-.606a.786.786,0,0,1,.393.305,2.3,2.3,0,0,1,.226.466l.129-.014c.013-.261.023-.523.039-.783a.583.583,0,0,0-.366-.61,2.265,2.265,0,0,1-.86-.876,1.45,1.45,0,0,1,.854-2.025,1.2,1.2,0,0,0,.465-.361.536.536,0,0,1,.918-.005,1.277,1.277,0,0,0,.465.364,1.678,1.678,0,0,1,1.02,1.183.576.576,0,0,1-.437.721.489.489,0,0,1-.588-.4A2.42,2.42,0,0,0-3266.145,2742.391Zm-.083,2.489v.716C-3265.927,2745.376-3265.926,2745.163-3266.228,2744.88Zm-1.225-2.516c-.317.283-.268.488,0,.694Z" transform="translate(3271.157 -2738.323)" fill="aqua"/>
    <path id="Path_41411" data-name="Path 41411" d="M-3261.6,2851.811h-6.2a1.961,1.961,0,0,1-.362-.009.571.571,0,0,1-.52-.522c-.024-.3.186-.454.45-.529a1.074,1.074,0,0,1,.287-.028q6.378,0,12.754.005a.946.946,0,0,1,.567.173.518.518,0,0,1,.136.475,1.093,1.093,0,0,1-.456.411.858.858,0,0,1-.392.023Z" transform="translate(3271.064 -2840.385)" fill="aqua"/>
    <path id="Path_41412" data-name="Path 41412" d="M-3201.1,2779.216c.748,0,1.495,0,2.243,0,.38,0,.6.2.612.515.012.341-.159.533-.578.537q-2.3.021-4.594,0a.532.532,0,0,1-.583-.518.593.593,0,0,1,.62-.532C-3202.621,2779.21-3201.861,2779.216-3201.1,2779.216Z" transform="translate(3211.071 -2774.061)" fill="aqua"/>
    <path id="Path_41413" data-name="Path 41413" d="M-3201.564,2754.28c-.592,0-1.183,0-1.774,0a.623.623,0,0,1-.677-.516.572.572,0,0,1,.637-.553q1.774-.02,3.548,0c.415,0,.654.222.659.53s-.295.536-.69.54C-3200.429,2754.284-3201,2754.28-3201.564,2754.28Z" transform="translate(3211.085 -2749.933)" fill="aqua"/>
    <path id="Path_41414" data-name="Path 41414" d="M-3228.149,2916.654a6.425,6.425,0,0,1-.686-.005.491.491,0,0,1-.5-.476c-.023-.312.116-.546.42-.568a9.69,9.69,0,0,1,1.548,0,.48.48,0,0,1,.456.582c-.042.33-.281.434-.555.466a5.954,5.954,0,0,1-.686.006Z" transform="translate(3234.569 -2900.537)" fill="aqua"/>
    <path id="Path_41415" data-name="Path 41415" d="M-3228.132,2968.971c-.216,0-.434.013-.649,0a.509.509,0,0,1-.515-.534.445.445,0,0,1,.479-.506c.48-.012.962-.021,1.441,0a.476.476,0,0,1,.506.532c-.011.352-.249.475-.542.505a6.881,6.881,0,0,1-.72.005Z" transform="translate(3234.533 -2949.087)" fill="aqua"/>
    <path id="Path_41416" data-name="Path 41416" d="M-3228,2941.7a6.048,6.048,0,0,1,.72.006.475.475,0,0,1,.471.527.452.452,0,0,1-.467.49c-.5.02-1.009.013-1.513,0a.431.431,0,0,1-.443-.5.471.471,0,0,1,.476-.524c.252-.012.5,0,.757,0Z" transform="translate(3234.476 -2924.765)" fill="aqua"/>
    <path id="Path_41417" data-name="Path 41417" d="M-3228.055,2891.022c-.24,0-.48,0-.721,0a.459.459,0,0,1-.491-.5.449.449,0,0,1,.468-.517q.738-.02,1.478,0a.449.449,0,0,1,.475.512.462.462,0,0,1-.488.5C-3227.574,2891.03-3227.815,2891.021-3228.055,2891.022Z" transform="translate(3234.508 -2876.812)" fill="aqua"/>
    <path id="Path_41418" data-name="Path 41418" d="M-3228.082,2993.53a6.949,6.949,0,0,1,.72,0,.5.5,0,0,1,.507.5.468.468,0,0,1-.47.532,14.6,14.6,0,0,1-1.547-.009c-.309-.016-.427-.244-.407-.533a.483.483,0,0,1,.475-.494C-3228.564,2993.515-3228.323,2993.53-3228.082,2993.53Z" transform="translate(3234.519 -2972.837)" fill="aqua"/>
    <path id="Path_41419" data-name="Path 41419" d="M-3267.75,2916.479a3.52,3.52,0,0,1-.4,0,.571.571,0,0,1-.561-.515.548.548,0,0,1,.509-.559,4.6,4.6,0,0,1,.973.007.5.5,0,0,1,.491.557c-.016.355-.251.469-.546.507a3.676,3.676,0,0,1-.47,0Z" transform="translate(3271.092 -2900.358)" fill="aqua"/>
    <path id="Path_41420" data-name="Path 41420" d="M-3267.686,2967.783c.179.01.361.009.539.03a.462.462,0,0,1,.45.505.47.47,0,0,1-.452.511,4.9,4.9,0,0,1-1.041,0,.505.505,0,0,1-.48-.537.483.483,0,0,1,.48-.49,4.553,4.553,0,0,1,.5,0Z" transform="translate(3271.053 -2948.964)" fill="aqua"/>
    <path id="Path_41421" data-name="Path 41421" d="M-3267.742,2890.024c.156,0,.312-.006.469,0a.473.473,0,0,1,.512.517.465.465,0,0,1-.493.5c-.324.007-.649.009-.973,0a.489.489,0,0,1-.5-.5.5.5,0,0,1,.522-.517C-3268.055,2890.018-3267.9,2890.024-3267.742,2890.024Z" transform="translate(3271.113 -2876.838)" fill="aqua"/>
    <path id="Path_41422" data-name="Path 41422" d="M-3267.637,2941.708c.144,0,.289-.008.432,0a.5.5,0,0,1,.518.526.461.461,0,0,1-.491.505c-.335.012-.673.01-1.009,0a.455.455,0,0,1-.469-.489.491.491,0,0,1,.443-.528,3.809,3.809,0,0,1,.576-.005Z" transform="translate(3271.041 -2924.775)" fill="aqua"/>
    <path id="Path_41423" data-name="Path 41423" d="M-3267.69,2993.343a3.809,3.809,0,0,1,.5,0,.478.478,0,0,1,.465.463c.022.29-.091.521-.392.55a5.943,5.943,0,0,1-1.147.012.428.428,0,0,1-.414-.527,1.047,1.047,0,0,1,.487-.49c.126-.073.329-.014.5-.014Z" transform="translate(3271.073 -2972.648)" fill="aqua"/>
    <path id="Path_41424" data-name="Path 41424" d="M-3137.726,2805.615c.084,0,.188-.031.249.006.171.105.418.214.458.369s-.1.5-.212.531a2.47,2.47,0,0,1-1.034.019c-.115-.024-.241-.353-.231-.535a.434.434,0,0,1,.481-.391h.289Z" transform="translate(3150.314 -2798.538)" fill="aqua"/>
    <path id="Path_41425" data-name="Path 41425" d="M-3105.744,2806.763a2.284,2.284,0,0,1-.6-.3.463.463,0,0,1,.272-.79,2.948,2.948,0,0,1,.575-.015.525.525,0,0,1,.565.48.585.585,0,0,1-.557.551c-.072.006-.144,0-.216,0Z" transform="translate(3120.628 -2798.582)" fill="aqua"/>
    <path id="Path_41426" data-name="Path 41426" d="M-3170.349,2805.576c.1,0,.21-.023.284.02.155.09.352.191.412.336a.6.6,0,0,1-.108.482.948.948,0,0,1-1.2.03.631.631,0,0,1-.151-.5c.06-.152.276-.258.444-.346.084-.045.212-.008.319-.008Z" transform="translate(3180.58 -2798.509)" fill="aqua"/>
    <path id="Path_41427" data-name="Path 41427" d="M-3202.794,2805.734c.083,0,.167,0,.251,0a.425.425,0,0,1,.467.4c0,.184-.125.5-.246.529a2.23,2.23,0,0,1-1-.01c-.124-.031-.252-.348-.243-.529a.438.438,0,0,1,.481-.39Z" transform="translate(3210.666 -2798.659)" fill="aqua"/>
    <path id="Path_41428" data-name="Path 41428" d="M-3153.015,2906.849c-1.353,0-2.705,0-4.058,0-.812,0-1.137-.335-1.139-1.143,0-.556,0-1.111,0-1.667a.936.936,0,0,1,1-1.031c.483-.016.966,0,1.449,0,2.283,0,4.565-.006,6.848.009a1.756,1.756,0,0,1,.779.2.761.761,0,0,1,.373.735c-.01.616,0,1.232,0,1.848a.927.927,0,0,1-1.045,1.05C-3150.214,2906.854-3151.615,2906.849-3153.015,2906.849Zm0-1.044v0c1.266,0,2.532-.007,3.8.005.306,0,.448-.08.423-.407-.023-.288,0-.579-.005-.868,0-.478,0-.48-.486-.48h-6.187c-.458,0-.917,0-1.375,0-.242,0-.35.1-.34.348a9.355,9.355,0,0,1,0,.976c-.022.339.126.437.447.434C-3155.5,2905.8-3154.253,2905.8-3153.011,2905.8Z" transform="translate(3168.602 -2888.875)" fill="aqua"/>
    <path id="Path_41429" data-name="Path 41429" d="M-3051.708,2975.74c.116,1.178-.424,1.548-1.475,1.478-.181-.012-.364.007-.543-.01a1.014,1.014,0,0,1-.909-1.005,8.008,8.008,0,0,1,0-.941,1,1,0,0,1,1.063-.995c.277,0,.555-.005.832,0a.953.953,0,0,1,1.031,1.038C-3051.706,2975.451-3051.708,2975.6-3051.708,2975.74Zm-1.424-.43c-.3-.057-.416.079-.417.372,0,.271.032.477.38.463.254-.01.449-.04.438-.37C-3052.74,2975.5-3052.753,2975.253-3053.132,2975.31Z" transform="translate(3072.544 -2954.975)" fill="aqua"/>
    <path id="Path_41430" data-name="Path 41430" d="M-3051.256,3027.781c.105,1.121-.379,1.522-1.464,1.448-.144-.01-.289,0-.434,0a.924.924,0,0,1-.972-.753,6.652,6.652,0,0,1,.02-1.5.715.715,0,0,1,.621-.632,5.211,5.211,0,0,1,1.54,0c.485.086.681.458.689.969C-3051.255,3027.468-3051.256,3027.625-3051.256,3027.781Zm-1.425.387c.357.059.394-.17.4-.462.009-.33-.179-.368-.439-.376-.322-.009-.381.168-.377.437S-3053.018,3028.223-3052.681,3028.168Z" transform="translate(3072.092 -3003.223)" fill="aqua"/>
    <path id="Path_41431" data-name="Path 41431" d="M-3104,2975.759a4.6,4.6,0,0,1-.217.925.85.85,0,0,1-.494.437,2.589,2.589,0,0,1-1.762-.065.82.82,0,0,1-.394-.4,2.429,2.429,0,0,1,.012-1.891.854.854,0,0,1,.815-.507c.314,0,.628-.007.942,0a1,1,0,0,1,1.037,1.05c0,.145,0,.29,0,.435Zm-1.106-.046c.037-.3-.106-.416-.416-.42s-.429.13-.436.43.126.414.41.415S-3105.067,2976.064-3105.1,2975.713Z" transform="translate(3121.148 -2954.969)" fill="aqua"/>
    <path id="Path_41432" data-name="Path 41432" d="M-3104.147,3026.937c0,.133-.005.266,0,.4a.973.973,0,0,1-.548.941c-.659.375-2.032.132-2.274-.454a2.354,2.354,0,0,1,.012-1.825.966.966,0,0,1,.388-.406,1.949,1.949,0,0,1,2.263.374,3.5,3.5,0,0,1,.218.961Zm-1.89-.02c-.022.269.072.439.4.435.289,0,.449-.088.453-.412s-.123-.437-.426-.437C-3105.883,3026.5-3106.053,3026.595-3106.037,3026.917Z" transform="translate(3121.237 -3002.395)" fill="aqua"/>
    <path id="Path_41433" data-name="Path 41433" d="M-3156.675,3025.956a1.069,1.069,0,0,1,1.272.624,2.074,2.074,0,0,1-.1,1.872,1.245,1.245,0,0,1-.738.439,4.108,4.108,0,0,1-1.082.012.971.971,0,0,1-.912-.947c-.01-.3,0-.6,0-.9a1.01,1.01,0,0,1,1.107-1.094C-3157.008,3025.955-3156.887,3025.956-3156.675,3025.956Zm-.085,1.9c.306.042.395-.132.4-.406.01-.307-.123-.441-.43-.433-.27.006-.429.082-.426.4S-3157.1,3027.9-3156.76,3027.855Z" transform="translate(3168.626 -3002.908)" fill="aqua"/>
    <path id="Path_41434" data-name="Path 41434" d="M-3158.991,2975.042a9.094,9.094,0,0,1,.215-.955.764.764,0,0,1,.319-.326,1.99,1.99,0,0,1,2.365.438,1.878,1.878,0,0,1-.514,2.257,1.946,1.946,0,0,1-2.192-.444A3.9,3.9,0,0,1-3158.991,2975.042Zm1.533-.4c-.307-.04-.446.085-.453.419s.137.42.43.419c.275,0,.433-.091.427-.393C-3157.059,2974.82-3157.1,2974.6-3157.458,2974.645Z" transform="translate(3169.324 -2954.312)" fill="aqua"/>
    <path id="Path_41435" data-name="Path 41435" d="M-3233.549,2798.6c.3.283.3.5,0,.715Z" transform="translate(3238.478 -2792.038)" fill="aqua"/>
    <path id="Path_41436" data-name="Path 41436" d="M-3253.261,2763.876v.694C-3253.528,2764.364-3253.578,2764.158-3253.261,2763.876Z" transform="translate(3256.965 -2759.835)" fill="aqua"/>
  </g>
</svg>
