<svg xmlns="http://www.w3.org/2000/svg" width="30.933" height="22.751" viewBox="0 0 30.933 22.751">
  <g id="Financial_management" data-name="Financial management" style="isolation: isolate">
    <path id="Path_41385" data-name="Path 41385" d="M-1335.5,1696.342c-.2.193-.385.364-.562.541q-4.833,4.8-9.666,9.607c-.7.7-1.423,1.383-2.142,2.067a.906.906,0,0,1-1.373.02q-1.8-1.727-3.571-3.48c-1.014-1-2.014-2.014-3.021-3.021-.044-.044-.091-.087-.16-.151-.382.388-.751.773-1.131,1.147-1.381,1.361-2.772,2.714-4.145,4.083a1.087,1.087,0,0,1-1.07.316,1.725,1.725,0,0,1-1.146-1.456.793.793,0,0,1,.235-.553c1.207-1.226,2.4-2.464,3.618-3.68.993-.993,2.008-1.964,3.019-2.939a.886.886,0,0,1,1.238-.018q1.125,1.046,2.22,2.124,2.213,2.174,4.413,4.362c.05.05.1.095.2.178l11.1-11.066c-.352-.37-.689-.722-1.025-1.077-.235-.248-.475-.491-.7-.749a.486.486,0,0,1,.3-.815,8.559,8.559,0,0,1,.924-.083q2.192-.1,4.384-.186c.186-.008.374,0,.56.009a.4.4,0,0,1,.413.355,1.514,1.514,0,0,1,.029.364c-.055,1.333-.108,2.665-.176,4-.024.475-.08.949-.137,1.422a.52.52,0,0,1-.476.5.447.447,0,0,1-.4-.15c-.352-.331-.7-.669-1.047-1C-1335.015,1696.792-1335.247,1696.579-1335.5,1696.342Z" transform="translate(1363.486 -1691.509)" fill="aqua"/>
    <path id="Path_41386" data-name="Path 41386" d="M-727.206,1862.435c.295.3.583.6.866.9a.266.266,0,0,1,.054.137,1.086,1.086,0,0,1,0,.173q0,7.3,0,14.593c0,.273,0,.273-.268.273-1.327,0-2.655,0-3.982,0-.173,0-.214-.049-.214-.217q.007-6.089.007-12.177a.394.394,0,0,1,.089-.256q1.667-1.681,3.346-3.351A1.206,1.206,0,0,1-727.206,1862.435Z" transform="translate(755.216 -1855.825)" fill="aqua"/>
    <path id="Path_41387" data-name="Path 41387" d="M-870.552,1994.873h-.183c-1.346,0-2.692,0-4.038,0-.166,0-.22-.038-.219-.213.006-2.2,0-4.406.008-6.608a.419.419,0,0,1,.1-.27q2.08-2.087,4.171-4.162c.04-.04.083-.075.158-.144Z" transform="translate(893.883 -1972.189)" fill="aqua"/>
    <path id="Path_41388" data-name="Path 41388" d="M-1161.784,2016.735c.075.069.118.105.158.145q2.085,2.083,4.165,4.17a.471.471,0,0,1,.12.3c.007,1.758,0,3.517.009,5.275,0,.165-.037.221-.213.22q-2.019-.011-4.039,0c-.17,0-.216-.046-.216-.216q.008-4.841,0-9.681C-1161.795,2016.892-1161.789,2016.836-1161.784,2016.735Z" transform="translate(1169.598 -2004.158)" fill="aqua"/>
    <path id="Path_41389" data-name="Path 41389" d="M-1301.645,2031.408c.007.074.014.115.014.157q0,4.551.006,9.1c0,.3-.005.313-.313.316-1.243.015-2.487.022-3.729.031-.392,0-.392,0-.392-.4,0-1.643,0-3.285,0-4.928a.306.306,0,0,1,.2-.32,2.63,2.63,0,0,0,.588-.43c1.167-1.127,2.325-2.264,3.487-3.4C-1301.751,2031.5-1301.708,2031.465-1301.645,2031.408Z" transform="translate(1308.284 -2018.264)" fill="aqua"/>
    <path id="Path_41390" data-name="Path 41390" d="M-1018.96,2133.267V2128.7c.084.047.149.08.21.118a2.342,2.342,0,0,0,3.018-.23c.344-.3.665-.628,1-.942.055-.052.112-.1.2-.188v5.811Z" transform="translate(1032.283 -2110.598)" fill="aqua"/>
  </g>
</svg>
