<svg xmlns="http://www.w3.org/2000/svg" width="28.368" height="22.751" viewBox="0 0 28.368 22.751">
  <g id="Gate_Pass_Visitor_Management_" data-name="Gate Pass (Visitor Management)" style="isolation: isolate">
    <path id="Path_38653" data-name="Path 38653" d="M-586.7,13.915c.581,0,1.138-.009,1.7,0a.919.919,0,0,1,.97,1.026.9.9,0,0,1-.9.8q-1.361.01-2.722-.026a.841.841,0,0,1-.881-.9c-.012-.459,0-.919,0-1.408l-.388-.018v.51q.015,6.335.028,12.67a2.055,2.055,0,0,1-.061.553,1.06,1.06,0,0,1-1.144.761,1.066,1.066,0,0,1-.965-.937,3.436,3.436,0,0,1-.013-.41q0-2.991,0-5.981v-.435l-.433-.031c-.011.159-.027.3-.027.44q0,3.084,0,6.168a1.083,1.083,0,0,1-1.1,1.193,1.062,1.062,0,0,1-1.043-.85,2.638,2.638,0,0,1-.04-.52q-.006-4.617-.005-9.233c0-1.194.006-2.387,0-3.581,0-.106-.093-.212-.143-.318-.06.108-.171.215-.172.324-.023,1.468-.033,2.937-.042,4.4,0,.636-.358,1.044-.914,1.041a.912.912,0,0,1-.9-1.017c.009-2.179.019-4.36.043-6.54a2.087,2.087,0,0,1,2.079-2.112q2.466-.041,4.934,0a2.129,2.129,0,0,1,2.121,2.2c.012.611,0,1.221.008,1.832C-586.721,13.635-586.711,13.756-586.7,13.915Z" transform="translate(595.908 -5.138)" fill="aqua"/>
    <path id="Path_38654" data-name="Path 38654" d="M-569.627,17.88c-.437,0-.818,0-1.2,0q-1.509,0-3.021-.008c-.31,0-.621.019-.932.011a.662.662,0,0,1-.7-.665.656.656,0,0,1,.711-.655c1.545-.008,3.09,0,4.635,0h.493c0-.367,0-.7,0-1.03A.919.919,0,0,1-568.6,14.5q2.3,0,4.6,0c.708,0,1.039.321,1.039,1.017q0,6.244,0,12.486a.889.889,0,0,1-1.012,1.009q-2.318.006-4.636,0a.911.911,0,0,1-1.03-1q0-4.467.013-8.934C-569.626,18.7-569.627,18.312-569.627,17.88Zm3.309,4.477a2.007,2.007,0,0,0,2.029-2,2.021,2.021,0,0,0-1.985-2.013,2.036,2.036,0,0,0-2.032,2A2.021,2.021,0,0,0-566.318,22.357Zm0-5.828c.647,0,1.294,0,1.941,0,.321,0,.531-.133.561-.465.027-.293-.2-.505-.56-.507q-1.9-.008-3.807,0c-.369,0-.581.19-.583.487s.212.479.582.482C-567.567,16.532-566.945,16.528-566.322,16.529Z" transform="translate(591.33 -6.266)" fill="aqua"/>
    <path id="Path_38655" data-name="Path 38655" d="M-581.62,14.5c.819,0,1.565-.009,2.311,0a.863.863,0,0,1,.874.921c.015.821.009,1.642.009,2.463q0,2.762,0,5.524c0,1.494,0,2.989,0,4.484,0,.819-.308,1.119-1.134,1.119-1.508,0-3.015,0-4.522,0a.911.911,0,0,1-1.026-1.04q0-4.858.016-9.714c0-.2,0-.391,0-.632.85,0,1.678-.016,2.507,0a1.7,1.7,0,0,0,1.56-.9.515.515,0,0,1,.341-.192c.258-.029.522-.006.784-.01a.461.461,0,0,0,.511-.478c0-.306-.2-.468-.5-.492a.538.538,0,0,0-.112,0c-.53.065-.992.027-1.194-.6C-581.256,14.8-581.444,14.689-581.62,14.5Zm-.161,7.855a2.01,2.01,0,0,0,2.016-2.013,2.023,2.023,0,0,0-2.018-2,2.02,2.02,0,0,0-2,2.02A2.009,2.009,0,0,0-581.782,22.356Z" transform="translate(593.489 -6.266)" fill="aqua"/>
    <path id="Path_38656" data-name="Path 38656" d="M-590.528,7.641a1.873,1.873,0,0,1-1.856-1.9,1.868,1.868,0,0,1,1.9-1.855,1.881,1.881,0,0,1,1.861,1.9A1.886,1.886,0,0,1-590.528,7.641Z" transform="translate(595.118 -3.888)" fill="aqua"/>
    <path id="Path_38657" data-name="Path 38657" d="M-564.088,20.612l.654.544-.724.523.253.432h-1.145V20.988l.356.191Z" transform="translate(588.992 -7.636)" fill="aqua"/>
    <path id="Path_38658" data-name="Path 38658" d="M-581.293,21.771l.242.4c-.39,0-.715.008-1.039-.007a.226.226,0,0,1-.156-.154c-.016-.317-.008-.635-.008-1.023l.382.207c.092-.087.192-.177.287-.271.348-.347.559-.323.805.118a.313.313,0,0,1-.054.276A5.646,5.646,0,0,1-581.293,21.771Z" transform="translate(592.848 -7.653)" fill="aqua"/>
  </g>
</svg>
