<svg xmlns="http://www.w3.org/2000/svg" width="22.751" height="20.826" viewBox="0 0 22.751 20.826">
  <g id="Human_resource_management" data-name="Human resource management" style="isolation: isolate">
    <g id="Group_51266" data-name="Group 51266" transform="translate(0)">
      <g id="Group_51228" data-name="Group 51228" transform="translate(0 0)">
        <g id="Group_50792" data-name="Group 50792" transform="translate(0)">
          <g id="Group_51561" data-name="Group 51561" transform="translate(0)" style="mix-blend-mode: color-dodge;isolation: isolate">
            <path id="Path_41376" data-name="Path 41376" d="M-367.586,955.51c-2.225.529-2.8,1.253-2.794,3.541,0,.792,0,1.583,0,2.43-1.952-1.2-2.909-4.153-2.249-6.711a6.573,6.573,0,0,1,6.249-4.932,6.567,6.567,0,0,1,6.518,4.569,6.484,6.484,0,0,1-2.157,7.161c0-.93,0-1.776,0-2.622,0-2.213-.6-2.954-2.78-3.425a2.153,2.153,0,0,0,.392-2.638,1.957,1.957,0,0,0-2.014-1.017C-368.174,952.056-368.746,953.855-367.586,955.51Z" transform="translate(377.642 -949.836)" fill="aqua"/>
            <path id="Path_41377" data-name="Path 41377" d="M-391.851,993.588a4.669,4.669,0,0,0-.494-1.2c-.351-.448-.907-.739-1.241-1.195-.19-.259-.113-.714-.157-1.08.371-.017.879-.2,1.09-.025,1.48,1.228,2.948,2.479,4.323,3.822,1.354,1.322.989,3.072.992,4.781h-3.1c-.036-.065-.1-.125-.093-.176.248-1.937-.773-2.948-2.473-3.575a21.566,21.566,0,0,1-3.119-1.488,1.71,1.71,0,0,1-.787-1.055c-.342-2.25-.593-4.513-.872-6.772-.067-.541.072-1.008.68-1.067.587-.057.829.325.889.892.138,1.307.265,2.617.5,3.908A2.666,2.666,0,0,0-395,990.62c.619.647,1.357,1.179,1.988,1.816a7.992,7.992,0,0,1,.836,1.214Z" transform="translate(397.793 -977.866)" fill="aqua"/>
            <path id="Path_41378" data-name="Path 41378" d="M-334.036,998.724c-.318-2.288-.112-4.3,1.947-5.765,1.012-.719,1.873-1.649,2.817-2.466.44-.381.92-1.032,1.527-.359.672.745-.152,1.1-.569,1.524a6.359,6.359,0,0,0-.9.861,4.674,4.674,0,0,0-.374,1.161c1.077-1.036,1.971-2,2.976-2.826a2.554,2.554,0,0,0,.97-1.87c.112-1.146.278-2.286.392-3.432.058-.585.258-1.034.921-.952.689.086.708.625.641,1.173-.256,2.1-.526,4.191-.757,6.29a1.69,1.69,0,0,1-1.135,1.587c-1.155.462-2.238,1.1-3.389,1.574a2.582,2.582,0,0,0-1.915,2.928,2.3,2.3,0,0,1-.077.573Z" transform="translate(346.409 -977.897)" fill="aqua"/>
            <path id="Path_41381" data-name="Path 41381" d="M-345.78,979.122a2.232,2.232,0,0,0,2.719.1l-1.236,2.29Z" transform="translate(355.795 -973.482)" fill="aqua"/>
          </g>
        </g>
      </g>
    </g>
  </g>
</svg>
