<svg xmlns="http://www.w3.org/2000/svg" width="25.147" height="25.026" viewBox="0 0 25.147 25.026">
  <g id="Inventory_and_purchase_management" data-name="Inventory and purchase management" style="isolation: isolate">
    <path id="Path_41437" data-name="Path 41437" d="M-2808.936,2789.563h4.911c.382,0,.764.012,1.145-.005.231-.01.309.06.352.3a7.444,7.444,0,0,0,4.946,6,7.158,7.158,0,0,0,4.719.123c.071-.021.145-.034.265-.062-.085.354-.161.676-.24,1-.2.793-.4,1.583-.585,2.38-.049.215-.136.275-.349.274q-4.873-.008-9.746,0h-2.895c.09.378.167.723.254,1.064s.088.818.314,1,.684.073,1.04.073q4.873,0,9.746,0c.1,0,.2,0,.294,0a.654.654,0,0,1,.689.669.64.64,0,0,1-.687.666c-.938.008-1.875.007-2.812.007l-8.732,0c-.476,0-.679-.159-.8-.644q-1.542-6.131-3.081-12.262c-.151-.6-.314-1.2-.447-1.808-.049-.222-.156-.269-.359-.267q-1.242.013-2.485,0a.665.665,0,0,1-.69-.489.633.633,0,0,1,.288-.737.872.872,0,0,1,.432-.11c1.058-.009,2.115-.007,3.172,0a.7.7,0,0,1,.785.624C-2809.306,2788.079-2809.125,2788.808-2808.936,2789.563Z" transform="translate(2814.193 -2782.727)" fill="aqua"/>
    <path id="Path_41438" data-name="Path 41438" d="M-2601.041,2731.642a5.991,5.991,0,0,1-6.012,5.972,6.009,6.009,0,0,1-5.972-5.986,6,6,0,0,1,6.019-6A5.986,5.986,0,0,1-2601.041,2731.642Zm-6.947-.975h-2.693v1.921h2.7v2.691h1.92v-2.712h2.695v-1.914h-2.715v-2.691h-1.9Z" transform="translate(2626.188 -2725.626)" fill="aqua"/>
    <path id="Path_41439" data-name="Path 41439" d="M-2567.126,3060.427a1.6,1.6,0,0,1,1.639-1.588,1.6,1.6,0,0,1,1.579,1.617,1.593,1.593,0,0,1-1.623,1.6A1.6,1.6,0,0,1-2567.126,3060.427Z" transform="translate(2583.293 -3037.036)" fill="aqua"/>
    <path id="Path_41440" data-name="Path 41440" d="M-2691.783,3060.415a1.61,1.61,0,0,1-1.6,1.61,1.614,1.614,0,0,1-1.626-1.581,1.617,1.617,0,0,1,1.6-1.645A1.61,1.61,0,0,1-2691.783,3060.415Z" transform="translate(2702.805 -3036.998)" fill="aqua"/>
  </g>
</svg>
