<svg xmlns="http://www.w3.org/2000/svg" width="94" height="31" viewBox="0 0 94 31">
  <g id="Group_52007" data-name="Group 52007" transform="translate(-0.46 -0.485)">
    <g id="Rectangle_12831" data-name="Rectangle 12831" transform="translate(0.46 0.485)" fill="none" stroke="#e0f8f7" stroke-width="2">
      <rect width="94" height="31" rx="8" stroke="none"/>
      <rect x="1" y="1" width="92" height="29" rx="7" fill="none"/>
    </g>
    <g id="Group_35631" data-name="Group 35631" transform="translate(40.321 9.407)">
      <path id="Path_22042" data-name="Path 22042" d="M7.984-8.909H-.239v-1.283H11.248v1.283H9.415V3.172H8.559A6.774,6.774,0,0,0,7.8,1.8,9.971,9.971,0,0,0,6.72.527,11.92,11.92,0,0,0,5.443-.578a15.144,15.144,0,0,0-1.368-.916,12.2,12.2,0,0,0-1.334-.694A7.328,7.328,0,0,0,1.55-2.6V-4.475q.611-.4,1.353-.879t1.576-.914A17.041,17.041,0,0,1,6.2-7.06a8.743,8.743,0,0,1,1.785-.5Zm0,8.781V-6.116a4.006,4.006,0,0,0-.812.2,10.063,10.063,0,0,0-.943.384q-.489.227-.982.489t-.934.52q-.441.253-.8.48t-.568.366v.2A12.244,12.244,0,0,1,5.526-2.188a12.728,12.728,0,0,1,2.4,2.061ZM12.47-7.582a1.219,1.219,0,0,0-.109-.511,1.356,1.356,0,0,0-.3-.423A1.4,1.4,0,0,0,11.6-8.8a1.572,1.572,0,0,0-.58-.1h-.384v-1.283h.384a3.475,3.475,0,0,1,.489.039,3.2,3.2,0,0,1,.572.14,3.615,3.615,0,0,1,.586.262,2.54,2.54,0,0,1,.536.4v-.069a.936.936,0,0,1,.152-.55.465.465,0,0,1,.4-.218h1.981v1.283h-.358a1.572,1.572,0,0,0-.58.1,1.5,1.5,0,0,0-.467.288,1.35,1.35,0,0,0-.315.423,1.18,1.18,0,0,0-.113.511v10.4H12.47Zm7.1,3.692a2.258,2.258,0,0,1-.947-.2,2.464,2.464,0,0,1-.764-.54,2.489,2.489,0,0,1-.506-.782,2.4,2.4,0,0,1-.184-.929,2.24,2.24,0,0,1,.2-.938,2.47,2.47,0,0,1,.529-.755,2.45,2.45,0,0,1,.768-.506,2.365,2.365,0,0,1,.925-.184,2.323,2.323,0,0,1,.938.2,2.469,2.469,0,0,1,.768.52,2.469,2.469,0,0,1,.52.768,2.3,2.3,0,0,1,.2.929,2.3,2.3,0,0,1-.2.947,2.456,2.456,0,0,1-.532.768,2.514,2.514,0,0,1-.782.515,2.345,2.345,0,0,1-.928.192Zm.009-3.666a1.165,1.165,0,0,0-.489.1,1.26,1.26,0,0,0-.391.271,1.29,1.29,0,0,0-.262.391,1.188,1.188,0,0,0-.1.476,1.251,1.251,0,0,0,.1.489,1.315,1.315,0,0,0,.262.405,1.225,1.225,0,0,0,.391.275,1.165,1.165,0,0,0,.489.1,1.152,1.152,0,0,0,.489-.1,1.288,1.288,0,0,0,.4-.283,1.329,1.329,0,0,0,.266-.41,1.251,1.251,0,0,0,.1-.489,1.144,1.144,0,0,0-.1-.476,1.259,1.259,0,0,0-.271-.391,1.27,1.27,0,0,0-.4-.262,1.219,1.219,0,0,0-.484-.086ZM21.373,3.869a8.127,8.127,0,0,0-.738-1.676A11.814,11.814,0,0,0,19.492.54,12.676,12.676,0,0,0,18.1-.909,7.489,7.489,0,0,0,16.59-1.962v-.1l1.012-.75a10.454,10.454,0,0,1,1.649,1.161A11.746,11.746,0,0,1,20.688-.19a10.782,10.782,0,0,1,1.126,1.654,7.947,7.947,0,0,1,.711,1.72l-1.046.686Zm9.518-7.6a3.338,3.338,0,0,0-.943-1.51,1.911,1.911,0,0,0-1.231-.471,1.813,1.813,0,0,0-.838.188,1.968,1.968,0,0,0-.624.5,2.138,2.138,0,0,0-.391.711,2.658,2.658,0,0,0-.131.829,2.8,2.8,0,0,0,.074.646,2.176,2.176,0,0,0,.223.576l.1-.018a1.414,1.414,0,0,1,.087-.467,1.431,1.431,0,0,1,.266-.458,1.4,1.4,0,0,1,.457-.346,1.458,1.458,0,0,1,.651-.135,1.584,1.584,0,0,1,.633.122,1.551,1.551,0,0,1,.489.327,1.413,1.413,0,0,1,.315.476,1.481,1.481,0,0,1,.109.559,1.891,1.891,0,0,1-.092.545,1.583,1.583,0,0,1-.319.568,1.745,1.745,0,0,1-.624.446,2.463,2.463,0,0,1-1.008.179,2.743,2.743,0,0,1-1.228-.253,2.469,2.469,0,0,1-.851-.672,2.784,2.784,0,0,1-.5-.969,4.037,4.037,0,0,1-.161-1.143,4.076,4.076,0,0,1,.227-1.344,3.517,3.517,0,0,1,.659-1.157,3.322,3.322,0,0,1,1.043-.807,3.061,3.061,0,0,1,1.388-.306,2.861,2.861,0,0,1,1.231.266,3.33,3.33,0,0,1,1.012.738h.052a2.523,2.523,0,0,1,1-.768,3.064,3.064,0,0,1,1.2-.244,2.87,2.87,0,0,1,1.416.36V-8.909H24.345v-1.283h13.5v1.283H36.014V2.822H34.581V-4.955a1.732,1.732,0,0,0-.646-.568,1.759,1.759,0,0,0-.812-.2,1.962,1.962,0,0,0-.782.175,2.28,2.28,0,0,0-.742.532,1.6,1.6,0,0,1,.209.288,3.755,3.755,0,0,1,.175.34l-1.039.655ZM39.07-7.583a1.219,1.219,0,0,0-.109-.511,1.356,1.356,0,0,0-.3-.423,1.4,1.4,0,0,0-.458-.288,1.572,1.572,0,0,0-.58-.1h-.384v-1.283h.384a3.475,3.475,0,0,1,.489.039,3.2,3.2,0,0,1,.572.14,3.615,3.615,0,0,1,.586.262,2.54,2.54,0,0,1,.536.4v-.069a.936.936,0,0,1,.152-.55.465.465,0,0,1,.4-.218h1.981V-8.91h-.358a1.572,1.572,0,0,0-.58.1,1.5,1.5,0,0,0-.467.288,1.35,1.35,0,0,0-.315.423,1.18,1.18,0,0,0-.113.511V2.822H39.07Z" transform="translate(0.239 10.193)" fill="#22ccc1" stroke="#22ccc1" stroke-width="0.4"/>
    </g>
    <g id="Group_35630" data-name="Group 35630" transform="translate(9.789 6.282)">
      <path id="Path_20751" data-name="Path 20751" d="M-568.183,22.909a9.909,9.909,0,0,1-9.9,9.909,9.909,9.909,0,0,1-7.021-2.906,9.909,9.909,0,0,1-2.9-7.025A9.908,9.908,0,0,1-578.125,13a9.909,9.909,0,0,1,7.028,2.89A9.908,9.908,0,0,1-568.183,22.909ZM-581.313,25h6.448a11.452,11.452,0,0,0-.008-4.184h-6.445A11.493,11.493,0,0,0-581.308,25Zm3.23-10.287a11.393,11.393,0,0,0-2.854,4.624h5.691a11.519,11.519,0,0,0-2.833-4.624Zm-.037,16.36a10.305,10.305,0,0,0,2.832-4.593h-5.655a11.491,11.491,0,0,0,2.828,4.593Zm8.249-10.26h-3.457v4.2h3.456a8.285,8.285,0,0,0,.006-4.192Zm-12.986,0h-3.459a8.19,8.19,0,0,0,0,4.191h3.454Zm.423-1.468A13.269,13.269,0,0,1-580,14.7c-2.027.121-5.073,2.6-5.741,4.643Zm12.014.01c-.849-2.2-3.937-4.686-5.746-4.624a13.182,13.182,0,0,1,2.422,4.624Zm-15.323,7.118c.66,2.037,3.715,4.522,5.743,4.643a13.334,13.334,0,0,1-2.439-4.643Zm9.557,4.65a8.183,8.183,0,0,0,5.744-4.674c-1.035,0-2.061,0-3.083.009a.366.366,0,0,0-.274.2,13.392,13.392,0,0,1-2.381,4.468Z" transform="translate(588 -13)" fill="#22ccc1"/>
    </g>
  </g>
</svg>
