<svg id="Group_52002" data-name="Group 52002" xmlns="http://www.w3.org/2000/svg" width="31.349" height="31.349" viewBox="0 0 31.349 31.349">
  <rect id="Rectangle_12830" data-name="Rectangle 12830" width="31.349" height="31.349" rx="8" transform="translate(0)" fill="#ffefef"/>
  <g id="Group_52000" data-name="Group 52000" transform="translate(6.532 6.955)">
    <g id="Group_51989" data-name="Group 51989">
      <path id="Path_42616" data-name="Path 42616" d="M1787.138,4542.878v1.93h-7.709v13.515h7.708v1.936c-.035,0-.068.005-.1.005q-3.788,0-7.577,0a1.929,1.929,0,0,1-1.948-1.641,1.986,1.986,0,0,1-.025-.335q0-6.71,0-13.423a1.928,1.928,0,0,1,1.525-1.941,2,2,0,0,1,.444-.048q3.789,0,7.578,0C1787.064,4542.874,1787.1,4542.877,1787.138,4542.878Z" transform="translate(-1777.484 -4542.874)" fill="#e42323"/>
      <path id="Path_42617" data-name="Path 42617" d="M1804.766,4575.9v-1.935h7.719V4570.1l5.8,4.833-5.795,4.83V4575.9Z" transform="translate(-1800.895 -4566.234)" fill="#e42323"/>
    </g>
  </g>
</svg>
