<svg xmlns="http://www.w3.org/2000/svg" width="22.751" height="20.009" viewBox="0 0 22.751 20.009">
  <g id="Medical_management" data-name="Medical management" style="isolation: isolate">
    <path id="Path_38594" data-name="Path 38594" d="M193.936,726.055a6.758,6.758,0,0,1,.143,2.095c-.055,1.076-.027,2.14-.027,3.21a41.469,41.469,0,0,1-.008,5.644,3.259,3.259,0,0,1-.842,1.846c-.939.95-2.571.693-3.786.694l-5.14,0h-6.962c-1.734,0-4.382.535-5.385-1.3a5.69,5.69,0,0,1-.393-2.893c0-1.048-.049-2.105-.046-3.158,0-1.376,0-2.73-.067-4.1a5.149,5.149,0,0,1,.459-2.74c1.02-1.856,3.783-1.356,5.546-1.315.359.008.511-.059.48-.455-.038-.479-.017-.964-.008-1.446a2.553,2.553,0,0,1,2.473-2.508c1.568-.028,3.138-.025,4.707,0a2.528,2.528,0,0,1,2.476,2.336,9.454,9.454,0,0,1,.017,1.544c-.042.47.139.546.558.532.917-.031,1.838.026,2.754-.018a2.8,2.8,0,0,1,2.884,1.554A3.459,3.459,0,0,1,193.936,726.055ZM182.8,726.03h-8.417c-.684,0-.868.18-.868.845,0,2.612,0,7.221,0,9.832,0,.658.191.845.873.845q8.392,0,16.784,0c.7,0,.872-.186.872-.9,0-2.579,0-7.154,0-9.733,0-.708-.178-.889-.877-.889Zm-.07-2.008c.7.01,1.4.027,2.1.044a1.436,1.436,0,0,0,.629-.04c.182-.112.118-1.31.132-1.751a.319.319,0,0,0,0-.05.619.619,0,0,0-.655-.615q-2.177-.01-4.353,0a.611.611,0,0,0-.675.685c0,.449.017.9-.006,1.345-.016.3.062.4.382.393C181.095,724.011,181.912,724.011,182.729,724.022Z" transform="translate(-171.409 -719.607)" fill="aqua"/>
    <path id="Path_38595" data-name="Path 38595" d="M246.221,801.591c-1.171,0-1.169,0-1.172,1.185a6.4,6.4,0,0,1-.031.889,1.309,1.309,0,0,1-1.34,1.123,1.275,1.275,0,0,1-1.322-1.135,12.844,12.844,0,0,1-.028-1.643c.009-.331-.107-.441-.435-.425-.479.024-.96.016-1.44,0a1.35,1.35,0,0,1-.331-2.658,5.8,5.8,0,0,1,1.7-.074c.373,0,.536-.08.5-.487a10.763,10.763,0,0,1,0-1.3,1.348,1.348,0,0,1,1.361-1.4A1.333,1.333,0,0,1,245.039,797c.036.591-.191,1.367.106,1.725.313.378,1.118.072,1.706.123a1.428,1.428,0,0,1,1.415,1.462,1.4,1.4,0,0,1-1.5,1.278C246.587,801.593,246.4,801.591,246.221,801.591Z" transform="translate(-232.317 -788.097)" fill="aqua"/>
  </g>
</svg>
