<svg xmlns="http://www.w3.org/2000/svg" width="30.92" height="22.751" viewBox="0 0 30.92 22.751">
  <g id="Office_attendance" data-name="Office attendance" style="isolation: isolate">
    <path id="Path_41404" data-name="Path 41404" d="M-4872.369,1436a14.927,14.927,0,0,1,2.2.5,24.685,24.685,0,0,1,2.236,1.167,2.062,2.062,0,0,0,.794.3c.97.036,1.943.028,2.914.011.6-.011.865.252.863.843q-.009,4.62,0,9.24c0,.839-.531.9-1.174.9q-7.948-.01-15.9,0-6.2,0-12.4,0c-1.454,0-1.454,0-1.437-1.5,0-.472,0-.943.008-1.415,0-.548.261-.8.824-.788.8.021,1.6.005,2.454.005a2.26,2.26,0,0,1,1.786-2.227c.159-.034.206-.583.353-1.052h-3.557c-.389,0-.776,0-1.165,0-.486,0-.7-.245-.7-.722q.009-4.7,0-9.406c0-.562.263-.815.8-.817,1.249,0,8.607.02,8.607.02l.071,1.149-8.229.005v8.44h4.1c0-.957-.009-1.894,0-2.83a1.743,1.743,0,0,1,1.745-1.909,1.727,1.727,0,0,1,1.8,1.852c.024.939,0,1.878,0,2.888h4.083v-8.445l-3.745,0-.642-1.149s3.4-.036,4.453-.026c1.116.01,1.191.09,1.194,1.175,0,1.441,0,2.883,0,4.407l2.854-.611c-2.151-1.639-1.779-3.887-1.655-6a4.027,4.027,0,0,1,4.266-3.784,4.05,4.05,0,0,1,3.866,4.1c.017.61.007,1.22.007,1.831A4.454,4.454,0,0,1-4872.369,1436Zm.1,9.237c0-2.118,0-4.139,0-6.16,0-.955.139-1.087,1.114-1.1.451,0,.9,0,1.351,0l-.006-.2-2.937-.637c-.441,1.163-.833,2.281-1.294,3.37a4.186,4.186,0,0,1-.717.9,4.028,4.028,0,0,1-.728-.885c-.469-1.109-.869-2.248-1.3-3.377-.7.144-1.3.241-1.885.394-1.64.428-1.35.06-1.377,1.754,0,.388,0,.776,0,1.164,0,1.272,0,1.272-1.167,1.564v3.214Zm-20.753,2.341h28.393v-1.048h-28.393Zm15.466-15.9c-.25,1.963.482,3.222,2.061,3.7a2.864,2.864,0,0,0,3.4-1.692c.617-1.436.313-2.233-1.165-3.044-.072-.04-.149-.071-.259-.123A5.04,5.04,0,0,1-4877.556,1431.685Zm6.511,8.705h6.435v-1.171h-6.435Zm.017,3.671v1.159h6.413v-1.159Zm6.42-2.364h-6.431v1.09h6.431Zm-21.927,1.376c0-1.828.021-3.571-.027-5.312-.006-.227-.374-.443-.573-.665-.2.188-.561.373-.567.566-.043,1.791-.026,3.584-.026,5.41Zm1.246-.02a1.99,1.99,0,0,1,1.949,2.167h.76v-3.186h-2.709Zm.647,2.178c.109-.624-.147-.927-.738-.933-1.164-.012-2.329-.009-3.495-.006-.592,0-.843.3-.768.94Zm8.93-8.593.947,2.505c.227-.587.379-.96.513-1.339s.242-.74.38-1.166Z" transform="translate(4894.28 -1426.216)" fill="aqua"/>
    <path id="Path_41405" data-name="Path 41405" d="M-4888.347,1404.039h-5.342v-9.762h13.126v9.762h-5.385v-3.366s-.1-1.068-.95-1.31-1.42.755-1.45,1.451S-4888.347,1404.039-4888.347,1404.039Z" transform="translate(4894.208 -1389.018)" fill="aqua"/>
  </g>
</svg>
