<svg xmlns="http://www.w3.org/2000/svg" width="22.751" height="22.751" viewBox="0 0 22.751 22.751">
  <g id="Online_recruitment" data-name="Online recruitment" style="isolation: isolate">
    <g id="Group_51294" data-name="Group 51294" transform="translate(0 0)">
      <g id="Group_51539" data-name="Group 51539" transform="translate(0 0)" style="mix-blend-mode: color-dodge;isolation: isolate">
        <g id="Group_50247" data-name="Group 50247">
          <g id="Group_50246" data-name="Group 50246">
            <g id="Group_50245" data-name="Group 50245">
              <path id="Path_38625" data-name="Path 38625" d="M172.161,248.131a.874.874,0,0,0,1.113-.54,9.477,9.477,0,0,1,.411-1,.875.875,0,0,0-1.579-.757,11.311,11.311,0,0,0-.486,1.181A.874.874,0,0,0,172.161,248.131Zm-.216,4.106a.875.875,0,0,0,.822-.925c-.012-.194-.018-.389-.018-.585,0-.166,0-.332.012-.5a.875.875,0,1,0-1.748-.089q-.015.29-.015.585c0,.231.007.461.02.688a.875.875,0,0,0,.873.824Zm2.584-7.585a.873.873,0,0,0,.652-.29,9.722,9.722,0,0,1,.765-.762.875.875,0,1,0-1.164-1.307,11.429,11.429,0,0,0-.9.9.875.875,0,0,0,.65,1.46Zm.684,12.534a.875.875,0,0,0-1.307,1.163,11.411,11.411,0,0,0,.9.9.875.875,0,0,0,1.17-1.3A9.82,9.82,0,0,1,175.213,257.185Zm2.6-14.989a.87.87,0,0,0,.377-.086,9.661,9.661,0,0,1,1-.411.875.875,0,1,0-.573-1.653,11.415,11.415,0,0,0-1.18.485.875.875,0,0,0,.379,1.665Zm1.393,17.678a9.468,9.468,0,0,1-.995-.417.875.875,0,1,0-.767,1.573,11.093,11.093,0,0,0,1.178.493.865.865,0,0,0,.292.05.875.875,0,0,0,.292-1.7Zm-5.487-4.929a9.726,9.726,0,0,1-.414-.995.875.875,0,1,0-1.651.581,11.282,11.282,0,0,0,.491,1.177.875.875,0,0,0,.788.493.865.865,0,0,0,.381-.088A.875.875,0,0,0,173.715,254.945Z" transform="translate(-171 -239.416)" fill="aqua"/>
              <path id="Path_38626" data-name="Path 38626" d="M189.875,239H189v22.751h.875a11.375,11.375,0,1,0,0-22.751Zm8.554,6.936h-2.89a13.264,13.264,0,0,0-1.716-4.333A9.652,9.652,0,0,1,198.429,245.936Zm-7.679-4.965c1.217.59,2.37,2.371,3,4.965h-3Zm0,6.715h3.326a19.744,19.744,0,0,1,0,5.25H190.75Zm0,12.08v-5.08h3C193.113,257.312,191.954,259.149,190.75,259.766Zm3.059-.622a13.534,13.534,0,0,0,1.741-4.457h2.913A9.709,9.709,0,0,1,193.809,259.143Zm2.03-6.208a21.785,21.785,0,0,0,.162-2.625,21.166,21.166,0,0,0-.166-2.625h3.294a9.469,9.469,0,0,1,.372,2.625,9.723,9.723,0,0,1-.363,2.625Z" transform="translate(-178.5 -239)" fill="aqua"/>
            </g>
          </g>
        </g>
      </g>
    </g>
  </g>
</svg>
