<svg id="Group_51999" data-name="Group 51999" xmlns="http://www.w3.org/2000/svg" width="31.349" height="31.349" viewBox="0 0 31.349 31.349">
  <rect id="Rectangle_12829" data-name="Rectangle 12829" width="31.349" height="31.349" rx="8" transform="translate(0)" fill="#eff2ff"/>
  <g id="Group_51998" data-name="Group 51998" transform="translate(6.601 5.237)">
    <path id="Path_42620" data-name="Path 42620" d="M1319.117,3860.835a1.9,1.9,0,0,0,1.282,1.509,6,6,0,0,0,4.9.021,2.163,2.163,0,0,0,.276-.144,1.839,1.839,0,0,0,1.036-1.391c.245.04.484.068.719.118a6.15,6.15,0,0,1,4.839,6.478,4.09,4.09,0,0,1-.154.813,2.263,2.263,0,0,1-1.321,1.49,5.536,5.536,0,0,1-2.076.415c-.91.033-1.822.037-2.734.039q-3.834.007-7.668,0a11.155,11.155,0,0,1-2.409-.207,4.533,4.533,0,0,1-.613-.181,2.411,2.411,0,0,1-1.609-2.091,6.151,6.151,0,0,1,5.043-6.8C1318.792,3860.878,1318.951,3860.858,1319.117,3860.835Z" transform="translate(-1313.538 -3849.409)" fill="#606fd1"/>
    <path id="Path_42621" data-name="Path 42621" d="M1444.949,3536.363a8.748,8.748,0,0,1-1.287,3.992,6.807,6.807,0,0,1-1.822,2.1,3.458,3.458,0,0,1-1.808.72,3.235,3.235,0,0,1-2.084-.613,5.786,5.786,0,0,1-1.429-1.4,9.25,9.25,0,0,1-1.806-4.525,5.137,5.137,0,1,1,10.237-.283Zm-8.2-2.58c-.106.115-.2.2-.276.3a4.941,4.941,0,0,0-1.046,2.379,1.833,1.833,0,0,0-.012.581,8.136,8.136,0,0,0,1.169,3.048,5.433,5.433,0,0,0,1.823,1.883,2.6,2.6,0,0,0,2.82,0,4.613,4.613,0,0,0,.883-.689,7.947,7.947,0,0,0,2.043-3.826,2.571,2.571,0,0,0-.152-1.674,1.117,1.117,0,0,0-1.321-.691,13.608,13.608,0,0,1-2.548.209,6.205,6.205,0,0,1-2.075-.321A2.02,2.02,0,0,1,1436.745,3533.783Z" transform="translate(-1430.487 -3530.956)" fill="#606fd1"/>
  </g>
</svg>
