<svg id="Sangsad_Logo" data-name="Sangsad Logo" xmlns="http://www.w3.org/2000/svg" width="83.188" height="83.171" viewBox="0 0 83.188 83.171">
  <path id="Path_26985" data-name="Path 26985" d="M766.875,281.223a2.807,2.807,0,0,0-.974-.117,41.712,41.712,0,0,1-36.794-29.823,39.787,39.787,0,0,1-1.508-15.207,41.036,41.036,0,0,1,14.706-28.261,40.435,40.435,0,0,1,15.4-8.192,40.952,40.952,0,0,1,9.061-1.508c.085,0,.188.037.252-.063H771.1c.048.1.141.06.214.064a40.522,40.522,0,0,1,10.513,1.956,41.736,41.736,0,0,1,28.664,36.439,4.015,4.015,0,0,0,.115,1.117v4.159c-.095.049-.062.14-.066.215a39.942,39.942,0,0,1-1.115,7.486,41.72,41.72,0,0,1-37.316,31.622,3.054,3.054,0,0,0-1.009.114Zm41.731-41.58a39.581,39.581,0,1,0-39.629,39.575A39.567,39.567,0,0,0,808.606,239.643Z" transform="translate(-727.421 -198.052)" fill="#eb1e25"/>
  <path id="Path_26986" data-name="Path 26986" d="M817.9,248.852a39.581,39.581,0,1,1-39.48-39.586A39.561,39.561,0,0,1,817.9,248.852Zm-59.759-27.513a1.921,1.921,0,0,0-1.65.483,43.672,43.672,0,0,0-4.4,4.267,33.139,33.139,0,0,0-2.13,2.691,1.882,1.882,0,0,0,1.493-.74,27.127,27.127,0,0,1,3.749-4.118c.074-.068.143-.253.3-.093.114.116.242.228.115.413a.832.832,0,0,0-.058.125,29.221,29.221,0,0,0-1.953,5.57c-.056.228-.076.357.232.282a4.063,4.063,0,0,1,.652-.084,1.484,1.484,0,0,0,.9-.356,4.5,4.5,0,0,1,5.122-.73,1.123,1.123,0,0,0,.931.08l-.184-.217q-2.43-2.823-4.865-5.642c-.161-.185-.2-.29.034-.441a6.853,6.853,0,0,0,.62-.5,1.516,1.516,0,0,1,2.1.287q1.684,2.308,3.369,4.616c.072.1.12.237.274.239.295,0,.589,0,.891,0-.006-.155-.109-.24-.178-.34-1.385-2.017-2.765-4.038-4.166-6.044-.194-.278-.135-.387.12-.54.44-.264.861-.561,1.311-.857-.739-.266-.991-.281-1.5.121a.784.784,0,0,1-1.161-.007,1.1,1.1,0,0,0-1.156-.234l1.231,1.726A.338.338,0,0,0,758.139,221.338ZM754.023,265.1c-.177-.052-.351-.119-.531-.155a1.089,1.089,0,0,0-1.416,1.182,2.224,2.224,0,0,0,.216.936,4.275,4.275,0,0,0,1.415,1.538c.094.071.253.1.2.279a.392.392,0,0,1-.341.3.983.983,0,0,1-.711-.213,3.754,3.754,0,0,1-1.331-1.775,2.893,2.893,0,0,1,.908-3.37c.091-.071.2-.122.284-.2.2-.174.021-.366,0-.54-.019-.142-.151-.045-.22-.007a3.37,3.37,0,0,0-1.843,2.337,4.447,4.447,0,0,0,1.978,4.315,2.045,2.045,0,0,0,.544.215,1.092,1.092,0,0,0,1.354-.663,2.039,2.039,0,0,0-.057-1.258c-.065-.227-.316-.2-.481-.29a3.071,3.071,0,0,1-1.244-1.07.547.547,0,0,1-.071-.588c.13-.219.352-.2.558-.175a4.733,4.733,0,0,1,1.382.427.19.19,0,0,1,.123.243,3.347,3.347,0,0,0,.534,2.341,5.169,5.169,0,0,0,.7.927,3.25,3.25,0,0,0-1.143.312,3.474,3.474,0,0,0-1.251,1.856c-.148.374.032.615.232.9.871-1.975,1.346-2.236,3.353-1.843-.032-.338-.088-.668-.088-1a.759.759,0,0,0-.389-.665,3.854,3.854,0,0,1-1.4-1.806.969.969,0,0,1,.01-.918c.042.044.083.082.118.126a31.322,31.322,0,0,0,3.024,3.285,1.1,1.1,0,0,1,.072,1.433q-1.159,1.334-2.318,2.667c-.077.089-.207.159-.127.321.122.245.23.5.359.776.1-.116.183-.2.255-.283.961-1.153,1.928-2.3,2.875-3.466.181-.222.281-.233.5-.053a28.437,28.437,0,0,0,8.884,4.91c.229.077.245.159.175.367-.44,1.311-.866,2.627-1.295,3.941-.044.135-.126.259.021.407a8.272,8.272,0,0,1,.529.638.723.723,0,0,0,.228-.432c.437-1.433.872-2.867,1.295-4.3.063-.215.136-.273.359-.2a9.446,9.446,0,0,0,.969.255c.222.051.417.1.46.381.024.155.183.2.31.249.236.091.48.162.717.252a5.08,5.08,0,0,1,1.535.84c-.863.336-1.731.5-2.614.789.4.307.566.79,1.094.911a7.14,7.14,0,0,1,4.025,2.2,1.179,1.179,0,0,0,.616.377c.045-1.6.1-3.169.123-4.738,0-.347.109-.435.434-.4a7.365,7.365,0,0,0,.835.006c-.26-.165-.388-.483-.72-.481a25.611,25.611,0,0,1-3.143-.208,32.113,32.113,0,0,1-4.607-.933.3.3,0,0,1-.251-.24,3.079,3.079,0,0,0-.718-1.287,10.446,10.446,0,0,0-4.072-2.849,2.215,2.215,0,0,0-1.154-.163.671.671,0,0,0-.482,1.138,2.663,2.663,0,0,0,.713.6c.553.358,1.159.619,1.728.948.151.087.329.152.4.345-.036.015-.061.035-.076.029a3,3,0,0,1-.289-.112,30.519,30.519,0,0,1-5.683-3.551c-.276-.214-.355-.389-.219-.711a.668.668,0,0,0-.058-.777l-.891,1.012a1.56,1.56,0,0,0-.361-.87,29.216,29.216,0,0,1-5.964-7.8c-.045-.083-.056-.2-.172-.238a1.186,1.186,0,0,0,.082,1.141c.415.706.854,1.4,1.275,2.1Zm25.122,5.445a17.969,17.969,0,0,0,3.1-.306,22.416,22.416,0,0,0,13.38-7.613,21.405,21.405,0,0,0,3.33-22.528,22.565,22.565,0,0,0-25.262-12.772,21.742,21.742,0,0,0-12.946,7.822,20.794,20.794,0,0,0-4.265,18.533,21.166,21.166,0,0,0,9.275,13.132,22.065,22.065,0,0,0,11.746,3.732A6.792,6.792,0,0,0,779.145,270.548Zm6.756-54.829c-.1.047-.134.066-.173.083a4.251,4.251,0,0,0-2.76,4.626,3.778,3.778,0,0,0,2.228,3.438,1.793,1.793,0,0,0,1.276.175,1.049,1.049,0,0,0,.854-.765,1.256,1.256,0,0,0-2.349-.706c-.093.145-.156.036-.215,0a1.966,1.966,0,0,1-.758-.878,3.178,3.178,0,0,1,.579-3.45,5.041,5.041,0,0,1,5.424-1.326c.209.081.257.151.171.37-.4,1.019-.754,2.057-1.18,3.065a1.192,1.192,0,0,0,.137,1.438,1.727,1.727,0,0,1,.271.442c.1.211.22.238.436.149a14.541,14.541,0,0,1,2.391-.8,5.5,5.5,0,0,1,1.519-.168,4.889,4.889,0,0,0-1.6,2.5,19.33,19.33,0,0,0-.5,2.542.931.931,0,0,0,.319.891c.143-.51.272-.988.412-1.462a7.455,7.455,0,0,1,1.412-2.712,3.789,3.789,0,0,1,2.372-1.3c-.391-.528-.76-1.014-1.115-1.51a.678.678,0,0,0-.555-.282,9.76,9.76,0,0,0-3.781.52c-.248.078-.492.17-.76.263a.534.534,0,0,1,.007-.131c.428-1.045.863-2.088,1.284-3.136.083-.208.19-.141.32-.08.711.33,1.432.64,2.132.992a32.709,32.709,0,0,1,5.1,3.188,1.8,1.8,0,0,1,.755,1.751c-.024.191-.078.241-.282.183a3.553,3.553,0,0,0-1.813-.082c-.945.224-1.158.942-.513,1.67a2.238,2.238,0,0,0,1.932.633c.166-.007.237,0,.217.21a1.95,1.95,0,0,0,.612,1.593,1.016,1.016,0,0,0,1.041.317.911.911,0,0,0,.6-.821,3.985,3.985,0,0,0-.195-1.874c-.027-.095-.155-.233.09-.274a1.313,1.313,0,0,1,1.473.827,2.382,2.382,0,0,1,.184.735,2.469,2.469,0,0,1-.834,2.286c-1.092.832-2.115,1.754-3.166,2.64-.084.071-.2.119-.2.262,0,.325,0,.65,0,1,.093-.069.176-.128.256-.191q2.89-2.294,5.775-4.593c.206-.165.318-.176.476.053.27.392.572.761.893,1.183.065-.58.217-1.073-.224-1.531-.4-.412-.354-.54.039-.976a.877.877,0,0,0,.1-1.18l-2.4,2.008a3,3,0,0,1,.019-.36,3.836,3.836,0,0,0-.251-2.1,1.855,1.855,0,0,0-1.34-1.235,5.23,5.23,0,0,0-1.438-.169c-.262.009-.353-.021-.32-.326a2.266,2.266,0,0,0-.971-2.166c-.777-.579-1.563-1.147-2.385-1.664a34.2,34.2,0,0,0-7.865-3.7,32.96,32.96,0,0,0-7.506-1.539c-.277-.021-.433-.11-.49-.4a2.322,2.322,0,0,0-.329-.832c-.116-.178-.267-.383-.477-.33-.148.038-.061.285-.072.437-.042.544-.069,1.089-.108,1.736a1.989,1.989,0,0,0-1.935-.79c-.761.044-1.523.064-2.283.113a33.83,33.83,0,0,0-9.479,2c-.068.025-.164.016-.176.134.244.1.493.193.733.3a.491.491,0,0,0,.4,0,33.358,33.358,0,0,1,5.8-1.431,28.279,28.279,0,0,1,3.2-.324c.1,0,.248-.065.256.129a13.312,13.312,0,0,1,.05,1.648,3.819,3.819,0,0,0-.918-.621,1.393,1.393,0,0,0-2.084.877c-.2-.09-.4-.187-.6-.268a3.681,3.681,0,0,0-3.956.721,1.894,1.894,0,0,0-.622,1.686A2.292,2.292,0,0,0,770.2,221a2.776,2.776,0,0,0,2.788-.549.851.851,0,0,0,.249-.92.907.907,0,0,0-.75-.637,1.318,1.318,0,0,0-1.7,1.159c-.035.185-.155.141-.259.132a1.084,1.084,0,0,1-.984-.6,1.121,1.121,0,0,1,.186-1.2,2.637,2.637,0,0,1,1.66-.915,2.406,2.406,0,0,1,2.494.82,1.437,1.437,0,0,0,.886.537,4.144,4.144,0,0,0-.088-.748.916.916,0,0,1,.519-1,1.247,1.247,0,0,1,1.541,1.021q.1,1.973.195,3.945c.005.1-.026.214.075.288a5.98,5.98,0,0,0,.818.588c0-.207,0-.378,0-.55q-.067-3.326-.135-6.652c-.017-.886-.013-.886.877-.865a1.518,1.518,0,0,1,1.432,1.534q-.148,2.855-.3,5.709c-.006.12-.06.256.059.358l.738.634c.039-.474.073-.884.107-1.295.18-2.186.362-4.372.535-6.559.016-.2.061-.263.284-.246.865.064,1.719.2,2.575.327A17.353,17.353,0,0,1,785.9,215.719ZM755.2,239.438c-.126-.079-.191-.122-.259-.161q-1.393-.805-2.788-1.607a.446.446,0,0,1-.267-.4c-.073-1.07-.166-2.138-.255-3.207-.007-.087.037-.209-.066-.249s-.159.071-.224.13c-.79.71-1.581,1.419-2.364,2.136a.446.446,0,0,1-.465.128c-.49-.131-.984-.244-1.477-.362q-.952-.228-1.907-.453a.531.531,0,0,0,.092.359,18.951,18.951,0,0,0,.942,2.077,1.612,1.612,0,0,1-.145,2.02c-.52.7-.925,1.479-1.411,2.274,1.081-.114,2.1-.2,3.115-.339a.978.978,0,0,1,1.118.432,4.958,4.958,0,0,0,.486.585q.75.877,1.5,1.75a.308.308,0,0,0,.119-.24c.214-1,.442-2,.634-3.01a.687.687,0,0,1,.489-.578C753.094,240.323,754.11,239.888,755.2,239.438Zm48.372,12.249-.03.145c.707.881,1.412,1.765,2.125,2.642a.534.534,0,0,1,.111.563c-.324,1.022-.624,2.051-.932,3.077-.021.07-.088.144.015.228,1.059-.4,2.129-.8,3.19-1.211a.489.489,0,0,1,.531.067c.856.608,1.723,1.2,2.588,1.8.081.055.148.151.3.121-.051-1.035-.078-2.073-.165-3.105a1,1,0,0,1,.5-1.02c.847-.595,1.654-1.246,2.5-1.895-.1-.041-.165-.072-.229-.089-1.034-.282-2.066-.567-3.1-.839a.554.554,0,0,1-.444-.406c-.321-.974-.671-1.939-1.013-2.906-.036-.1-.037-.227-.182-.3-.495.753-1.043,1.474-1.463,2.262a1.509,1.509,0,0,1-1.647.889C805.339,251.634,804.451,251.687,803.567,251.687Zm-58.1,7.464a.446.446,0,0,0,.107-.023,22.046,22.046,0,0,0,1.98-1.392,1.774,1.774,0,0,1,2.229-.282,21.457,21.457,0,0,0,2.319.894.6.6,0,0,0-.047-.339c-.292-.971-.571-1.946-.883-2.91a.619.619,0,0,1,.135-.679c.45-.526.875-1.072,1.308-1.612.269-.335.535-.673.8-1.01l-.043-.117c-1.049,0-2.1-.021-3.147.01a.908.908,0,0,1-.906-.511c-.552-.9-1.154-1.775-1.758-2.694-.065.171-.117.3-.163.427-.337.956-.679,1.911-1,2.871a.5.5,0,0,1-.388.379c-.625.157-1.247.329-1.869.5-.492.134-.982.273-1.523.424.97.738,1.885,1.439,2.806,2.131a.46.46,0,0,1,.209.458C745.564,256.825,745.523,257.978,745.47,259.151Zm66.792-17.039a.565.565,0,0,0-.14-.339c-.432-.71-.824-1.45-1.318-2.114a1.359,1.359,0,0,1-.1-1.648c.44-.829.779-1.711,1.16-2.568a.243.243,0,0,0-.226,0c-1.053.253-2.108.5-3.16.762a.475.475,0,0,1-.5-.117c-.41-.389-.838-.76-1.259-1.138-.443-.4-.888-.793-1.376-1.229-.094,1.169-.2,2.272-.26,3.377a.689.689,0,0,1-.4.645c-.9.5-1.781,1.022-2.669,1.538-.072.042-.184.053-.181.193,1.04.429,2.082.864,3.13,1.286a.527.527,0,0,1,.375.432c.108.589.239,1.174.364,1.76.115.54.235,1.079.364,1.669.791-.926,1.531-1.8,2.276-2.662.092-.106.157-.242.358-.216.675.085,1.353.147,2.03.216C811.235,242.01,811.746,242.06,812.262,242.112Zm-18.634,30.922a9,9,0,0,1,.933.039c.556.188.9-.159,1.3-.338.388-.171.749-.406,1.146-.566a.809.809,0,0,1,.76.078.376.376,0,0,1,.185.492,8.756,8.756,0,0,1-.589,1.51.516.516,0,0,1-.615.327c-.361-.092-.536.138-.763.331a1.748,1.748,0,0,0,2.595-.687,10.63,10.63,0,0,0,.589-1.7,5.3,5.3,0,0,1,.34-.941,1.152,1.152,0,0,1,1.831-.3c.372.363.744.726,1.119,1.086.07.067.125.177.257.132l.883-.3c-.137-.124-.223-.2-.307-.278-1.117-1.037-2.23-2.078-3.354-3.107-.177-.162-.2-.256-.025-.434a11.815,11.815,0,0,0,.787-.922c.149-.192.254-.237.459-.051.376.34.784.646,1.178.966.794.645.791.639,1.716.184a.4.4,0,0,0,.259-.421q0-1.108.031-2.217a1.95,1.95,0,0,1,.1-.779,2.441,2.441,0,0,0,1.2.953,5.055,5.055,0,0,0,2.086.2.846.846,0,0,0,.7-.478c-2.24-.062-3-.6-3.611-2.575a8.555,8.555,0,0,1-.8.717,1.232,1.232,0,0,0-.534.988c-.025.31-.065.62-.086.931-.047.7-.086,1.394-.133,2.156-.576-.443-1.1-.857-1.632-1.248-.206-.15-.183-.251-.041-.434a30.768,30.768,0,0,0,2.671-4.241c.02-.038.057-.077.009-.121-.632.189-.63.19-.92.716a28.7,28.7,0,0,1-7.551,8.791C795.125,272.025,794.409,272.505,793.629,273.034ZM781.5,277.317a6.783,6.783,0,0,1,.774.465,1.126,1.126,0,0,0,.882.239c.588.016,1.177,0,1.766.013a.718.718,0,0,1,.613.44c.141.251-.049.384-.173.54a5.819,5.819,0,0,1-1.036.964.621.621,0,0,1-.872.012c-.229-.194-.436,0-.649.025-.1.013-.043.1-.007.164a1.9,1.9,0,0,0,2.378.522,9.209,9.209,0,0,0,1.18-1.118c.326-.327.635-.674.983-.976a1.156,1.156,0,0,1,1.774.476q.276.764.549,1.529c.038.107.053.232.2.245l.87.08c-.031-.1-.044-.138-.06-.18-.571-1.484-1.138-2.969-1.72-4.449-.091-.231-.08-.342.174-.422.3-.094.583-.228.874-.344-.328-.108-.589-.321-.947-.174A29.216,29.216,0,0,1,781.5,277.317Zm-20.7-4.956a.419.419,0,0,0-.056.092,5.4,5.4,0,0,0,3.765,6.959,2.8,2.8,0,0,0,1.438.063,1.606,1.606,0,0,0,1.39-1.27,1.677,1.677,0,0,0-.3-1.348,5.06,5.06,0,0,0-2.3-1.822,1.985,1.985,0,0,0-1.048-.164c-.7.112-.906.587-.5,1.169a2.092,2.092,0,0,0,1.423.837c.576.106.816-.061.926-.65a2.094,2.094,0,0,1,1.034,1.074.8.8,0,0,1-.457,1.137,2.177,2.177,0,0,1-1.491.1,4.676,4.676,0,0,1-3.519-5.3A.875.875,0,0,0,760.8,272.361Zm1.077-52.745a1.336,1.336,0,0,0,1.087,1.437,3.315,3.315,0,0,0,3.562-2.269,1.363,1.363,0,0,0-1.434-1.794,3.44,3.44,0,0,0-2.9,1.614A1.778,1.778,0,0,0,761.876,219.615Zm8.088,5.318c-.132-.38-.176-.67-.488-.857a12.218,12.218,0,0,0-5-1.81c-.617-.067-.616-.071-.649.532a2.1,2.1,0,0,1-.037.379c-.064.267.05.312.288.288a9.007,9.007,0,0,1,2.916.281A11.2,11.2,0,0,1,769.964,224.933Zm21.75,51.573a2.768,2.768,0,0,0,2.407-1.684.863.863,0,0,0-.871-1.238,3,3,0,0,0-2.414,1.652A.857.857,0,0,0,791.714,276.506Zm5.678,1.3c-.133-.216-.192-.4-.463-.417-1.418-.086-2.834-.2-4.256-.19-.657,0-.644.008-.847.62-.093.281,0,.3.24.274.574-.057,1.151-.087,1.725-.14C794.976,277.846,796.168,277.905,797.392,277.809Zm-23.977,5.011a1.067,1.067,0,0,0,.534-.11.4.4,0,0,0,.094-.718,1.716,1.716,0,0,0-1.533-.233c-.346.162-.4.45-.112.7A1.538,1.538,0,0,0,773.415,282.82Z" transform="translate(-736.712 -207.261)" fill="#fdf000"/>
  <path id="Path_26987" data-name="Path 26987" d="M856.107,351.3a22.065,22.065,0,0,1-11.745-3.732,21.167,21.167,0,0,1-9.275-13.132,20.8,20.8,0,0,1,4.265-18.533,21.741,21.741,0,0,1,12.946-7.822,22.564,22.564,0,0,1,25.262,12.772,21.4,21.4,0,0,1-3.329,22.528A22.416,22.416,0,0,1,860.85,351a17.967,17.967,0,0,1-3.1.306q0-1.87.01-3.741c.15.06.3.124.449.18a8.12,8.12,0,0,0,5.684.22,7.721,7.721,0,0,0,3.077-2.057c-1.074-.169-2.094-.343-3.119-.483-.251-.034-.287-.13-.285-.348.009-1.178.005-2.355,0-3.533,0-.078.041-.174-.057-.248a15.983,15.983,0,0,1-1.572,2.291,10.58,10.58,0,0,1-4.18,3.269q-.007-2.72-.012-5.44c0-3.13,0-6.261-.006-9.391,0-.254.063-.338.321-.349a6.058,6.058,0,0,0,1.16-.184.559.559,0,0,0,.481-.54,11.083,11.083,0,0,0,.019-2.317,24.246,24.246,0,0,0-1.634-6.661,27.032,27.032,0,0,0-1.133-2.583c-.043.026-.069.032-.08.049a1.42,1.42,0,0,0-.082.152,28.086,28.086,0,0,0-2.556,8.113,12.2,12.2,0,0,0-.094,3.177.6.6,0,0,0,.492.609,5.723,5.723,0,0,0,1.091.177c.328.008.388.132.387.432q-.014,7.208-.007,14.416c0,.115-.011.23-.017.345a6.794,6.794,0,0,1-1.381-.707,13.757,13.757,0,0,1-4.155-4.476,1.153,1.153,0,0,0-.282-.391V344.9c0,.508,0,.5-.506.575-.942.138-1.882.285-2.86.434a1.193,1.193,0,0,0,.1.14,7.57,7.57,0,0,0,3.42,2.068,8.474,8.474,0,0,0,5.668-.549Zm-10.145-25.378c-.219,0-.439.008-.657,0-.247-.012-.274.111-.2.3a2.609,2.609,0,0,0,.505.779,13.2,13.2,0,0,0,4.064,3.115,7.356,7.356,0,0,0,3.239.88c.245,0,.309-.064.3-.308a7.949,7.949,0,0,1,.071-1.864.718.718,0,0,0-.408-.854A14.013,14.013,0,0,0,845.962,325.927Zm14.7,4.037a5.545,5.545,0,0,1-.005.705c-.041.3.1.336.345.331a5.582,5.582,0,0,0,1.367-.188,12.454,12.454,0,0,0,5.645-3.528,3.484,3.484,0,0,0,.714-.97c.138-.307.088-.378-.247-.388a13.432,13.432,0,0,0-4.686.746,10.914,10.914,0,0,0-3.058,1.5.375.375,0,0,0-.17.428A7.216,7.216,0,0,1,860.661,329.964Zm15.481,6.34c-.14.033-.2.043-.249.058-1.251.355-2.5.7-3.75,1.076-.265.079-.361.008-.462-.217-.265-.587-.557-1.163-.829-1.747s-.53-1.157-.817-1.787a9.994,9.994,0,0,0-.675,2.471,6.8,6.8,0,0,0,.373,3.735.44.44,0,0,0,.406.307,4.984,4.984,0,0,0,1.65-.1C873.844,339.568,875.086,338.1,876.141,336.3ZM843.79,333.76c-.057.123-.117.244-.171.368-.458,1.044-.951,2.071-1.444,3.1-.114.239-.229.284-.47.205-.5-.164-1.015-.3-1.525-.444-.794-.225-1.588-.449-2.457-.694a9.028,9.028,0,0,0,1.855,2.442,5.208,5.208,0,0,0,3.965,1.481.621.621,0,0,0,.633-.452A8.22,8.22,0,0,0,843.79,333.76ZM876.855,323c-.81,1.185-1.573,2.281-2.31,3.395a.349.349,0,0,1-.527.151c-.871-.393-1.743-.785-2.586-1.237l-1.032-.55a10.7,10.7,0,0,0,.937,2.039,7.691,7.691,0,0,0,2.961,3.024.61.61,0,0,0,.8-.09,4.892,4.892,0,0,0,1.305-1.846A9.751,9.751,0,0,0,876.855,323Zm-33.483,1.811c-.071.033-.144.061-.212.1-1.067.6-2.17,1.122-3.286,1.62-.264.118-.409.108-.583-.156-.665-1.012-1.359-2.006-2.044-3.005a.684.684,0,0,0-.259-.285,10.951,10.951,0,0,0,.085,3.576,5.362,5.362,0,0,0,1.578,2.974c.457.417.483.421,1.016.118A8.672,8.672,0,0,0,843.373,324.812Zm-7.1,5.012a6.712,6.712,0,0,0,4.109,5.64.49.49,0,0,0,.672-.168,8.086,8.086,0,0,0,1.726-4.087,7.537,7.537,0,0,0,.124-1.858c-.956.976-1.887,1.919-2.808,2.873-.163.169-.267.206-.476.047-.817-.622-1.652-1.219-2.482-1.824C836.871,330.254,836.6,330.062,836.272,329.824Zm34.663-.5a9.329,9.329,0,0,0,.129,1.85,8.118,8.118,0,0,0,1.728,4.12.509.509,0,0,0,.7.16,6.536,6.536,0,0,0,3.665-3.838,6.62,6.62,0,0,0,.4-1.772c-.137.095-.231.157-.322.223l-2.626,1.918c-.624.455-.629.459-1.176-.1C872.615,331.052,871.8,330.208,870.935,329.322Zm-3.257,8.042a11.184,11.184,0,0,0-1.685,3.152,6.5,6.5,0,0,0-.348,2.892c.042.344.16.443.5.389.523-.085,1.054-.115,1.578-.2a12.139,12.139,0,0,0,4.193-1.324,3.351,3.351,0,0,0,.952-.735c-.128,0-.205,0-.281,0-1.36.054-2.72.1-4.08.169-.207.01-.284-.042-.308-.248-.046-.4-.13-.8-.179-1.2C867.9,339.33,867.8,338.394,867.678,337.364Zm-26.719,4.172a4.748,4.748,0,0,0,1.251.886,15.478,15.478,0,0,0,5.7,1.388c.2.017.24-.078.262-.228a5.449,5.449,0,0,0,.055-1.345,9.858,9.858,0,0,0-1.957-4.733c-.024-.034-.051-.081-.126-.033a.794.794,0,0,0-.023.115c-.085,1.232-.251,2.453-.433,3.673-.069.461-.063.454-.514.436C843.8,341.638,842.42,341.59,840.959,341.535Zm12.027-14.685c.12-.005.258-.009.4-.019.5-.035.62-.148.764-.631a1.229,1.229,0,0,0-.179-1.107,5.934,5.934,0,0,0-3.24-2.282,4.173,4.173,0,0,0-1.867-.251c-.206.027-.264.094-.19.31A7.5,7.5,0,0,0,850,325.391,3.834,3.834,0,0,0,852.986,326.851Zm7.885,0a3.709,3.709,0,0,0,2.7-1.134,6.824,6.824,0,0,0,1.586-2.726c.133-.383.111-.419-.312-.444a4.733,4.733,0,0,0-1.9.335,5.679,5.679,0,0,0-3.081,2.281,1.019,1.019,0,0,0,.9,1.687Zm-16.776-5.185c-.98.138-1.948.285-2.916.423-.305.044-.445.007-.536-.317-.289-1.027-.616-2.042-.949-3.129a9.078,9.078,0,0,0-.7,2.225,5.019,5.019,0,0,0,.409,3.334.581.581,0,0,0,.727.332A6.559,6.559,0,0,0,844.095,321.662Zm25.591-.038a8.244,8.244,0,0,0,2.013,2.028,5.457,5.457,0,0,0,2.013.878.573.573,0,0,0,.73-.326,4.43,4.43,0,0,0,.432-1.234,7.441,7.441,0,0,0-.61-4.083c-.026-.065-.022-.16-.131-.165q-.428,1.393-.854,2.777c-.189.615-.188.616-.81.551-.1-.011-.206-.025-.309-.041Zm-28.006-1.775a.667.667,0,0,0,.8.724,1.635,1.635,0,0,0,.641-.249,6.3,6.3,0,0,0,2.3-2.707c.093-.2.218-.456.024-.648-.175-.174-.421-.073-.624,0a5.787,5.787,0,0,0-2.9,2.25A1.348,1.348,0,0,0,841.68,319.848Zm30.489,0a1.384,1.384,0,0,0-.265-.676,5.841,5.841,0,0,0-2.791-2.179c-.229-.087-.519-.227-.713-.006s-.04.491.068.716a6.518,6.518,0,0,0,2.134,2.543,1.862,1.862,0,0,0,.756.327A.669.669,0,0,0,872.169,319.846Zm-17.413,2.734a2.481,2.481,0,0,0-1.465-2.138c-.1-.036-.205-.112-.227.067a4.447,4.447,0,0,0,.159,2.411,1.122,1.122,0,0,0,.655.626c.412.15.579.071.744-.338A2.022,2.022,0,0,0,854.756,322.58Zm6.121-1.041a7.232,7.232,0,0,0-.065-.964c-.019-.181-.069-.212-.233-.137a2.5,2.5,0,0,0-1.047.873,1.959,1.959,0,0,0-.218,2.053.365.365,0,0,0,.437.232,1.124,1.124,0,0,0,.92-.739A3.034,3.034,0,0,0,860.878,321.538Z" transform="translate(-815.32 -288.017)" fill="#017355"/>
  <path id="Path_26988" data-name="Path 26988" d="M912.014,231.4a17.348,17.348,0,0,0-1.905-.4c-.856-.129-1.71-.263-2.575-.327-.223-.017-.267.042-.284.246-.173,2.187-.355,4.373-.535,6.559-.034.41-.068.821-.107,1.295l-.738-.634c-.119-.1-.065-.238-.059-.358q.144-2.855.3-5.709a1.518,1.518,0,0,0-1.431-1.534c-.89-.021-.894-.021-.877.865q.065,3.326.135,6.652c0,.172,0,.343,0,.55a5.992,5.992,0,0,1-.818-.588c-.1-.074-.069-.188-.074-.288q-.1-1.973-.194-3.945a1.247,1.247,0,0,0-1.541-1.021.916.916,0,0,0-.519,1,4.154,4.154,0,0,1,.089.748,1.437,1.437,0,0,1-.886-.537,2.406,2.406,0,0,0-2.494-.82,2.636,2.636,0,0,0-1.66.915,1.12,1.12,0,0,0-.186,1.2,1.084,1.084,0,0,0,.984.6c.1.01.224.053.259-.132a1.318,1.318,0,0,1,1.7-1.159.907.907,0,0,1,.75.637.851.851,0,0,1-.249.92,2.776,2.776,0,0,1-2.788.549,2.292,2.292,0,0,1-1.733-1.958,1.894,1.894,0,0,1,.622-1.686,3.681,3.681,0,0,1,3.956-.721c.2.082.4.178.6.268a1.394,1.394,0,0,1,2.084-.877,3.815,3.815,0,0,1,.918.621,13.242,13.242,0,0,0-.05-1.648c-.009-.194-.154-.133-.256-.129a28.287,28.287,0,0,0-3.2.324,33.363,33.363,0,0,0-5.8,1.431.491.491,0,0,1-.4,0c-.24-.111-.489-.2-.733-.3.012-.118.108-.109.176-.134a33.83,33.83,0,0,1,9.479-2c.76-.049,1.522-.069,2.283-.113a1.989,1.989,0,0,1,1.935.79c.039-.646.067-1.191.109-1.736.012-.152-.076-.4.072-.437.21-.054.361.152.478.33a2.33,2.33,0,0,1,.329.832c.057.293.213.382.49.4a32.966,32.966,0,0,1,7.506,1.539,34.2,34.2,0,0,1,7.865,3.7c.822.517,1.607,1.085,2.385,1.664a2.266,2.266,0,0,1,.971,2.166c-.033.3.059.335.32.326a5.226,5.226,0,0,1,1.438.169,1.855,1.855,0,0,1,1.34,1.235,3.836,3.836,0,0,1,.251,2.1,3.026,3.026,0,0,0-.019.36l2.4-2.008a.877.877,0,0,1-.1,1.18c-.393.436-.436.564-.039.976.441.458.289.951.224,1.53-.321-.422-.623-.791-.893-1.183-.158-.229-.269-.219-.475-.053q-2.88,2.306-5.775,4.593c-.08.063-.163.122-.256.191,0-.347,0-.672,0-1,0-.143.116-.191.2-.262,1.051-.886,2.074-1.808,3.166-2.64A2.469,2.469,0,0,0,929,242.24a2.377,2.377,0,0,0-.184-.735,1.313,1.313,0,0,0-1.473-.827c-.245.041-.118.18-.09.274a3.984,3.984,0,0,1,.194,1.874.911.911,0,0,1-.6.821,1.016,1.016,0,0,1-1.041-.317,1.95,1.95,0,0,1-.612-1.593c.02-.213-.052-.217-.218-.21a2.237,2.237,0,0,1-1.932-.633c-.646-.727-.432-1.445.513-1.67a3.553,3.553,0,0,1,1.813.082c.2.058.259.008.282-.183a1.8,1.8,0,0,0-.755-1.751,32.724,32.724,0,0,0-5.1-3.188c-.7-.352-1.421-.661-2.131-.992-.131-.061-.237-.128-.32.08-.421,1.048-.856,2.091-1.284,3.136a.525.525,0,0,0-.007.131c.268-.093.512-.184.76-.263a9.763,9.763,0,0,1,3.781-.52.678.678,0,0,1,.556.282c.355.5.724.982,1.115,1.51a3.789,3.789,0,0,0-2.373,1.3,7.453,7.453,0,0,0-1.412,2.712c-.141.474-.269.952-.412,1.462a.932.932,0,0,1-.319-.891,19.37,19.37,0,0,1,.5-2.542,4.891,4.891,0,0,1,1.6-2.5,5.5,5.5,0,0,0-1.519.168,14.546,14.546,0,0,0-2.391.8c-.217.089-.337.062-.437-.149a1.721,1.721,0,0,0-.271-.442,1.192,1.192,0,0,1-.137-1.438c.427-1.008.78-2.046,1.18-3.065.086-.219.038-.288-.171-.37a5.041,5.041,0,0,0-5.424,1.326,3.177,3.177,0,0,0-.58,3.45,1.965,1.965,0,0,0,.757.878c.059.036.122.144.215,0a1.256,1.256,0,0,1,2.349.705,1.049,1.049,0,0,1-.854.765,1.793,1.793,0,0,1-1.276-.175,3.779,3.779,0,0,1-2.229-3.438,4.25,4.25,0,0,1,2.76-4.626C911.88,231.464,911.918,231.445,912.014,231.4Z" transform="translate(-862.825 -222.94)" fill="#057553"/>
  <path id="Path_26989" data-name="Path 26989" d="M946.166,400.95c.006-.115.017-.23.017-.345q0-7.208.007-14.416c0-.3-.059-.425-.387-.432a5.724,5.724,0,0,1-1.091-.177.6.6,0,0,1-.492-.609,12.209,12.209,0,0,1,.094-3.178,28.086,28.086,0,0,1,2.556-8.113,1.4,1.4,0,0,1,.082-.152c.011-.016.037-.023.08-.049a27.034,27.034,0,0,1,1.133,2.583,24.246,24.246,0,0,1,1.634,6.661,11.091,11.091,0,0,1-.019,2.316.559.559,0,0,1-.481.54,6.039,6.039,0,0,1-1.16.184c-.257.011-.322.095-.321.349.009,3.13,0,6.261.006,9.391q0,2.72.012,5.44v.709q-.005,1.87-.01,3.741a6.792,6.792,0,0,1-1.646,0q-.007-1.871-.015-3.742Q946.165,401.3,946.166,400.95Z" transform="translate(-905.393 -342.106)" fill="#fefefe"/>
  <path id="Path_26990" data-name="Path 26990" d="M808.459,506.228c-.421-.7-.86-1.393-1.276-2.1a1.185,1.185,0,0,1-.082-1.141c.116.04.127.155.172.238a29.212,29.212,0,0,0,5.963,7.8,1.562,1.562,0,0,1,.361.87l.891-1.012a.668.668,0,0,1,.058.777c-.136.322-.057.5.219.711a30.508,30.508,0,0,0,5.683,3.551,3,3,0,0,0,.288.112c.016.005.04-.015.076-.029-.068-.192-.247-.257-.4-.345-.569-.329-1.175-.59-1.728-.948a2.656,2.656,0,0,1-.713-.6.671.671,0,0,1,.482-1.138,2.216,2.216,0,0,1,1.154.163,10.448,10.448,0,0,1,4.072,2.85,3.081,3.081,0,0,1,.718,1.287.3.3,0,0,0,.251.24,32.141,32.141,0,0,0,4.606.933,25.553,25.553,0,0,0,3.143.208c.332,0,.46.317.72.481a7.354,7.354,0,0,1-.835-.006c-.325-.037-.429.05-.434.4-.022,1.57-.078,3.139-.123,4.738a1.178,1.178,0,0,1-.616-.376,7.141,7.141,0,0,0-4.025-2.2c-.528-.12-.69-.6-1.094-.911.884-.292,1.751-.453,2.614-.789a5.081,5.081,0,0,0-1.535-.84c-.237-.09-.481-.161-.717-.252-.127-.049-.286-.094-.31-.249-.042-.276-.237-.33-.459-.381a9.41,9.41,0,0,1-.969-.255c-.223-.077-.3-.019-.359.2-.423,1.437-.858,2.87-1.295,4.3a.726.726,0,0,1-.228.432,8.192,8.192,0,0,0-.529-.638c-.148-.148-.066-.272-.021-.407.429-1.315.855-2.63,1.294-3.941.07-.209.055-.29-.175-.367a28.431,28.431,0,0,1-8.884-4.91c-.223-.18-.323-.169-.5.053-.947,1.164-1.914,2.313-2.875,3.466-.072.086-.15.167-.255.283-.128-.28-.237-.531-.359-.776-.08-.162.049-.232.126-.321q1.156-1.336,2.318-2.668a1.094,1.094,0,0,0-.072-1.433,31.355,31.355,0,0,1-3.024-3.285c-.035-.044-.076-.082-.118-.126a.969.969,0,0,0-.01.918,3.856,3.856,0,0,0,1.4,1.806.759.759,0,0,1,.389.665c0,.33.056.66.088,1-2.006-.393-2.482-.132-3.353,1.843-.2-.29-.379-.531-.232-.9a3.474,3.474,0,0,1,1.251-1.856,3.247,3.247,0,0,1,1.143-.312,5.157,5.157,0,0,1-.7-.927,3.346,3.346,0,0,1-.534-2.341.19.19,0,0,0-.123-.243,4.738,4.738,0,0,0-1.382-.427c-.205-.028-.428-.043-.558.175a.547.547,0,0,0,.071.588,3.069,3.069,0,0,0,1.244,1.07c.165.089.416.062.481.29a2.04,2.04,0,0,1,.057,1.258,1.092,1.092,0,0,1-1.354.663,2.05,2.05,0,0,1-.544-.215,4.446,4.446,0,0,1-1.978-4.316,3.371,3.371,0,0,1,1.843-2.337c.07-.038.2-.135.22.007.024.175.2.367,0,.54-.086.075-.193.126-.284.2a2.893,2.893,0,0,0-.908,3.37,3.754,3.754,0,0,0,1.331,1.775.983.983,0,0,0,.711.213.393.393,0,0,0,.341-.3c.057-.178-.1-.208-.2-.279a4.272,4.272,0,0,1-1.415-1.538,2.218,2.218,0,0,1-.216-.936,1.089,1.089,0,0,1,1.416-1.182c.18.036.354.1.531.155l.089.015Zm19.329,12.549a.1.1,0,0,0-.138-.008l.1.045a11.238,11.238,0,0,1,2.1,1.632l-2.121.75a9.33,9.33,0,0,1,3.13,1.76c.069-1.263.127-2.428.2-3.591.014-.219-.087-.256-.256-.263C829.8,519.062,828.8,518.9,827.788,518.777Zm-4.2-1.618a1.794,1.794,0,0,0-.487-.912,9.737,9.737,0,0,0-3.846-2.569.875.875,0,0,0-.3-.067c-.131,0-.312-.081-.376.073s.1.244.2.329a5.762,5.762,0,0,0,1.224.708,3.637,3.637,0,0,1,1.918,1.763.238.238,0,0,0,.106.125A10.889,10.889,0,0,0,823.586,517.16Zm-2.693-1.1-.025-.025a.215.215,0,0,0-.022.046c0,.005.014.015.022.022Z" transform="translate(-791.083 -448.454)" fill="#057553"/>
  <path id="Path_26991" data-name="Path 26991" d="M782.136,352.135c-1.085.45-2.1.885-3.131,1.289a.686.686,0,0,0-.489.578c-.192,1.007-.421,2.007-.634,3.01a.308.308,0,0,1-.119.24q-.748-.872-1.5-1.75a4.971,4.971,0,0,1-.486-.585.978.978,0,0,0-1.118-.432c-1.013.14-2.034.224-3.115.339.486-.795.891-1.577,1.411-2.274a1.612,1.612,0,0,0,.145-2.02,18.9,18.9,0,0,1-.942-2.077.532.532,0,0,1-.092-.36q.956.227,1.907.453c.493.118.987.231,1.477.362a.447.447,0,0,0,.465-.128c.783-.718,1.574-1.426,2.364-2.136.065-.059.127-.168.224-.13s.059.162.066.249c.089,1.069.182,2.137.255,3.207a.445.445,0,0,0,.267.4q1.4.8,2.788,1.607C781.945,352.014,782.01,352.057,782.136,352.135Z" transform="translate(-763.653 -319.958)" fill="#eb1e25"/>
  <path id="Path_26992" data-name="Path 26992" d="M1101.111,432.072c.884,0,1.772-.053,2.651.016a1.509,1.509,0,0,0,1.647-.889c.42-.789.969-1.509,1.463-2.262.145.077.146.2.182.3.342.967.692,1.932,1.013,2.906a.553.553,0,0,0,.444.406c1.036.273,2.069.557,3.1.839.065.017.126.048.229.089-.851.649-1.658,1.3-2.5,1.895a1,1,0,0,0-.5,1.02c.087,1.033.114,2.071.165,3.105-.149.029-.217-.066-.3-.121-.865-.6-1.732-1.188-2.588-1.8a.489.489,0,0,0-.531-.067c-1.062.415-2.131.811-3.19,1.211-.1-.084-.036-.158-.016-.228.308-1.027.608-2.056.932-3.077a.534.534,0,0,0-.112-.563c-.713-.877-1.417-1.761-2.125-2.642Z" transform="translate(-1034.256 -387.646)" fill="#eb1e25"/>
  <path id="Path_26993" data-name="Path 26993" d="M763.3,439.232c.053-1.174.095-2.326.165-3.477a.459.459,0,0,0-.209-.458c-.922-.692-1.837-1.393-2.806-2.131.54-.151,1.031-.29,1.523-.424.622-.17,1.244-.342,1.869-.5a.5.5,0,0,0,.387-.379c.324-.96.667-1.915,1-2.871.046-.129.1-.256.163-.427.605.92,1.206,1.792,1.759,2.694a.908.908,0,0,0,.905.511c1.048-.032,2.1-.01,3.147-.01l.043.117c-.267.337-.533.675-.8,1.01-.433.54-.859,1.087-1.308,1.612a.619.619,0,0,0-.134.679c.312.964.591,1.939.883,2.91a.6.6,0,0,1,.047.339,21.5,21.5,0,0,1-2.319-.894,1.774,1.774,0,0,0-2.228.281,22.053,22.053,0,0,1-1.98,1.392A.444.444,0,0,1,763.3,439.232Z" transform="translate(-754.546 -387.341)" fill="#eb1e25"/>
  <path id="Path_26994" data-name="Path 26994" d="M1101.961,354.4c-.516-.052-1.028-.1-1.538-.155-.677-.069-1.355-.131-2.03-.216-.2-.025-.266.11-.358.216-.745.866-1.485,1.736-2.276,2.662-.129-.59-.249-1.129-.364-1.669-.125-.586-.256-1.171-.364-1.76a.527.527,0,0,0-.375-.432c-1.048-.421-2.09-.857-3.13-1.286,0-.14.109-.151.181-.193.887-.516,1.772-1.038,2.669-1.538a.688.688,0,0,0,.4-.645c.062-1.1.167-2.207.26-3.377l1.375,1.229c.421.377.849.749,1.259,1.138a.475.475,0,0,0,.5.117c1.052-.26,2.106-.509,3.159-.762a.243.243,0,0,1,.226,0c-.381.856-.72,1.739-1.161,2.568a1.359,1.359,0,0,0,.1,1.648c.495.664.886,1.4,1.318,2.114A.566.566,0,0,1,1101.961,354.4Z" transform="translate(-1026.411 -319.544)" fill="#eb1e25"/>
  <path id="Path_26995" data-name="Path 26995" d="M809.734,268.26l-1.231-1.726a1.1,1.1,0,0,1,1.156.234.785.785,0,0,0,1.161.007c.509-.4.76-.387,1.5-.121-.449.3-.87.592-1.311.857-.255.154-.314.262-.12.54,1.4,2.006,2.781,4.027,4.165,6.044.068.1.172.185.178.34-.3,0-.6,0-.891,0-.154,0-.2-.141-.274-.239q-1.686-2.307-3.369-4.616a1.517,1.517,0,0,0-2.1-.287,6.821,6.821,0,0,1-.62.5c-.235.15-.195.256-.034.441q2.44,2.814,4.865,5.642l.184.217a1.122,1.122,0,0,1-.931-.08,4.5,4.5,0,0,0-5.122.73,1.486,1.486,0,0,1-.9.356,4.063,4.063,0,0,0-.652.084c-.307.076-.287-.053-.231-.282a29.213,29.213,0,0,1,1.953-5.57.854.854,0,0,1,.058-.125c.127-.185,0-.3-.115-.413-.157-.159-.226.026-.3.093A27.123,27.123,0,0,0,803,275a1.882,1.882,0,0,1-1.493.74,33.229,33.229,0,0,1,2.13-2.691,43.693,43.693,0,0,1,4.4-4.267,1.92,1.92,0,0,1,1.649-.482l.064.03Zm-1.687,3.621a26.381,26.381,0,0,0-1.426,3.711,5.962,5.962,0,0,1,4.167-.69Z" transform="translate(-788.26 -254.225)" fill="#057553"/>
  <path id="Path_26996" data-name="Path 26996" d="M1045.676,515.1c.78-.529,1.5-1.009,2.176-1.541a28.7,28.7,0,0,0,7.551-8.791c.29-.526.288-.527.92-.716.047.044.011.083-.009.121a30.762,30.762,0,0,1-2.671,4.241c-.142.183-.164.283.041.434.537.391,1.056.805,1.632,1.248.046-.762.085-1.46.133-2.156.021-.311.061-.62.086-.931a1.23,1.23,0,0,1,.534-.988,8.584,8.584,0,0,0,.8-.717c.612,1.974,1.372,2.513,3.611,2.575a.846.846,0,0,1-.7.478,5.056,5.056,0,0,1-2.085-.2,2.44,2.44,0,0,1-1.2-.953,1.951,1.951,0,0,0-.1.779q-.032,1.108-.031,2.217a.4.4,0,0,1-.259.421c-.925.454-.921.461-1.716-.184-.394-.32-.8-.625-1.178-.966-.2-.185-.31-.14-.459.051a11.759,11.759,0,0,1-.787.922c-.171.178-.152.272.025.434,1.125,1.029,2.238,2.07,3.355,3.107.084.078.17.155.307.278l-.883.3c-.132.045-.187-.064-.257-.132-.375-.36-.746-.723-1.118-1.086a1.153,1.153,0,0,0-1.832.3,5.308,5.308,0,0,0-.34.941,10.647,10.647,0,0,1-.589,1.7,1.748,1.748,0,0,1-2.595.687c.227-.193.4-.423.764-.331a.516.516,0,0,0,.615-.327,8.782,8.782,0,0,0,.589-1.51.376.376,0,0,0-.185-.492.81.81,0,0,0-.76-.077c-.4.16-.758.394-1.146.566-.4.179-.748.526-1.3.338A8.968,8.968,0,0,0,1045.676,515.1Zm6.785-2.569c-.36-.371-.708-.705-1.025-1.067-.184-.209-.286-.162-.454.016a24.248,24.248,0,0,1-2.388,2.15c-.071.058-.183.088-.19.228.178-.042.343-.092.512-.117a1.631,1.631,0,0,1,1.083.039c.2.11.268.1.337-.125a1.243,1.243,0,0,1,.856-.832A6.327,6.327,0,0,1,1052.461,512.532Z" transform="translate(-988.759 -449.327)" fill="#057553"/>
  <path id="Path_26997" data-name="Path 26997" d="M977.871,580.6a29.206,29.206,0,0,0,7.555-1.949c.358-.146.619.066.947.174-.291.117-.576.251-.874.345-.254.08-.265.191-.174.422.582,1.479,1.149,2.965,1.72,4.448.016.042.028.085.06.18l-.87-.08c-.15-.013-.166-.138-.2-.245q-.274-.764-.549-1.529a1.157,1.157,0,0,0-1.774-.476c-.348.3-.656.649-.982.976a9.209,9.209,0,0,1-1.18,1.118,1.9,1.9,0,0,1-2.378-.522c-.035-.06-.088-.151.008-.164.213-.029.419-.219.648-.025a.621.621,0,0,0,.872-.012,5.827,5.827,0,0,0,1.036-.964c.125-.156.314-.288.173-.54a.717.717,0,0,0-.613-.44c-.589-.013-1.178,0-1.766-.013a1.126,1.126,0,0,1-.882-.239A6.781,6.781,0,0,0,977.871,580.6Zm7.135.644.037.041c.029-.027.022-.052-.005-.076-.164-.479-.333-.955-.488-1.437-.049-.154-.13-.164-.258-.121a31.467,31.467,0,0,1-3.626,1.008l.43.1a1.778,1.778,0,0,1,1.275.673c.113.176.174.011.23-.045a1.43,1.43,0,0,1,1.4-.381C984.338,581.08,984.672,581.166,985.006,581.246Z" transform="translate(-933.08 -510.546)" fill="#057553"/>
  <path id="Path_26998" data-name="Path 26998" d="M860.632,562.067a.875.875,0,0,1,.309.881,4.675,4.675,0,0,0,3.519,5.3,2.178,2.178,0,0,0,1.491-.1.8.8,0,0,0,.457-1.136,2.094,2.094,0,0,0-1.034-1.074c-.11.589-.35.756-.926.65a2.091,2.091,0,0,1-1.423-.838c-.4-.582-.2-1.057.5-1.168a1.984,1.984,0,0,1,1.047.164,5.06,5.06,0,0,1,2.3,1.822,1.677,1.677,0,0,1,.3,1.348,1.607,1.607,0,0,1-1.39,1.27,2.8,2.8,0,0,1-1.438-.063,5.4,5.4,0,0,1-3.765-6.959A.427.427,0,0,1,860.632,562.067Z" transform="translate(-836.545 -496.967)" fill="#057553"/>
  <path id="Path_26999" data-name="Path 26999" d="M868.128,255.078a1.78,1.78,0,0,1,.311-1.012,3.44,3.44,0,0,1,2.9-1.614,1.363,1.363,0,0,1,1.434,1.794,3.314,3.314,0,0,1-3.562,2.269A1.336,1.336,0,0,1,868.128,255.078Zm1.192-.037a.689.689,0,0,0,1.061.677,2.292,2.292,0,0,0,1.289-1.877c.051-.394-.179-.618-.58-.665a1.125,1.125,0,0,0-.784.2A2.263,2.263,0,0,0,869.32,255.041Z" transform="translate(-842.963 -242.723)" fill="#057553"/>
  <path id="Path_27000" data-name="Path 27000" d="M884.923,284.493a11.2,11.2,0,0,0-2.97-1.187,9.008,9.008,0,0,0-2.916-.281c-.238.023-.353-.021-.288-.288a2.1,2.1,0,0,0,.037-.379c.033-.6.032-.6.649-.532a12.218,12.218,0,0,1,5,1.81C884.747,283.823,884.791,284.113,884.923,284.493Z" transform="translate(-851.671 -266.82)" fill="#057553"/>
  <path id="Path_27001" data-name="Path 27001" d="M1030.529,571.83a.857.857,0,0,1-.878-1.27,3,3,0,0,1,2.414-1.652.863.863,0,0,1,.871,1.238A2.768,2.768,0,0,1,1030.529,571.83Zm.4-.572a1.51,1.51,0,0,0,1.121-1.05c.086-.213.193-.462-.015-.642a.586.586,0,0,0-.738.024,1.834,1.834,0,0,0-.818,1.19C1030.407,571.086,1030.563,571.269,1030.925,571.258Z" transform="translate(-975.527 -502.585)" fill="#057553"/>
  <path id="Path_27002" data-name="Path 27002" d="M1041,589.742c-1.223.1-2.415.036-3.6.147-.575.054-1.151.084-1.726.14-.236.023-.332.007-.24-.274.2-.612.189-.617.846-.62,1.422-.006,2.838.1,4.256.19C1040.811,589.342,1040.87,589.526,1041,589.742Z" transform="translate(-980.323 -519.194)" fill="#057553"/>
  <path id="Path_27003" data-name="Path 27003" d="M927.134,615.269a1.537,1.537,0,0,1-1.016-.356c-.285-.254-.234-.543.112-.7a1.717,1.717,0,0,1,1.533.233.4.4,0,0,1-.094.718A1.065,1.065,0,0,1,927.134,615.269Z" transform="translate(-890.432 -539.71)" fill="#057553"/>
  <path id="Path_27004" data-name="Path 27004" d="M964.748,502.231v-.709a10.577,10.577,0,0,0,4.18-3.269,16.013,16.013,0,0,0,1.572-2.291c.1.074.057.17.057.248,0,1.178.007,2.355,0,3.533,0,.218.034.313.285.348,1.025.14,2.045.313,3.119.483a7.719,7.719,0,0,1-3.077,2.057,8.122,8.122,0,0,1-5.685-.22C965.045,502.355,964.9,502.292,964.748,502.231Z" transform="translate(-922.305 -442.685)" fill="#fbef01"/>
  <path id="Path_27005" data-name="Path 27005" d="M913.235,501.49q0,.351,0,.7a8.473,8.473,0,0,1-5.668.549,7.568,7.568,0,0,1-3.42-2.068,1.181,1.181,0,0,1-.1-.14c.978-.149,1.919-.3,2.86-.434.5-.074.506-.067.506-.575v-3.609a1.153,1.153,0,0,1,.282.391,13.758,13.758,0,0,0,4.155,4.476A6.8,6.8,0,0,0,913.235,501.49Z" transform="translate(-872.464 -442.646)" fill="#fbef01"/>
  <path id="Path_27006" data-name="Path 27006" d="M894.653,410.017a14.013,14.013,0,0,1,6.906,2.048.718.718,0,0,1,.408.854,7.948,7.948,0,0,0-.071,1.864c.014.244-.05.311-.3.308a7.356,7.356,0,0,1-3.239-.88A13.2,13.2,0,0,1,894.3,411.1a2.605,2.605,0,0,1-.505-.779c-.072-.19-.046-.313.2-.3C894.214,410.026,894.434,410.017,894.653,410.017Z" transform="translate(-864.011 -372.107)" fill="#fefefe"/>
  <path id="Path_27007" data-name="Path 27007" d="M980.469,414.036a7.237,7.237,0,0,0-.094-1.366.375.375,0,0,1,.17-.429,10.911,10.911,0,0,1,3.058-1.5,13.427,13.427,0,0,1,4.686-.746c.335.01.385.081.247.387a3.481,3.481,0,0,1-.714.971,12.453,12.453,0,0,1-5.645,3.528,5.581,5.581,0,0,1-1.367.188c-.249.005-.386-.035-.345-.331A5.541,5.541,0,0,0,980.469,414.036Z" transform="translate(-935.128 -372.089)" fill="#fefefe"/>
  <path id="Path_27008" data-name="Path 27008" d="M1035.905,456.037c-1.056,1.8-2.3,3.265-4.355,3.8a4.98,4.98,0,0,1-1.65.1.44.44,0,0,1-.406-.307,6.8,6.8,0,0,1-.373-3.735,10,10,0,0,1,.675-2.471c.287.629.548,1.21.817,1.787s.564,1.16.829,1.747c.1.225.2.3.462.217,1.245-.374,2.5-.72,3.75-1.076C1035.71,456.08,1035.765,456.069,1035.905,456.037Z" transform="translate(-975.084 -407.75)" fill="#fbef01"/>
  <path id="Path_27009" data-name="Path 27009" d="M858.763,453.827a8.221,8.221,0,0,1,.386,6.006.621.621,0,0,1-.633.452,5.208,5.208,0,0,1-3.964-1.481,9.018,9.018,0,0,1-1.855-2.442c.869.245,1.663.469,2.457.694.509.145,1.021.281,1.525.444.242.078.356.034.47-.205.493-1.028.986-2.055,1.444-3.1C858.646,454.071,858.706,453.95,858.763,453.827Z" transform="translate(-830.293 -408.084)" fill="#fbef01"/>
  <path id="Path_27010" data-name="Path 27010" d="M1041.866,393.668a9.75,9.75,0,0,1-.455,4.886,4.891,4.891,0,0,1-1.3,1.846.61.61,0,0,1-.8.091,7.691,7.691,0,0,1-2.961-3.024,10.685,10.685,0,0,1-.937-2.039l1.032.55c.844.451,1.714.843,2.586,1.237a.349.349,0,0,0,.527-.151C1040.293,395.949,1041.056,394.853,1041.866,393.668Z" transform="translate(-980.33 -358.684)" fill="#fbef01"/>
  <path id="Path_27011" data-name="Path 27011" d="M854.488,395.863a8.673,8.673,0,0,1-3.7,4.94c-.533.3-.559.3-1.016-.118a5.36,5.36,0,0,1-1.578-2.974,10.947,10.947,0,0,1-.085-3.576.681.681,0,0,1,.258.285c.685,1,1.379,1.993,2.044,3.005.174.264.318.274.582.156,1.116-.5,2.219-1.022,3.286-1.62C854.344,395.923,854.418,395.9,854.488,395.863Z" transform="translate(-826.436 -359.068)" fill="#fbef01"/>
  <path id="Path_27012" data-name="Path 27012" d="M844.579,429.652c.33.238.6.43.865.624.829.605,1.665,1.2,2.482,1.824.209.159.312.122.476-.047.921-.954,1.852-1.9,2.808-2.874a7.537,7.537,0,0,1-.123,1.858,8.086,8.086,0,0,1-1.726,4.087.49.49,0,0,1-.672.168A6.711,6.711,0,0,1,844.579,429.652Z" transform="translate(-823.627 -387.844)" fill="#fbef01"/>
  <path id="Path_27013" data-name="Path 27013" d="M1038.376,429.015c.863.886,1.68,1.73,2.5,2.567.546.555.552.551,1.176.1l2.625-1.918c.091-.066.185-.129.322-.223a6.6,6.6,0,0,1-.4,1.772,6.537,6.537,0,0,1-3.665,3.838.508.508,0,0,1-.7-.16,8.116,8.116,0,0,1-1.729-4.12A9.338,9.338,0,0,1,1038.376,429.015Z" transform="translate(-982.76 -387.71)" fill="#fbef01"/>
  <path id="Path_27014" data-name="Path 27014" d="M1010.661,473.981c.118,1.03.222,1.966.336,2.9.049.4.132.8.179,1.2.024.207.1.258.308.248,1.359-.065,2.72-.115,4.08-.169.076,0,.152,0,.281,0a3.349,3.349,0,0,1-.952.735,12.137,12.137,0,0,1-4.193,1.323c-.524.082-1.055.112-1.578.2-.336.055-.454-.045-.5-.389a6.5,6.5,0,0,1,.348-2.892A11.175,11.175,0,0,1,1010.661,473.981Z" transform="translate(-958.302 -424.634)" fill="#fbef01"/>
  <path id="Path_27015" data-name="Path 27015" d="M870.786,478.543c1.461.054,2.84.1,4.219.158.451.018.445.026.514-.436.182-1.22.348-2.442.433-3.673a.813.813,0,0,1,.023-.115c.074-.047.1,0,.126.034a9.858,9.858,0,0,1,1.957,4.733,5.461,5.461,0,0,1-.055,1.345c-.022.15-.066.246-.262.228a15.479,15.479,0,0,1-5.7-1.388A4.751,4.751,0,0,1,870.786,478.543Z" transform="translate(-845.147 -425.025)" fill="#fbef01"/>
  <path id="Path_27016" data-name="Path 27016" d="M918.079,395.386a3.834,3.834,0,0,1-2.988-1.46,7.5,7.5,0,0,1-1.328-2.519c-.073-.217-.015-.283.19-.31a4.172,4.172,0,0,1,1.867.251,5.936,5.936,0,0,1,3.24,2.282,1.23,1.23,0,0,1,.179,1.107c-.144.482-.261.6-.764.631C918.337,395.377,918.2,395.381,918.079,395.386Z" transform="translate(-880.413 -356.552)" fill="#fefefe"/>
  <path id="Path_27017" data-name="Path 27017" d="M976.435,395.384h-.1a1.019,1.019,0,0,1-.9-1.687,5.68,5.68,0,0,1,3.081-2.281,4.732,4.732,0,0,1,1.9-.335c.423.025.445.061.312.444a6.827,6.827,0,0,1-1.586,2.726A3.711,3.711,0,0,1,976.435,395.384Z" transform="translate(-930.884 -356.554)" fill="#fefefe"/>
  <path id="Path_27018" data-name="Path 27018" d="M864.423,372.3a6.557,6.557,0,0,1-3.961,2.868.58.58,0,0,1-.727-.332,5.018,5.018,0,0,1-.409-3.334,9.076,9.076,0,0,1,.7-2.225c.332,1.086.66,2.1.949,3.129.091.324.231.361.536.317C862.476,372.586,863.443,372.439,864.423,372.3Z" transform="translate(-835.648 -338.657)" fill="#fbef01"/>
  <path id="Path_27019" data-name="Path 27019" d="M1031.415,372.642l2.474.386c.1.016.205.03.308.041.622.065.622.064.81-.551q.425-1.387.854-2.777c.109.005.1.1.131.165a7.441,7.441,0,0,1,.611,4.083,4.434,4.434,0,0,1-.432,1.234.573.573,0,0,1-.73.326,5.459,5.459,0,0,1-2.013-.878A8.25,8.25,0,0,1,1031.415,372.642Z" transform="translate(-977.049 -339.036)" fill="#fbef01"/>
  <path id="Path_27020" data-name="Path 27020" d="M874.814,362.372a1.35,1.35,0,0,1,.236-.631,5.786,5.786,0,0,1,2.9-2.25c.2-.072.449-.172.624,0,.193.192.069.445-.024.648a6.3,6.3,0,0,1-2.3,2.707,1.635,1.635,0,0,1-.641.249A.667.667,0,0,1,874.814,362.372Z" transform="translate(-848.454 -330.541)" fill="#fbef01"/>
  <path id="Path_27021" data-name="Path 27021" d="M1027.579,362.345a.669.669,0,0,1-.812.724,1.859,1.859,0,0,1-.756-.327,6.519,6.519,0,0,1-2.133-2.543c-.108-.225-.256-.5-.068-.716s.484-.081.713.006a5.839,5.839,0,0,1,2.791,2.179A1.388,1.388,0,0,1,1027.579,362.345Z" transform="translate(-970.729 -330.517)" fill="#fbef01"/>
  <path id="Path_27022" data-name="Path 27022" d="M939.763,381.279a2.021,2.021,0,0,1-.133.627c-.164.409-.331.488-.744.338a1.122,1.122,0,0,1-.655-.626,4.446,4.446,0,0,1-.159-2.411c.021-.179.13-.1.227-.067A2.48,2.48,0,0,1,939.763,381.279Z" transform="translate(-900.326 -346.716)" fill="#fefefe"/>
  <path id="Path_27023" data-name="Path 27023" d="M974.082,380.261a3.039,3.039,0,0,1-.207,1.319,1.124,1.124,0,0,1-.92.739.365.365,0,0,1-.437-.233,1.959,1.959,0,0,1,.218-2.053,2.5,2.5,0,0,1,1.047-.872c.164-.075.214-.044.233.137A7.314,7.314,0,0,1,974.082,380.261Z" transform="translate(-928.524 -346.74)" fill="#fefefe"/>
  <path id="Path_27024" data-name="Path 27024" d="M932.435,591.271c1.007.123,2.01.285,3.026.325.169.007.27.044.256.263-.075,1.163-.133,2.328-.2,3.591a9.33,9.33,0,0,0-3.13-1.76l2.121-.75a11.225,11.225,0,0,0-2.1-1.632Z" transform="translate(-895.73 -520.948)" fill="#fbef01"/>
  <path id="Path_27025" data-name="Path 27025" d="M886.091,565.826a10.888,10.888,0,0,1-1.561-.552.237.237,0,0,1-.106-.124,3.637,3.637,0,0,0-1.919-1.763,5.763,5.763,0,0,1-1.224-.708c-.1-.086-.263-.183-.2-.329s.246-.077.376-.073a.88.88,0,0,1,.3.068,9.732,9.732,0,0,1,3.846,2.569A1.794,1.794,0,0,1,886.091,565.826Z" transform="translate(-853.588 -497.12)" fill="#fbef01"/>
  <path id="Path_27026" data-name="Path 27026" d="M932,591.155l-.1-.045a.1.1,0,0,1,.138.008Z" transform="translate(-895.324 -520.795)" fill="#fbef01"/>
  <path id="Path_27027" data-name="Path 27027" d="M824.283,521.1l.024.083-.089-.015Z" transform="translate(-806.907 -463.328)" fill="#fdf000"/>
  <path id="Path_27028" data-name="Path 27028" d="M893.894,575.941l-.025.044c-.008-.008-.023-.017-.022-.022a.21.21,0,0,1,.022-.046Z" transform="translate(-864.084 -508.339)" fill="#fdf000"/>
  <path id="Path_27029" data-name="Path 27029" d="M831.509,296.774l2.741,3.02a5.962,5.962,0,0,0-4.167.69A26.353,26.353,0,0,1,831.509,296.774Z" transform="translate(-811.723 -279.119)" fill="#fbef01"/>
  <path id="Path_27030" data-name="Path 27030" d="M847.276,276.528l.016.073-.064-.03A.362.362,0,0,1,847.276,276.528Z" transform="translate(-825.802 -262.493)" fill="#fdf000"/>
  <path id="Path_27031" data-name="Path 27031" d="M1064.988,545.936a6.322,6.322,0,0,0-1.27.293,1.242,1.242,0,0,0-.856.832c-.068.228-.142.234-.337.125a1.63,1.63,0,0,0-1.083-.039c-.169.025-.334.075-.512.117.007-.14.119-.171.19-.228a24.254,24.254,0,0,0,2.388-2.15c.168-.178.27-.225.454-.016C1064.28,545.231,1064.628,545.566,1064.988,545.936Z" transform="translate(-1001.286 -482.732)" fill="#fbef01"/>
  <path id="Path_27032" data-name="Path 27032" d="M997.839,585.968c-.335-.08-.668-.166-1-.241a1.43,1.43,0,0,0-1.4.381c-.056.055-.117.221-.23.045a1.778,1.778,0,0,0-1.275-.673l-.43-.1a31.452,31.452,0,0,0,3.626-1.008c.128-.044.209-.033.258.121.155.482.324.958.488,1.437Z" transform="translate(-945.914 -515.268)" fill="#fbef01"/>
  <path id="Path_27033" data-name="Path 27033" d="M1017.8,593.188c.027.024.034.049.005.076l-.037-.042Z" transform="translate(-965.844 -522.522)" fill="#fbef01"/>
  <path id="Path_27034" data-name="Path 27034" d="M874.8,258.328a2.265,2.265,0,0,1,.986-1.665,1.126,1.126,0,0,1,.784-.2c.4.047.631.271.58.665A2.292,2.292,0,0,1,875.856,259,.689.689,0,0,1,874.8,258.328Z" transform="translate(-848.439 -246.01)" fill="#fbef01"/>
  <path id="Path_27035" data-name="Path 27035" d="M1035.05,573.722c-.362.01-.519-.172-.449-.478a1.835,1.835,0,0,1,.818-1.19.587.587,0,0,1,.738-.024c.208.18.1.429.015.642A1.511,1.511,0,0,1,1035.05,573.722Z" transform="translate(-979.652 -505.049)" fill="#fbef01"/>
</svg>
