<svg id="Group_52017" data-name="Group 52017" xmlns="http://www.w3.org/2000/svg" width="30.993" height="30.993" viewBox="0 0 30.993 30.993">
  <g id="Group_52015" data-name="Group 52015">
    <path id="Path_42624" data-name="Path 42624" d="M6.358,0H24.636a6.358,6.358,0,0,1,6.358,6.358V24.636A6.537,6.537,0,0,1,30,28.052a6.252,6.252,0,0,1-5.363,2.942H6.358A6.358,6.358,0,0,1,0,24.636V6.358A6.358,6.358,0,0,1,6.358,0Z" transform="translate(0 0)" fill="#eff2ff"/>
  </g>
  <g id="Group_52016" data-name="Group 52016" transform="translate(6.358 7.152)" style="isolation: isolate">
    <path id="Path_38594" data-name="Path 38594" d="M189.311,724.731a5.37,5.37,0,0,1,.114,1.665c-.043.855-.022,1.7-.021,2.551a32.955,32.955,0,0,1-.006,4.485,2.589,2.589,0,0,1-.67,1.467c-.746.755-2.043.551-3.009.551H176.1c-1.378,0-3.483.425-4.28-1.03a4.522,4.522,0,0,1-.312-2.3c0-.833-.039-1.673-.036-2.509,0-1.094,0-2.169-.053-3.262a4.092,4.092,0,0,1,.365-2.178c.811-1.475,3.006-1.077,4.408-1.045.285.007.406-.047.381-.362-.031-.381-.013-.766-.006-1.149a2.029,2.029,0,0,1,1.965-1.993c1.246-.022,2.494-.02,3.74,0a2.009,2.009,0,0,1,1.968,1.857,7.511,7.511,0,0,1,.014,1.227c-.033.373.111.434.444.423.729-.025,1.46.021,2.188-.014a2.223,2.223,0,0,1,2.292,1.235A2.744,2.744,0,0,1,189.311,724.731Zm-8.85-.02h-6.689c-.543,0-.69.143-.69.671,0,2.076,0,5.738,0,7.814,0,.523.151.672.694.672q6.669,0,13.338,0c.553,0,.693-.148.693-.716,0-2.049,0-5.685,0-7.734,0-.562-.142-.706-.7-.707Zm-.056-1.6c.556.008,1.113.021,1.669.035a1.141,1.141,0,0,0,.5-.031c.144-.089.094-1.041.1-1.392a.254.254,0,0,0,0-.039.492.492,0,0,0-.521-.489q-1.73-.008-3.459,0a.486.486,0,0,0-.537.545c0,.356.014.714-.005,1.069-.012.237.049.32.3.313C179.106,723.107,179.756,723.107,180.4,723.116Z" transform="translate(-171.409 -719.607)" fill="#606fd1"/>
    <path id="Path_38595" data-name="Path 38595" d="M244.759,800.375c-.931,0-.929,0-.932.942a5.083,5.083,0,0,1-.025.706,1.041,1.041,0,0,1-1.065.893,1.013,1.013,0,0,1-1.051-.9,10.207,10.207,0,0,1-.022-1.306c.007-.263-.085-.351-.346-.338-.381.019-.763.013-1.144,0a1.073,1.073,0,0,1-.263-2.112,4.608,4.608,0,0,1,1.355-.059c.3,0,.426-.064.4-.387a8.553,8.553,0,0,1,0-1.035,1.071,1.071,0,0,1,1.082-1.114,1.059,1.059,0,0,1,1.075,1.062c.028.469-.152,1.086.084,1.371.248.3.889.057,1.356.1a1.135,1.135,0,0,1,1.125,1.162,1.114,1.114,0,0,1-1.189,1.015C245.05,800.376,244.9,800.375,244.759,800.375Z" transform="translate(-233.71 -789.651)" fill="#606fd1"/>
  </g>
</svg>
