<svg xmlns="http://www.w3.org/2000/svg" width="31.956" height="31.957" viewBox="0 0 31.956 31.957">
  <g id="Group_52094" data-name="Group 52094" transform="translate(0 0)">
    <path id="Path_359" data-name="Path 359" d="M836.38,1071.2a11.185,11.185,0,0,1,11.185,11.185h3.2A14.381,14.381,0,0,0,836.38,1068ZM825.2,1082.381A11.185,11.185,0,0,1,836.38,1071.2V1068A14.381,14.381,0,0,0,822,1082.381Zm11.185,11.185a11.185,11.185,0,0,1-11.185-11.185H822a14.38,14.38,0,0,0,14.38,14.38Zm11.185-11.185a11.185,11.185,0,0,1-11.185,11.185v3.2a14.38,14.38,0,0,0,14.38-14.38Z" transform="translate(-822 -1068)" fill="#0098bf"/>
    <path id="Path_360" data-name="Path 360" d="M845.328,1089.069l-6.951-6.951-2.259,2.259,6.951,6.951Zm-6.951-6.951a1.6,1.6,0,0,0-2.259,2.259Zm4.691,9.21a1.6,1.6,0,0,0,2.259-2.259Z" transform="translate(-813.84 -1059.84)" fill="#0098bf"/>
  </g>
</svg>
