<svg xmlns="http://www.w3.org/2000/svg" width="25.026" height="25.054" viewBox="0 0 25.026 25.054">
  <g id="Technical_problem_management" data-name="Technical problem management" style="isolation: isolate">
    <path id="Path_41397" data-name="Path 41397" d="M-4639.008,1572.474c-.827.809-1.638,1.616-2.472,2.4a.513.513,0,0,1-.462,0,5.36,5.36,0,0,0-3.179-.728,5.648,5.648,0,0,0-4.985,3.831,5.664,5.664,0,0,0,3.278,7.191,5.553,5.553,0,0,0,4.821-.291.592.592,0,0,1,.541.031c.81.771,1.589,1.573,2.375,2.366.016.016.015.05.032.114a1.106,1.106,0,0,1-1.04-.061.633.633,0,0,0-.685,0,13.907,13.907,0,0,1-1.393.572.773.773,0,0,0-.572.57.934.934,0,0,1-1,.79c-.655.013-1.312.014-1.967,0a.927.927,0,0,1-1-.79.77.77,0,0,0-.571-.571c-.484-.174-.948-.408-1.434-.576a.89.89,0,0,0-.6,0,1.192,1.192,0,0,1-1.492-.205c-.394-.378-.779-.767-1.162-1.157a1.136,1.136,0,0,1-.221-1.488.585.585,0,0,0-.006-.636c-.217-.437-.373-.9-.554-1.358-.118-.291-.228-.539-.609-.633a.968.968,0,0,1-.769-.989q-.007-.983,0-1.967a1.073,1.073,0,0,1,.82-1.041,1.134,1.134,0,0,0,.531-.555,13.326,13.326,0,0,0,.625-1.5.7.7,0,0,0-.025-.487,1.212,1.212,0,0,1,.251-1.594c.346-.348.7-.693,1.042-1.04a1.211,1.211,0,0,1,1.591-.267.8.8,0,0,0,.547,0c.549-.2,1.091-.423,1.617-.674a.817.817,0,0,0,.388-.421,1.068,1.068,0,0,1,1.053-.864q.962-.038,1.926,0a1.071,1.071,0,0,1,1.039.832.825.825,0,0,0,.366.439c.585.286,1.187.539,1.794.775.109.043.277-.035.408-.084C-4639.661,1572.213-4639.336,1572.063-4639.008,1572.474Z" transform="translate(4654.137 -1567.349)" fill="aqua"/>
    <path id="Path_41398" data-name="Path 41398" d="M-4558.779,1545.932c-1.257,0-2.514-.01-3.771.011a.723.723,0,0,0-.521.246.558.558,0,0,0,.066.817q2.647,2.594,5.24,5.24a1.592,1.592,0,0,0,1.238.5c1.3-.018,2.6-.008,3.894,0a.753.753,0,0,0,.7-.329,1.267,1.267,0,0,1,1.84-.225,1.31,1.31,0,0,1,.062,1.835,1.217,1.217,0,0,1-1.866-.113.893.893,0,0,0-.832-.382c-1.106.012-2.213,0-3.319.006-.484,0-.549.069-.553.541,0,.219.015.438,0,.656a1.162,1.162,0,0,0,.477,1.16,1.205,1.205,0,0,1,0,1.808,1.359,1.359,0,0,1-1.785-.051,1.289,1.289,0,0,1,.163-1.857.883.883,0,0,0,.38-.752,2.3,2.3,0,0,0-.836-2.142c-1.836-1.664-3.543-3.471-5.287-5.237a.559.559,0,0,0-.746-.134,2.327,2.327,0,0,1-3.147-1,2.461,2.461,0,0,1,.23-2.478,2.206,2.206,0,0,1,2.362-.831,2.181,2.181,0,0,1,.61.212.478.478,0,0,0,.68-.1q2.612-2.63,5.239-5.242c.106-.106.2-.255.323-.309.546-.23.615-.663.565-1.174a4.318,4.318,0,0,1,0-.655.8.8,0,0,0-.369-.758,1.28,1.28,0,0,1-.17-1.853,1.341,1.341,0,0,1,1.876.015,1.262,1.262,0,0,1-.191,1.846.774.774,0,0,0-.372.753c.017.341.01.683,0,1.024s.151.473.473.472c1.2,0,2.4.013,3.606-.015a.886.886,0,0,0,.559-.315,1.3,1.3,0,0,1,1.423-.478,1.134,1.134,0,0,1,.83.967,1.231,1.231,0,0,1-.58,1.334,1.264,1.264,0,0,1-1.639-.368.747.747,0,0,0-.689-.339c-1.365,0-2.732-.019-4.1.018a1.4,1.4,0,0,0-.864.355c-1.824,1.783-3.612,3.6-5.431,5.389-.3.3-.166.56-.039.805a.627.627,0,0,0,.477.252c2.527.015,5.055.012,7.583.007.544,0,.792-.26.8-.81s0-1.121,0-1.681a1.487,1.487,0,0,1,1.545-1.633.868.868,0,0,0,.755-.377,1.286,1.286,0,0,1,1.854-.121,1.317,1.317,0,0,1-.047,1.839,1.2,1.2,0,0,1-1.831-.183.741.741,0,0,0-.916-.319.7.7,0,0,0-.521.78,16.321,16.321,0,0,1-.012,1.679,8.509,8.509,0,0,1-.255,1.014,1.273,1.273,0,0,0,0,.508,8.126,8.126,0,0,1,.253,1.014c.046.584.019,1.174.019,1.761a.661.661,0,0,0,.537.683.685.685,0,0,0,.858-.271,1.214,1.214,0,0,1,1.359-.524,1.232,1.232,0,0,1,.869.938,1.232,1.232,0,0,1-.525,1.358,1.381,1.381,0,0,1-1.7-.319,1.047,1.047,0,0,0-.632-.335,1.51,1.51,0,0,1-1.613-1.7c0-.519,0-1.038,0-1.558,0-.674-.2-.869-.89-.87Q-4556.936,1545.93-4558.779,1545.932Zm7.778-4.12.182-.008c.108-.163.322-.344.3-.483-.028-.159-.269-.281-.417-.418-.132.148-.351.287-.369.448C-4551.323,1541.491-4551.111,1541.657-4551,1541.812Zm-5.537-7.52,0-.191c-.156-.112-.315-.316-.465-.309s-.33.229-.367.387a.316.316,0,0,0,.36.413C-4556.838,1534.564-4556.694,1534.4-4556.538,1534.292Zm5.152,15.2-.021.2c.146.119.3.337.439.33.162-.009.313-.217.469-.338-.127-.146-.234-.375-.39-.414C-4551.026,1549.237-4551.218,1549.412-4551.386,1549.494Zm-5.6,6.879c-.279,0-.428.181-.383.409a.6.6,0,0,0,.358.405c.229.048.4-.129.409-.393A.361.361,0,0,0-4556.99,1556.373Zm5.912-18.092.19.022c.127-.145.343-.283.354-.436.011-.133-.186-.356-.336-.409a.322.322,0,0,0-.452.319C-4551.315,1537.948-4551.164,1538.113-4551.078,1538.281Zm.631,14.958c0-.058.006-.117.008-.176-.159-.108-.309-.28-.48-.306a.35.35,0,0,0-.419.377c0,.258.152.436.4.4C-4550.765,1553.5-4550.611,1553.341-4550.447,1553.239Z" transform="translate(4574.717 -1532.956)" fill="aqua"/>
  </g>
</svg>
