<svg xmlns="http://www.w3.org/2000/svg" width="20" height="20.002" viewBox="0 0 20 20.002">
  <g id="Vehicle_management" data-name="Vehicle management" style="isolation: isolate">
    <g id="Group_51283" data-name="Group 51283" transform="translate(0 0)">
      <g id="Group_51228" data-name="Group 51228" transform="translate(0 0)">
        <g id="Group_50792" data-name="Group 50792" transform="translate(0)">
          <g id="Group_51562" data-name="Group 51562" style="mix-blend-mode: color-dodge;isolation: isolate">
            <path id="Path_41383" data-name="Path 41383" d="M-2155.128,1692.483c-.015-.243-.034-.485-.034-.729q0-3.451,0-6.9c0-.139.043-.272.03-.411a.714.714,0,0,1,.009-.079c.319-1.452.635-2.9.961-4.355a6.135,6.135,0,0,1,.344-1.329,3.136,3.136,0,0,1,2.5-1.769c.2-.01.392-.03.588-.03q3.312,0,6.625,0a1.578,1.578,0,0,0,.518,0c0,.027.025.029.048.033a3.105,3.105,0,0,1,2.714,2.434c.324,1.436.635,2.875.942,4.314a5.11,5.11,0,0,1,.2,1.018c.005.671,0,1.342,0,2.013,0,.116-.038.139-.152.138-.612-.005-1.225,0-1.837,0a2.606,2.606,0,0,0-2.468,1.573c-.334.79-.672,1.578-1.008,2.368a2.874,2.874,0,0,0-.221.9c-.051.633-.017,1.267-.02,1.9,0,.131-.043.156-.172.156-1.242,0-2.484,0-3.725,0-.556,0-1.112,0-1.667,0-.111,0-.146.027-.141.132.009.2.005.4,0,.607a.744.744,0,0,1-.818.79q-.816.015-1.633,0a.736.736,0,0,1-.809-.779q-.005-.431,0-.863a.159.159,0,0,0-.087-.156A1.5,1.5,0,0,1-2155.128,1692.483Zm7.775-7.955q2.518,0,5.036,0a.767.767,0,0,0,.843-.956q-.318-1.495-.646-2.987a.774.774,0,0,0-.823-.643q-4.441,0-8.882,0a.775.775,0,0,0-.817.631c-.207.981-.389,1.967-.621,2.943a.859.859,0,0,0,.907,1.02C-2150.688,1684.513-2149.021,1684.528-2147.353,1684.528Zm-.062-6.885c-.687,0-1.373,0-2.059,0a.741.741,0,0,0-.753.492.763.763,0,0,0,.8,1.037c.5,0,1.01,0,1.515,0,.84,0,1.679,0,2.519,0a.76.76,0,0,0,.787-.495.761.761,0,0,0-.8-1.035C-2146.076,1677.64-2146.746,1677.643-2147.415,1677.643Zm-6.114,13.384a1.216,1.216,0,0,0,1.22,1.159,1.228,1.228,0,0,0,1.226-1.141,1.22,1.22,0,0,0-1.224-1.156A1.213,1.213,0,0,0-2153.529,1691.027Z" transform="translate(2155.163 -1676.875)" fill="aqua"/>
            <path id="Path_41384" data-name="Path 41384" d="M-1840.831,2020.17c-.89,0-1.781,0-2.671,0-.146,0-.181.041-.173.179.012.22.007.442,0,.663a.748.748,0,0,1-.765.783c-.3.011-.6.011-.9,0a.713.713,0,0,1-.764-.724c.005-.515-.1-1.019-.091-1.532.011-.9.007-1.8,0-2.705a3.626,3.626,0,0,1,.279-1.423c.318-.769.629-1.54.942-2.31a1.68,1.68,0,0,1,1.6-1.079q2.518,0,5.036,0a1.609,1.609,0,0,1,1.592,1.076c.326.82.648,1.642.973,2.462a2.457,2.457,0,0,1,.178,1.211,9.675,9.675,0,0,0-.009,1.088,9.156,9.156,0,0,0,.008,1.1,16.553,16.553,0,0,1,.069,1.906,2.308,2.308,0,0,1-.009.238.718.718,0,0,1-.685.679,10.274,10.274,0,0,1-1.037,0,.721.721,0,0,1-.7-.715c-.012-.226,0-.454-.005-.68,0-.248.032-.221-.213-.221Zm0-4.074h3.538c.356,0,.485-.182.359-.508l-.734-1.9a.65.65,0,0,0-.65-.446h-5.017a.6.6,0,0,0-.631.438q-.369.958-.736,1.916c-.12.311.006.5.335.5Zm-2.84,2.454a.762.762,0,0,0-.795-.822.766.766,0,0,0-.834.8.777.777,0,0,0,.813.829A.773.773,0,0,0-1843.672,2018.55Zm5.708-.016a.769.769,0,0,0,.814.823.77.77,0,0,0,.81-.812.76.76,0,0,0-.8-.818A.759.759,0,0,0-1837.964,2018.533Z" transform="translate(1855.525 -2001.798)" fill="aqua"/>
          </g>
        </g>
      </g>
    </g>
  </g>
</svg>
