<svg xmlns="http://www.w3.org/2000/svg" width="19.817" height="19.817" viewBox="0 0 19.817 19.817">
  <g id="Group_35630" data-name="Group 35630" transform="translate(0)">
    <path id="Path_20751" data-name="Path 20751" d="M-568.183,22.909a9.909,9.909,0,0,1-9.9,9.909,9.909,9.909,0,0,1-7.021-2.906,9.909,9.909,0,0,1-2.9-7.025A9.908,9.908,0,0,1-578.125,13a9.909,9.909,0,0,1,7.028,2.89A9.908,9.908,0,0,1-568.183,22.909ZM-581.313,25h6.448a11.452,11.452,0,0,0-.008-4.184h-6.445A11.493,11.493,0,0,0-581.308,25Zm3.23-10.287a11.393,11.393,0,0,0-2.854,4.624h5.691a11.519,11.519,0,0,0-2.833-4.624Zm-.037,16.36a10.305,10.305,0,0,0,2.832-4.593h-5.655a11.491,11.491,0,0,0,2.828,4.593Zm8.249-10.26h-3.457v4.2h3.456a8.285,8.285,0,0,0,.006-4.192Zm-12.986,0h-3.459a8.19,8.19,0,0,0,0,4.191h3.454Zm.423-1.468A13.269,13.269,0,0,1-580,14.7c-2.027.121-5.073,2.6-5.741,4.643Zm12.014.01c-.849-2.2-3.937-4.686-5.746-4.624a13.182,13.182,0,0,1,2.422,4.624Zm-15.323,7.118c.66,2.037,3.715,4.522,5.743,4.643a13.334,13.334,0,0,1-2.439-4.643Zm9.557,4.65a8.183,8.183,0,0,0,5.744-4.674c-1.035,0-2.061,0-3.083.009a.366.366,0,0,0-.274.2,13.392,13.392,0,0,1-2.381,4.468Z" transform="translate(588 -13)" fill="#22ccc1"/>
  </g>
</svg>
