<svg xmlns="http://www.w3.org/2000/svg" width="24" height="24" viewBox="0 0 24 24">
  <g id="admin" transform="translate(21421 16090)">
    <rect id="Rectangle_14035" data-name="Rectangle 14035" width="24" height="24" transform="translate(-21421 -16090)" fill="none"/>
    <g id="Group_53727" data-name="Group 53727" transform="translate(-21419 -16087)">
      <path id="Path_43994" data-name="Path 43994" d="M-682.936-2417.822a3.054,3.054,0,0,1,1.839-2.562,2.667,2.667,0,0,1,1.221-.252,3.131,3.131,0,0,1,3.115,2.847.976.976,0,0,1-.008.268h1.477a.46.46,0,0,1-.035-.22,2.775,2.775,0,0,0-.1-.8,4.386,4.386,0,0,0-2.048-2.845c-.2-.12-.226-.2-.055-.391a2.8,2.8,0,0,0,.614-2.524,3.005,3.005,0,0,0-3.366-2.323,2.915,2.915,0,0,0-2.413,1.987,2.873,2.873,0,0,0,.477,2.844c.185.242.109.308-.085.434a4.4,4.4,0,0,0-1.824,2.285,4.277,4.277,0,0,0-.233,1.118.842.842,0,0,1-.09.433h1.567A.72.72,0,0,1-682.936-2417.822Zm3.066-7.408a1.5,1.5,0,0,1,1.554,1.615,1.556,1.556,0,0,1-1.523,1.549,1.613,1.613,0,0,1-1.6-1.6A1.566,1.566,0,0,1-679.87-2425.23Z" transform="translate(687.143 2426.661)" fill="#fff"/>
      <path id="Path_43997" data-name="Path 43997" d="M-725-2331.33q0-3.019,0-6.037c0-.477-.23-.7-.741-.716-.4-.009-.8-.011-1.2,0-.222.007-.267-.052-.184-.242.263-.6.516-1.21.773-1.814.219-.515-.035-.86-.636-.861h-3.426c-.485,0-.635.094-.81.507q-.471,1.106-.941,2.213c-.046.11-.1.2-.25.195-.605,0-9.623,0-9.789,0-.682,0-1.364,0-2.046,0-.5,0-.747.237-.747.706q0,4.522,0,9.044c0,.056,0,.112,0,.167a.554.554,0,0,0,.611.537.527.527,0,0,0,.563-.549c0-.287,0-.573,0-.859,0-.311,0-.312.334-.312h11.021c2,0,4.006,0,6.009,0,.224,0,.3.055.288.268-.018.317-.01.636,0,.954a.521.521,0,0,0,.554.5.541.541,0,0,0,.619-.6C-725-2329.262-725-2330.3-725-2331.33Zm-5.953-6.856c.23-.538.462-1.074.691-1.611.045-.105.138-.1.233-.1h1.047c.332,0,.664.005,1,0,.2,0,.261.051.177.238-.2.438-.391.879-.565,1.325-.043.109-.1.252-.155.252,0,0-.159.011-.255.011s-1.752.016-2.1.013C-731-2338.063-730.977-2338.125-730.95-2338.186Zm4.781,7.448c0,.229-.064.294-.313.293q-4.257-.012-8.514,0t-8.514,0c-.241,0-.318-.055-.317-.289q.014-2.982,0-5.965c0-.229.066-.294.313-.293q8.514.009,17.027,0c.242,0,.318.056.317.289Q-726.183-2333.72-726.169-2330.738Z" transform="translate(744.997 2346.337)" fill="#fff"/>
    </g>
  </g>
</svg>
