<svg xmlns="http://www.w3.org/2000/svg" width="24" height="24" viewBox="0 0 24 24">
  <g id="assets_press" transform="translate(21420 15588)">
    <rect id="Rectangle_14044" data-name="Rectangle 14044" width="24" height="24" transform="translate(-21420 -15588)" fill="none"/>
    <g id="Group_53736" data-name="Group 53736" transform="translate(-21418 -15585)">
      <g id="Group_52297" data-name="Group 52297">
        <g id="Group_52296" data-name="Group 52296">
          <path id="Path_43972" data-name="Path 43972" d="M3495.278-1806.756c-.652-.44-1.337-.83-1.969-1.3a.307.307,0,0,1-.141-.282c.011-.453.008-.907.014-1.361,0-.328.012-.655-.013-.982-.022-.287-.1-.376-.391-.41a2.671,2.671,0,0,0-.315-.014h-.081c-.505,0-.513.014-.509.519s0,1.029,0,1.587c-.2-.123-.364-.218-.521-.321-1.159-.759-2.323-1.51-3.47-2.285a.9.9,0,0,0-.5-.179.92.92,0,0,0-.513.183c-2.34,1.564-4.7,3.1-7.061,4.627-.126.082-.247.174-.366.267a.322.322,0,0,0-.1.436c.086.167.179.332.276.493.109.183.192.268.3.268a.612.612,0,0,0,.3-.129c2.233-1.463,4.47-2.919,6.694-4.4a.826.826,0,0,1,.458-.164.842.842,0,0,1,.464.167c2.121,1.4,4.253,2.791,6.381,4.183a3.061,3.061,0,0,0,.359.207.518.518,0,0,0,.218.061.368.368,0,0,0,.283-.17,5.376,5.376,0,0,0,.318-.445C3495.59-1806.486,3495.567-1806.56,3495.278-1806.756Z" transform="translate(-3475.522 1811.784)" fill="aqua"/>
          <g id="Group_52295" data-name="Group 52295" transform="translate(0 2.31)">
            <g id="Group_52294" data-name="Group 52294" transform="translate(2.993 9.231)">
              <path id="Path_43974" data-name="Path 43974" d="M3475.981-1622.234l-.03,0Z" transform="translate(-3475.421 1624.774)" fill="aqua"/>
              <path id="Path_43975" data-name="Path 43975" d="M3472.674-1653.415a2.136,2.136,0,0,1-1.8,1.934.913.913,0,0,1-.113.007,1.263,1.263,0,0,1-1.075-.654.619.619,0,0,1-.052-.275c0-.447,0-.895,0-1.342,0-.073,0-.144-.078-.144a.16.16,0,0,0-.037,0,.645.645,0,0,1-.144.017l-.031,0c-.3-.031-.563-.511-.526-.511l.082,0h.023l.046,0c.129,0,.275.03.4.03a.3.3,0,0,0,.226-.073c.135-.141.029-.444.039-.675,0-.063,0-.126,0-.189,0-.273-.114-.419-.352-.419a.68.68,0,0,0-.093.006.371.371,0,0,1-.048,0c-.178,0-.164-.163-.225-.263a.2.2,0,0,1,.074-.294.894.894,0,0,1,.472-.154.606.606,0,0,1,.553.373,1.277,1.277,0,0,1,.134.565c.007.315.01.63,0,.945,0,.1.021.151.1.151a.281.281,0,0,0,.044,0,.246.246,0,0,1,.042,0,.3.3,0,0,1,.217.121c.107.114.23.213.347.318l-.032.056-.343,0c-.079,0-.159,0-.239,0h-.016c-.094,0-.125.037-.123.139.005.422,0,.844,0,1.266a.41.41,0,0,0,.337.42.722.722,0,0,0,.187.026.532.532,0,0,0,.2-.039,1.615,1.615,0,0,0,.962-1.026c.026-.08.067-.184-.1-.184h-.012a.556.556,0,0,1-.594-.386.726.726,0,0,1,.161-.785.7.7,0,0,1,.445-.145.737.737,0,0,1,.375.1A1.124,1.124,0,0,1,3472.674-1653.415Z" transform="translate(-3468.82 1656.406)" fill="aqua"/>
            </g>
            <path id="Path_43976" data-name="Path 43976" d="M3446.668-1776.705q-2.938-1.909-5.867-3.833a.782.782,0,0,0-.431-.152.808.808,0,0,0-.445.159c-1.933,1.277-3.876,2.539-5.812,3.812a1.553,1.553,0,0,1-.883.266h-.022c-.882-.011-1.764,0-2.646-.011h-.005c-.177,0-.261.068-.266.252a5.475,5.475,0,0,0,.044.98,2.6,2.6,0,0,0,.529,1.256c.18.227.168.272-.067.428-.094.063-.189.125-.282.19a4.28,4.28,0,0,0-1.951,3.4c-.066,1.264-.039,2.532-.009,3.8a1.7,1.7,0,0,0,1.38,1.749,3.61,3.61,0,0,0,.808.072h13.8c.372,0,.743.008,1.115.01l.511,0,.452,0c.314,0,.393-.081.4-.39,0-.057,0-.114,0-.17q-.007-3.553-.013-7.107,0-2.022.015-4.044A.719.719,0,0,0,3446.668-1776.705Zm-12.392,1.6h.152a1.362,1.362,0,0,1-1.188.9c-.045,0-.09.006-.135.006a1.464,1.464,0,0,1-1.354-.906Zm2.062,8.856c0,.388-.19.56-.58.562l-1.124,0h-3.055q-.574,0-1.149,0c-.389,0-.556-.166-.558-.558-.007-1.222-.032-2.444.008-3.665a3.222,3.222,0,0,1,2.643-2.89,3.435,3.435,0,0,1,.578-.049,3.239,3.239,0,0,1,3.218,2.787,3.825,3.825,0,0,1,.031.565C3436.35-1768.41,3436.35-1767.327,3436.338-1766.244Zm6.943-4.532c-.1,1.245-.021,2.493-.058,3.738-.01.352.009.7.008,1.057,0,.244-.052.309-.278.309h-.036q-.286-.008-.573-.008c-.174,0-.348,0-.522.008h-.044c-.227,0-.279-.068-.28-.319,0-.844,0-1.687,0-2.531q0-1.228,0-2.456c0-.329.039-.369.357-.369h.038c.166,0,.332-.02.5-.031.094-.006.188-.017.283-.018h.014C3443.121-1771.395,3443.314-1771.209,3443.281-1770.776Zm2.424.073h-.015c0,.907,0,1.814,0,2.72,0,.624.01,1.247.013,1.87,0,.362-.059.445-.376.445h-.073c-.132,0-.265-.008-.4-.021a.283.283,0,0,1-.284-.294c-.006-.119-.015-.239-.015-.358q0-2.4,0-4.8c0-.359.009-.718.01-1.076s-.083-.457-.422-.457h-.049c-.462.011-.924.024-1.386.024h-.049c-.686,0-1.372-.017-2.058-.023h-.021c-.343,0-.414.078-.414.428q.006,3.023.013,6.046c0,.057,0,.114,0,.17-.013.254-.108.371-.344.371h-.047c-.3-.017-.592-.023-.889-.023-.32,0-.641.006-.961.011h-.024c-.227,0-.267-.054-.266-.3.007-.793.029-1.587.022-2.38a13.681,13.681,0,0,0-.083-2.073,4.277,4.277,0,0,0-1.8-2.858c-.122-.089-.251-.169-.375-.256-.208-.147-.228-.229-.075-.434a2.7,2.7,0,0,0,.526-1.137,3.206,3.206,0,0,0,.045-.808.592.592,0,0,1,.292-.573q1.945-1.269,3.889-2.54a.494.494,0,0,1,.275-.091.682.682,0,0,1,.369.137q1.638,1.083,3.282,2.157c.437.286.872.577,1.317.85a.73.73,0,0,1,.374.687C3445.7-1773.765,3445.705-1772.234,3445.705-1770.7Z" transform="translate(-3428.521 1780.69)" fill="aqua"/>
          </g>
        </g>
      </g>
    </g>
  </g>
</svg>
