<svg xmlns="http://www.w3.org/2000/svg" width="24" height="24" viewBox="0 0 24 24">
  <g id="budget" transform="translate(21853 21025)">
    <rect id="Rectangle_14042" data-name="Rectangle 14042" width="24" height="24" transform="translate(-21853 -21025)" fill="none"/>
    <g id="Group_54013" data-name="Group 54013" transform="translate(-22068.326 -21127.148)">
      <path id="Path_44111" data-name="Path 44111" d="M237.246,119.2a1.132,1.132,0,0,1-.683,1.043,6.009,6.009,0,0,1-1.823.518,9.974,9.974,0,0,1-1.684.1.343.343,0,0,1-.393-.313l.006-.088a.512.512,0,0,1,.423-.218,7.686,7.686,0,0,0,1.194-.048,5.511,5.511,0,0,0,2.029-.515c.329-.168.362-.266.253-.636a.74.74,0,0,0-.081.023,8.675,8.675,0,0,1-3.3.574c-.268,0-.388-.091-.389-.3s.111-.315.376-.316a12.7,12.7,0,0,0,1.345-.089,5.517,5.517,0,0,0,1.776-.471.473.473,0,0,0,.329-.418c.005-.151-.028-.232-.213-.153a9.08,9.08,0,0,1-3.408.561.369.369,0,0,1-.4-.227c.01-.294.1-.379.4-.386a12.952,12.952,0,0,0,2.031-.166,4.591,4.591,0,0,0,1.257-.4.5.5,0,0,0,.338-.482c-.006-.1-.04-.169-.161-.114a6.935,6.935,0,0,1-2.4.524,8.039,8.039,0,0,1-1.947-.02l-.042-.019.011.048a9.2,9.2,0,0,1,.481,1.041,4.684,4.684,0,0,1,.154,1.692,1.512,1.512,0,0,0-.045.512c-.054.009-.039.05-.038.085a4.447,4.447,0,0,1-2.34,2.823,4.288,4.288,0,0,1-5.227-1.271c-.142-.192-.277-.388-.431-.6a.715.715,0,0,1-.817.514,8.751,8.751,0,0,1-2.4-.332,5.7,5.7,0,0,1-3.653-2.993,5.125,5.125,0,0,1-.3-3.295,10.094,10.094,0,0,1,2.918-5.446,5.98,5.98,0,0,1,.976-.76c.138-.086.146-.159.062-.294a12.1,12.1,0,0,1-1.124-2.127,2.6,2.6,0,0,1-.139-.569.866.866,0,0,1,.9-1.041,4.043,4.043,0,0,1,1.266.167,4.547,4.547,0,0,0,2.757.029,6.147,6.147,0,0,1,1.221-.195.814.814,0,0,1,.909,1,5.655,5.655,0,0,1-.656,1.693c-.184.353-.383.7-.582,1.043a.154.154,0,0,0,.042.236,9.012,9.012,0,0,1,2.915,3.231,1.153,1.153,0,0,1,.822-1.08,6.984,6.984,0,0,1,2.407-.52,11.173,11.173,0,0,1,2.323.047,1.262,1.262,0,0,1,.4.079.3.3,0,0,1,.191.331.278.278,0,0,1-.28.231,1.814,1.814,0,0,1-.324-.018,10.994,10.994,0,0,0-3.843.2,6.873,6.873,0,0,0-.739.254c-.146.053-.288.125-.287.312s.144.246.288.311a6.54,6.54,0,0,0,1.825.463,10.755,10.755,0,0,0,3.737-.172,2.739,2.739,0,0,0,.964-.38c.243-.161.244-.282,0-.433a2.328,2.328,0,0,0-.61-.278.707.707,0,0,1-.3-.131.281.281,0,0,1-.11-.326.306.306,0,0,1,.3-.2,1.566,1.566,0,0,1,1.536,1.54q0,3.121,0,6.242c0,.079,0,.159.007.239ZM225,109.68a.638.638,0,0,1-.679.378c-.674,0-1.349,0-2.023,0a.624.624,0,0,0-.376.08,6.938,6.938,0,0,0-.976.8,8.8,8.8,0,0,0-2.031,3.306,6.071,6.071,0,0,0-.431,2.85,3.743,3.743,0,0,0,1.579,2.712,5.817,5.817,0,0,0,3.508,1.09,1.421,1.421,0,0,1,.886.159c-.07-.322-.169-.594-.21-.879a4.215,4.215,0,0,1,1.149-3.635.581.581,0,0,1,.523-.21c.049.006.126.041.132-.055.023-.35.282-.477.55-.605a4.558,4.558,0,0,1,2.78-.351,1.237,1.237,0,0,1-.444-1.207c.013-.409,0-.819,0-1.253-.412.437-.783.393-1.078-.1-.026-.043-.05-.088-.074-.133a7.512,7.512,0,0,0-1.51-1.9A14.042,14.042,0,0,1,225,109.68Zm.3,9.848c.012.159.009.32.036.476a3.18,3.18,0,1,0,1.864-3.393,1.275,1.275,0,0,1-.721.2c-.073-.012-.083.037-.09.092a.933.933,0,0,1-.272.485A3.148,3.148,0,0,0,225.3,119.528Zm-2.852-11.08a.6.6,0,0,1,.645-.409h1.869c.118,0,.236,0,.3-.123a15.7,15.7,0,0,0,.727-1.479c.05-.124,0-.142-.105-.122-.192.037-.385.07-.574.118a5.469,5.469,0,0,1-2.533.139c-.431-.092-.854-.219-1.293-.279-.165-.022-.189.007-.13.16A14.121,14.121,0,0,0,222.444,108.448Zm10.639,5.81c.406-.022.834-.039,1.26-.07a5.475,5.475,0,0,0,1.869-.453.7.7,0,0,0,.37-.288.291.291,0,0,0,.018-.31c-.066-.09-.162,0-.237.023a11.158,11.158,0,0,1-2.966.512,10.576,10.576,0,0,1-3.637-.528c-.184-.06-.251,0-.208.194a.548.548,0,0,0,.364.374A8.152,8.152,0,0,0,233.082,114.258Zm-.043,1.19a11.544,11.544,0,0,0,1.818-.133,5.1,5.1,0,0,0,1.371-.4.651.651,0,0,0,.37-.319.279.279,0,0,0,.006-.271c-.057-.077-.146,0-.215.022a10.511,10.511,0,0,1-5.126.363,9.882,9.882,0,0,1-1.534-.387c-.117-.042-.164-.022-.165.116a.387.387,0,0,0,.218.39c.1.048.193.1.294.139A8.31,8.31,0,0,0,233.04,115.449Zm-1.049,1.618c0-.374.065-.444.432-.445.109,0,.217,0,.326.005a11.933,11.933,0,0,0,2.145-.129,5,5,0,0,0,1.427-.435c.238-.12.338-.283.3-.474-.021-.1-.05-.143-.173-.093a9.536,9.536,0,0,1-4.53.5c-.393-.036-.785-.1-1.236-.156A4.661,4.661,0,0,1,231.991,117.067Z" transform="translate(0)" fill="#fff"/>
      <path id="Path_44112" data-name="Path 44112" d="M244.969,124.59v-.13C245.074,124.5,245.075,124.546,244.969,124.59Z" transform="translate(-7.722 -5.395)" fill="#fff"/>
      <path id="Path_44113" data-name="Path 44113" d="M238.6,126.391l-.006.088h-.028c0-.035-.016-.076.038-.085Z" transform="translate(-5.934 -5.934)" fill="#fff"/>
      <path id="Path_44114" data-name="Path 44114" d="M237.8,121.874l-.011-.048.042.019A.385.385,0,0,1,237.8,121.874Z" transform="translate(-5.716 -4.659)" fill="#fff"/>
      <path id="Path_44115" data-name="Path 44115" d="M232.345,124.313c-.227,0-.386.006-.543,0-.115-.006-.15.037-.148.151.006.333,0,.667,0,1a.435.435,0,0,0,.577.457,1.481,1.481,0,0,0,.92-.943c.03-.138-.031-.139-.132-.143a.488.488,0,0,1-.491-.325.623.623,0,0,1,.168-.73.688.688,0,0,1,.809.064,1.139,1.139,0,0,1,.31,1.235,1.925,1.925,0,0,1-1.6,1.349.985.985,0,0,1-1.026-.918c0-.341,0-.682,0-1.022,0-.074.023-.193-.1-.169-.352.069-.5-.2-.731-.441.249,0,.452-.006.655,0,.138.006.194-.033.183-.184-.015-.21,0-.421,0-.631,0-.258-.107-.381-.353-.355s-.236-.15-.286-.276.057-.208.164-.262a.589.589,0,0,1,.893.437,4.348,4.348,0,0,1,.042,1c0,.155-.026.275.22.288C232.059,123.9,232.161,124.133,232.345,124.313Z" transform="translate(-3.641 -4.732)" fill="#fff"/>
    </g>
  </g>
</svg>
