<svg xmlns="http://www.w3.org/2000/svg" width="8.383" height="5" viewBox="0 0 8.383 5">
  <g id="down_arrow_press" transform="translate(-74.309 -98.07)">
    <path id="Path_44118" data-name="Path 44118" d="M4.685,4.791,8.178,1.219,7.19.209,3.7,3.781ZM.2,1.219,3.7,4.791l.988-1.01L1.193.209Zm7.973,0a.725.725,0,0,0,0-1.01.687.687,0,0,0-.988,0ZM4.191,4.286l-.494.5a.687.687,0,0,0,.988,0Zm-3-4.076A.687.687,0,0,0,.2.209a.725.725,0,0,0,0,1.01Z" transform="translate(74.309 98.07)" fill="aqua"/>
  </g>
</svg>
