<svg xmlns="http://www.w3.org/2000/svg" width="24" height="24" viewBox="0 0 24 24">
  <g id="economi" transform="translate(21421 15754)">
    <rect id="Rectangle_14041" data-name="Rectangle 14041" width="24" height="24" transform="translate(-21421 -15754)" fill="none"/>
    <g id="Group_53733" data-name="Group 53733" transform="translate(-21417.578 -15752.701)">
      <g id="Group_52302" data-name="Group 52302" transform="translate(9.342)">
        <path id="Path_43999" data-name="Path 43999" d="M-1169.82-1959.822l-.106.008a1.091,1.091,0,0,1-.483-.065.669.669,0,0,1-.4-.388,1.19,1.19,0,0,1-.068-.681.755.755,0,0,1,.382-.551.992.992,0,0,1,.406-.1,1.084,1.084,0,0,1,.979.442,1.745,1.745,0,0,1,.367,1.236,2.381,2.381,0,0,1-.4,1.186,3.368,3.368,0,0,1-.984,1.012,2.408,2.408,0,0,1-1.364.387,1.222,1.222,0,0,1-.6-.186,1.938,1.938,0,0,1-.687-.639.643.643,0,0,1-.1-.36c0-.682,0-1.363,0-2.045v-.061h-.053c-.194,0-.389,0-.584,0a.1.1,0,0,1-.061-.023c-.2-.207-.4-.416-.6-.624-.007-.007-.012-.016-.025-.031h1.27c.039,0,.052-.009.052-.051,0-.426,0-.851,0-1.277a.437.437,0,0,0-.34-.461.6.6,0,0,0-.333-.016,1.05,1.05,0,0,0-.121.044,3.1,3.1,0,0,1-.233-.5.107.107,0,0,1,0-.026.285.285,0,0,1,.127-.268,1.259,1.259,0,0,1,.483-.2.852.852,0,0,1,.438.019.819.819,0,0,1,.442.369,1.531,1.531,0,0,1,.227.68,3.119,3.119,0,0,1,.017.333c0,.43,0,.86,0,1.29v.056l.05,0c.1,0,.208,0,.312,0a.088.088,0,0,1,.053.021c.205.208.41.418.614.627.007.007.012.015.022.029h-1.051v.059q0,.913,0,1.826a.586.586,0,0,0,.549.62,1.017,1.017,0,0,0,.63-.105,2.38,2.38,0,0,0,1.075-1.146A1.252,1.252,0,0,0-1169.82-1959.822Z" transform="translate(1174.2 1964.077)" fill="#fff"/>
      </g>
      <path id="Path_44000" data-name="Path 44000" d="M-1445.528-1690.209v-7.98h-1.987v7.98h-1.6v-4.886h-2.052v4.886h-1.5v-6.775h-2.085v6.775h-1.531v-2.964h-1.922v2.964h-1.628V-1702H-1461v12.866h17.328v-1.075Z" transform="translate(1461 1710.536)" fill="#fff"/>
      <path id="Path_44001" data-name="Path 44001" d="M-1296.12-1762l-3.3.717c.043.012.409.284.851.62l-2.939,2.963-4.4-3.387-5.087,4.918.987.782,4.252-4.1,4.291,3.257,3.764-3.768c.459.353.829.641.829.641Z" transform="translate(1313.772 1768.582)" fill="#fff"/>
    </g>
  </g>
</svg>
