<svg xmlns="http://www.w3.org/2000/svg" width="24" height="24" viewBox="0 0 24 24">
  <g id="gate_pass_press" transform="translate(21421 15809)">
    <rect id="Rectangle_14040" data-name="Rectangle 14040" width="24" height="24" transform="translate(-21421 -15809)" fill="none"/>
    <g id="Group_53732" data-name="Group 53732" transform="translate(-21419 -15805)" style="isolation: isolate">
      <path id="Path_38653" data-name="Path 38653" d="M-589.419,12.6c.41,0,.8-.006,1.2,0a.648.648,0,0,1,.684.723.633.633,0,0,1-.632.562q-.959.007-1.919-.018a.593.593,0,0,1-.621-.636c-.009-.324,0-.648,0-.993l-.273-.013v.359q.011,4.466.02,8.933a1.448,1.448,0,0,1-.043.39.747.747,0,0,1-.806.537.752.752,0,0,1-.68-.661,2.435,2.435,0,0,1-.009-.289q0-2.109,0-4.217v-.306l-.305-.022c-.008.112-.019.211-.019.31q0,2.174,0,4.348a.764.764,0,0,1-.774.841.749.749,0,0,1-.735-.6,1.859,1.859,0,0,1-.028-.366q0-3.255,0-6.509c0-.842,0-1.683,0-2.525,0-.075-.066-.149-.1-.224-.042.076-.12.152-.121.228-.016,1.035-.023,2.07-.03,3.105,0,.449-.253.736-.644.734a.643.643,0,0,1-.637-.717c.007-1.537.014-3.074.031-4.611a1.471,1.471,0,0,1,1.466-1.489q1.739-.029,3.478,0a1.5,1.5,0,0,1,1.5,1.551c.008.43,0,.861.005,1.291C-589.431,12.4-589.424,12.49-589.419,12.6Z" transform="translate(595.908 -6.414)" fill="aqua"/>
      <path id="Path_38654" data-name="Path 38654" d="M-571.354,16.883h-.845l-2.13-.005c-.219,0-.438.014-.657.008a.467.467,0,0,1-.5-.469.463.463,0,0,1,.5-.462c1.089-.005,2.179,0,3.268,0h.347c0-.259,0-.492,0-.726a.648.648,0,0,1,.734-.725q1.62,0,3.242,0c.5,0,.732.226.732.717q0,4.4,0,8.8a.627.627,0,0,1-.713.712q-1.634,0-3.268,0a.642.642,0,0,1-.726-.707q0-3.149.009-6.3C-571.353,17.458-571.354,17.188-571.354,16.883Zm2.333,3.156a1.415,1.415,0,0,0,1.43-1.411,1.425,1.425,0,0,0-1.4-1.419,1.436,1.436,0,0,0-1.433,1.413A1.425,1.425,0,0,0-569.021,20.039Zm0-4.109c.456,0,.912,0,1.369,0,.226,0,.374-.094.4-.328.019-.206-.144-.356-.395-.357q-1.342-.006-2.684,0c-.26,0-.41.134-.411.344s.149.338.41.34C-569.9,15.933-569.463,15.93-569.024,15.931Z" transform="translate(586.655 -8.695)" fill="aqua"/>
      <path id="Path_38655" data-name="Path 38655" d="M-582.651,14.5c.577,0,1.1-.007,1.629,0a.608.608,0,0,1,.616.649c.01.579.006,1.157.006,1.736q0,1.947,0,3.894c0,1.054,0,2.108,0,3.161,0,.577-.217.789-.8.789-1.063,0-2.126,0-3.188,0a.642.642,0,0,1-.724-.733q0-3.425.011-6.849c0-.138,0-.276,0-.445.6,0,1.183-.011,1.767,0a1.2,1.2,0,0,0,1.1-.637.363.363,0,0,1,.241-.136c.182-.02.368,0,.552-.007a.325.325,0,0,0,.36-.337c0-.216-.14-.33-.354-.347a.38.38,0,0,0-.079,0c-.374.046-.7.019-.842-.421C-582.394,14.712-582.527,14.633-582.651,14.5Zm-.114,5.538a1.417,1.417,0,0,0,1.422-1.419,1.426,1.426,0,0,0-1.423-1.411,1.424,1.424,0,0,0-1.407,1.424A1.417,1.417,0,0,0-582.765,20.038Z" transform="translate(591.019 -8.694)" fill="aqua"/>
      <path id="Path_38656" data-name="Path 38656" d="M-591.076,6.534A1.32,1.32,0,0,1-592.384,5.2a1.317,1.317,0,0,1,1.337-1.308,1.326,1.326,0,0,1,1.312,1.336A1.33,1.33,0,0,1-591.076,6.534Z" transform="translate(594.312 -3.888)" fill="aqua"/>
      <path id="Path_38657" data-name="Path 38657" d="M-564.372,20.612l.461.383-.51.369.178.3h-.807v-.792l.251.135Z" transform="translate(581.929 -11.464)" fill="aqua"/>
      <path id="Path_38658" data-name="Path 38658" d="M-581.577,21.452l.171.284c-.275,0-.5.005-.732,0a.159.159,0,0,1-.11-.109c-.011-.224-.005-.448-.005-.721l.269.146c.065-.061.135-.125.2-.191.245-.245.394-.228.568.083a.221.221,0,0,1-.038.195A3.99,3.99,0,0,1-581.577,21.452Z" transform="translate(589.724 -11.498)" fill="aqua"/>
    </g>
  </g>
</svg>
