<svg id="Group_53917" data-name="Group 53917" xmlns="http://www.w3.org/2000/svg" width="15.691" height="17.886" viewBox="0 0 15.691 17.886">
  <path id="Path_44093" data-name="Path 44093" d="M1292.9,698.438c.371-1.591.738-3.022,1.027-4.469.118-.593-.46-.985-.656-1.5-.078-.2-.366-.386-.234-.593.121-.19.422-.073.641-.076.7-.011,1.407,0,2.11-.008.322-.005.469.119.242.382a3.268,3.268,0,0,0-.483,3.458c.285.855.436,1.755.741,2.644q.5-1.989,1.005-3.977c.167-.66.356-1.315.488-1.982.091-.462.283-.536.733-.434a4.726,4.726,0,0,1,3.873,4.778c0,.434.013.869,0,1.3a1.672,1.672,0,0,1-1.675,1.65q-6.144.018-12.288,0a1.515,1.515,0,0,1-1.609-1.273,6.288,6.288,0,0,1,.563-4.215,4.9,4.9,0,0,1,3.389-2.287c.408-.08.5.131.574.448.447,1.822.906,3.641,1.362,5.461C1292.747,697.929,1292.8,698.1,1292.9,698.438Z" transform="translate(-1286.706 -681.738)" fill="#0098bf"/>
  <path id="Path_44094" data-name="Path 44094" d="M1314,615.445a4.459,4.459,0,0,1,4.461-4.439,4.47,4.47,0,1,1-4.461,4.439Z" transform="translate(-1310.612 -611.006)" fill="#0098bf"/>
</svg>
