<svg id="Group_53918" data-name="Group 53918" xmlns="http://www.w3.org/2000/svg" width="14.242" height="16.274" viewBox="0 0 14.242 16.274">
  <path id="Path_44080" data-name="Path 44080" d="M910.243,516.264l-.015,1.005q-7.019,0-14.039.005c-.153,0-.186-.051-.183-.191.007-.272,0-.545-.005-.818.008-.1.015-.2.022-.294a.529.529,0,0,1,.51-.228c.463.009.463,0,.454-.466,0-.018,0-.037,0-.055q0-.5,0-1v-1.005q0-.52,0-1.041,0-.5,0-1.005v-3.051q0-.5,0-1.005v-1.041q0-.5,0-1.005t0-1q0-.521,0-1.042c0-.335.028-1.365.043-1.546a1.336,1.336,0,0,1,.437-.431,1.32,1.32,0,0,1,.386-.038q5.279,0,10.558,0a.806.806,0,0,1,.784.453,1.661,1.661,0,0,1,.07.56v1.005q0,.521,0,1.041v11.2c0,.019,0,.037,0,.056-.008.43-.007.438.418.427a.561.561,0,0,1,.547.227Zm-4.072-13.717-1,0-1.044,0h-2.009l-1.041,0H900.07l-1.006,0-.055,0c-.483,0-.483,0-.461.49q0,.52,0,1.041l0,1.006v1q0,.521,0,1.042v3.051l0,1v1.005a4.214,4.214,0,0,0,0,1.042v1a3.981,3.981,0,0,0,0,1.007c-.017.5-.017.5.488.487l.037,0h2.01c.209,0,.418,0,.627,0,.445,0,.445,0,.4-.453q.025-.519,0-1.038c0-.2.008-.4.011-.594a.382.382,0,0,1,.416-.414l.594-.009c.2,0,.405,0,.608.008a.366.366,0,0,1,.4.4c0,.2.008.4.012.607a7.9,7.9,0,0,0,0,1.009c-.034.118.023.233.009.351s.039.14.141.138c.291-.006.583,0,.874-.006h2.01c.049,0,.1,0,.147,0,.451,0,.451,0,.39-.454a7.755,7.755,0,0,0,0-1.037,6.942,6.942,0,0,0,0-1.01,7.754,7.754,0,0,0,0-1.037,7.021,7.021,0,0,0,0-1.01,7.226,7.226,0,0,0,0-1,2188.595,2188.595,0,0,0,0-2.046,6.882,6.882,0,0,0,0-1.01,7.692,7.692,0,0,0,0-1.038,6.716,6.716,0,0,0,0-1.007,7.341,7.341,0,0,0,0-1,5.753,5.753,0,0,0-.009-1.046c.008-.5.008-.5-.491-.473a.269.269,0,0,0-.036.008A9.718,9.718,0,0,0,906.171,502.546Z" transform="translate(-896.001 -501)" fill="#0098bf"/>
  <path id="Path_44081" data-name="Path 44081" d="M915.686,524.9a.969.969,0,0,1-.224-.222,5.292,5.292,0,0,1-.034-.783c0-.2,0-.4.005-.594a.4.4,0,0,1,.422-.414l.612-.009.593.01a.383.383,0,0,1,.414.415c0,.2.005.4.008.594s0,.405-.007.608a.366.366,0,0,1-.4.4l-.607.014Z" transform="translate(-907.302 -513.726)" fill="#0098bf"/>
  <path id="Path_44082" data-name="Path 44082" d="M907.766,523.893c0,.173,0,.346-.005.519-.006.308-.137.521-.5.5-.178-.013-.358.006-.537.01a5.1,5.1,0,0,0-.63-.015.35.35,0,0,1-.378-.38c0-.21,0-.421-.007-.631s0-.408.007-.612a.373.373,0,0,1,.392-.4c.2-.005.407-.006.611-.009s.383.008.574.009a.414.414,0,0,1,.464.452C907.765,523.522,907.764,523.708,907.766,523.893Z" transform="translate(-901.65 -513.727)" fill="#0098bf"/>
  <path id="Path_44083" data-name="Path 44083" d="M916.468,508.264a4.188,4.188,0,0,0,.593.015.389.389,0,0,1,.414.417c0,.2.005.4.008.595s0,.408-.007.612a.373.373,0,0,1-.393.4c-.2.005-.408.008-.612.011s-.42-.006-.629-.011a.37.37,0,0,1-.386-.325,5.314,5.314,0,0,1-.028-.683,3.948,3.948,0,0,1,.045-.814l.188-.186Z" transform="translate(-907.302 -505.226)" fill="#0098bf"/>
  <path id="Path_44084" data-name="Path 44084" d="M905.712,509.29c0-.2,0-.409.007-.613a.368.368,0,0,1,.39-.4c.2-.006.408-.01.612-.014a3.645,3.645,0,0,0,.57.014.413.413,0,0,1,.47.458c0,.184,0,.368,0,.553s0,.393-.005.589a.4.4,0,0,1-.428.42l-.607.011-.592-.012a.388.388,0,0,1-.414-.417C905.715,509.684,905.714,509.487,905.712,509.29Z" transform="translate(-901.65 -505.227)" fill="#0098bf"/>
  <path id="Path_44085" data-name="Path 44085" d="M906.723,517.611l-.593-.011a.374.374,0,0,1-.411-.416c0-.2,0-.4-.006-.594s0-.395.007-.592a.389.389,0,0,1,.414-.418l.592-.013.594.012a.4.4,0,0,1,.442.435c0,.192,0,.384.005.576s0,.359-.005.538a.416.416,0,0,1-.464.471C907.105,517.6,906.914,517.607,906.723,517.611Z" transform="translate(-901.65 -509.474)" fill="#0098bf"/>
  <path id="Path_44086" data-name="Path 44086" d="M915.428,516.591c0-.185,0-.371.005-.556a.414.414,0,0,1,.463-.453c.191,0,.382-.008.574-.012s.409.006.613.012a.366.366,0,0,1,.392.4c0,.2,0,.409.008.614s0,.4-.008.594a.383.383,0,0,1-.413.416l-.594.013-.806-.023-.189-.185A3.892,3.892,0,0,1,915.428,516.591Z" transform="translate(-907.302 -509.476)" fill="#0098bf"/>
</svg>
