<svg id="Group_53900" data-name="Group 53900" xmlns="http://www.w3.org/2000/svg" width="20.409" height="17.887" viewBox="0 0 20.409 17.887">
  <path id="Path_44090" data-name="Path 44090" d="M1518.956,480.839c-.189,0-.379-.013-.567,0-.65.052-.927-.253-.989-.892a1.412,1.412,0,0,0-2.055-1.149c-.45.253-.744.242-1.063-.221a10.025,10.025,0,0,1-.878-1.529.608.608,0,0,1,.3-.918,1.431,1.431,0,0,0,.016-2.509c-.393-.23-.538-.454-.328-.909a11.006,11.006,0,0,1,.873-1.532c.34-.505.66-.477,1.122-.207a1.427,1.427,0,0,0,2-1.087c.047-.687.318-1.044,1.05-.985.423.034.852-.006,1.276.014.734.035.971.255.881.962-.058.453,0,.716.476.834a1.233,1.233,0,0,1,.482.29.676.676,0,0,0,.99.027.733.733,0,0,1,1.263.257c.19.352.462.662.627,1.023.411.9.4.905-.449,1.468-.561.374-.561,1.926.056,2.2.742.33.79.763.429,1.382-.142.244-.249.511-.413.739-.721,1-.7,1.193-1.742.486a.428.428,0,0,0-.566.038,7.166,7.166,0,0,1-.923.516.4.4,0,0,0-.264.432c.02,1.212-.034,1.258-1.254,1.276-.118,0-.236,0-.355,0Zm1.968-5.926a1.919,1.919,0,1,0-1.9,1.929A2.008,2.008,0,0,0,1520.924,474.913Z" transform="translate(-1504.291 -463.378)" fill="#0098bf"/>
  <path id="Path_44091" data-name="Path 44091" d="M1461.9,509.656h-2.372q-3.727,0-7.453,0a2.037,2.037,0,0,1-2.213-2.193,4.887,4.887,0,0,1,1.63-4.332,3.7,3.7,0,0,1,3.985-.868,4.539,4.539,0,0,0,1.874.318,1.128,1.128,0,0,1,.682.121c.7.44.718.5.1,1.046a1.547,1.547,0,0,0-.485,1.785,6.783,6.783,0,0,0,1.636,2.7,1.369,1.369,0,0,0,1.628.34c.694-.338.815-.022.88.536C1461.814,509.27,1461.854,509.427,1461.9,509.656Z" transform="translate(-1449.85 -491.77)" fill="#0098bf"/>
  <path id="Path_44092" data-name="Path 44092" d="M1481.4,434.508a4.283,4.283,0,0,1-.009.777,2.545,2.545,0,0,1-.3.936c-.284.425-.567-.057-.856-.1a1.711,1.711,0,0,0-1.657.575,5.812,5.812,0,0,0-1.136,1.781.656.656,0,0,1-.809.475,4.586,4.586,0,0,1-3.988-3.5,4.512,4.512,0,0,1,2.149-4.842,4.358,4.358,0,0,1,5.337.716A3.968,3.968,0,0,1,1481.4,434.508Z" transform="translate(-1469.316 -430.019)" fill="#0098bf"/>
</svg>
