<svg xmlns="http://www.w3.org/2000/svg" width="24" height="24" viewBox="0 0 24 24">
  <g id="inventory_press" transform="translate(21421 15642)">
    <rect id="Rectangle_14043" data-name="Rectangle 14043" width="24" height="24" transform="translate(-21421 -15642)" fill="none"/>
    <g id="Group_53735" data-name="Group 53735" transform="translate(-21419 -15640)">
      <g id="Group_52291" data-name="Group 52291" transform="translate(0 1.693)">
        <path id="Path_43942" data-name="Path 43942" d="M1563.507-1844.223h4.032c.359,0,.428.069.428.431q0,5.435,0,10.87v6.534c0,.4-.064.464-.453.464l-8.826-.006a.61.61,0,0,0,.143-.449,16.035,16.035,0,0,1,.026-1.623c2.2,0,4.394,0,6.591,0,.215,0,.271-.059.274-.272.012-.912.014-1.824.017-2.735,0-1.139-.014-2.28-.019-3.42-.011-2.478-.006-4.957,0-7.435,0-.217-.042-.3-.277-.291-.644.017-1.289.007-1.933.007C1563.474-1842.838,1563.481-1843.531,1563.507-1844.223Z" transform="translate(-1548.642 1844.223)" fill="aqua"/>
        <path id="Path_43943" data-name="Path 43943" d="M1356.546-1665.119a16.1,16.1,0,0,0-.026,1.623.61.61,0,0,1-.143.449c-.081,0-.162.013-.244.013h-9.289c-.46,0-.514-.054-.514-.519q0-2.206,0-4.413c0-.395.059-.454.46-.454.526,0,1.053-.007,1.579.009.25.008.345-.057.342-.329-.014-1.334-.007-2.669-.006-4,0-.415.06-.473.468-.477.463,0,.925-.012,1.387-.018a18.572,18.572,0,0,0,2.084-.013c.318,0,.635.011.952.013.433,0,.493.061.493.483,0,1.352,0,2.7,0,4.057,0,.2.048.267.259.262.572-.013,1.144,0,1.716,0,.4,0,.468.077.469.483Q1356.538-1666.535,1356.546-1665.119Zm-2.739,1.5c.635,0,1.271,0,1.907,0,.139,0,.243,0,.243-.194q-.009-1.934,0-3.869c0-.149-.065-.186-.2-.182-.236.006-.473.009-.708,0-.174-.008-.247.051-.239.233.011.263.006.526,0,.79,0,.291-.086.376-.372.379q-.6.006-1.2,0c-.291,0-.385-.1-.39-.4,0-.254-.009-.509,0-.763.007-.17-.038-.252-.226-.241a6.029,6.029,0,0,1-.681,0c-.178-.009-.237.056-.237.234q.008,1.88,0,3.76c0,.212.08.259.273.255C1352.589-1663.622,1353.2-1663.615,1353.807-1663.615Zm-2.657-2.086c0-.635,0-1.271,0-1.906,0-.177-.054-.245-.234-.235-.235.012-.472.01-.708,0-.156-.005-.208.057-.2.208.008.263,0,.526,0,.79,0,.292-.085.381-.367.384q-.613.007-1.226,0c-.276,0-.365-.1-.369-.386,0-.263-.007-.527,0-.79.006-.162-.05-.232-.218-.225-.236.009-.472.01-.708,0-.168-.007-.22.063-.219.224q.006,1.893,0,3.786c0,.174.053.239.234.238q1.893-.009,3.786,0c.184,0,.231-.065.229-.238C1351.145-1664.467,1351.149-1665.084,1351.149-1665.7Zm.227-2.722h0c.626,0,1.251-.01,1.877.006.215.005.268-.071.261-.266-.007-.171.028-.343.027-.514-.007-.989-.02-1.978-.031-2.967,0-.1,0-.2,0-.3.007-.139-.055-.2-.193-.194-.245,0-.491.008-.735,0-.165-.007-.2.073-.195.215.007.272,0,.545,0,.818,0,.247-.111.372-.362.371-.418,0-.836,0-1.254,0-.254,0-.363-.129-.365-.371s-.009-.509,0-.763c.008-.182-.045-.269-.243-.256a5.13,5.13,0,0,1-.626,0c-.183-.01-.257.046-.256.243q.01,1.878,0,3.757c0,.18.061.233.239.23C1350.142-1668.429,1350.759-1668.423,1351.376-1668.423Z" transform="translate(-1346.329 1681.341)" fill="aqua"/>
        <path id="Path_43945" data-name="Path 43945" d="M1440.049-1844.192q.042,1.039,0,2.077c-.662,0-1.323,0-1.985-.005-.173,0-.234.038-.233.223.008,1.931.006,3.862.008,5.793a18.57,18.57,0,0,1-2.084.013q0-3.808,0-7.615c0-.427.058-.484.487-.484Z" transform="translate(-1431.523 1844.194)" fill="aqua"/>
        <path id="Path_43950" data-name="Path 43950" d="M1595.691-1724.354c.625,0,1.251.014,1.875-.006.277-.009.216.156.229.311.016.182-.01.276-.238.274-1.25-.012-2.5-.014-3.751,0-.26,0-.239-.125-.243-.3s0-.3.252-.289C1594.44-1724.34,1595.065-1724.354,1595.691-1724.354Z" transform="translate(-1581.865 1730.032)" fill="aqua"/>
        <path id="Path_43951" data-name="Path 43951" d="M1595.609-1612.528c.625,0,1.251.005,1.876,0,.167,0,.216.071.188.21s.121.365-.171.366c-1.288,0-2.576,0-3.863,0-.266,0-.157-.188-.168-.307s-.057-.275.178-.271C1594.3-1612.52,1594.955-1612.528,1595.609-1612.528Z" transform="translate(-1581.765 1623.494)" fill="aqua"/>
        <path id="Path_43952" data-name="Path 43952" d="M1595.677-1668.3c.635,0,1.27.011,1.9-.005.266-.007.2.16.208.3s.022.274-.211.272q-1.9-.016-3.808,0c-.267,0-.2-.161-.207-.3s-.023-.278.21-.273C1594.408-1668.294,1595.043-1668.3,1595.677-1668.3Z" transform="translate(-1581.863 1676.632)" fill="aqua"/>
        <path id="Path_43953" data-name="Path 43953" d="M1526.67-1677.564a.187.187,0,0,1-.088.171q-.487.492-.978.98a.3.3,0,0,1-.474,0c-.179-.179-.355-.362-.54-.535-.09-.084-.093-.167.009-.211.137-.059.152-.4.4-.185.385.334.382.337.738-.017.128-.128.252-.26.386-.382.06-.055.1-.192.205-.127A2.5,2.5,0,0,1,1526.67-1677.564Z" transform="translate(-1516.092 1685.753)" fill="aqua"/>
        <path id="Path_43954" data-name="Path 43954" d="M1526.956-1733.25c-.088.1-.123.138-.161.176-.314.315-.631.628-.943.945a.313.313,0,0,1-.515.008c-.164-.17-.326-.342-.5-.5-.114-.1-.09-.162.005-.259.271-.276.279-.291.54,0,.161.179.261.187.417,0,.174-.208.378-.391.572-.582.06-.059.115-.161.224-.078S1526.833-1733.348,1526.956-1733.25Z" transform="translate(-1516.317 1738.803)" fill="aqua"/>
        <path id="Path_43955" data-name="Path 43955" d="M1525.952-1620.172a.36.36,0,0,1-.233-.125l-.365-.365c-.286-.286-.272-.369.065-.6.111-.077.144.009.2.058.363.332.363.333.714-.019.153-.154.311-.3.459-.462.081-.087.135-.078.221,0,.311.28.314.276.027.563q-.4.4-.806.807A.373.373,0,0,1,1525.952-1620.172Z" transform="translate(-1516.691 1632.275)" fill="aqua"/>
      </g>
      <path id="Path_44002" data-name="Path 44002" d="M1532.871-1878.307c-.026.693-.033,1.385,0,2.078-.055.072-.034.157-.035.237-.006.453-.043.49-.5.49-1.713,0-3.426,0-5.138,0-.494,0-.693.081-.654-.648a.383.383,0,0,0-.012-.08q.041-1.038,0-2.077c.033-.257.186-.345.435-.334.3.013.6,0,.9.005a.23.23,0,0,0,.267-.194,1.611,1.611,0,0,1,1.583-1.171,1.618,1.618,0,0,1,1.561,1.167c.047.149.112.2.265.2.3-.01.6.007.9-.005C1532.684-1878.651,1532.838-1878.565,1532.871-1878.307Z" transform="translate(-1518.005 1880)" fill="aqua"/>
    </g>
  </g>
</svg>
