<svg xmlns="http://www.w3.org/2000/svg" width="24" height="24" viewBox="0 0 24 24">
  <g id="medical_press" transform="translate(21421 15922)">
    <rect id="Rectangle_14038" data-name="Rectangle 14038" width="24" height="24" transform="translate(-21421 -15922)" fill="none"/>
    <g id="Group_53730" data-name="Group 53730" transform="translate(-21419 -15920)">
      <path id="Path_44003" data-name="Path 44003" d="M2000.526-1877q0,3.1,0,6.2c0,.126.032.161.16.161,2.012,0,4.024,0,6.036-.006.136,0,.18.029.179.174q-.01,1.509,0,3.018c0,.14-.041.166-.171.165-.653-.006-1.307,0-1.961-.006a.3.3,0,0,0-.309.166c-.042.08-.1.152-.178.265-.024-.2-.045-.371-.063-.538q-.157-1.454-.313-2.908a.233.233,0,0,0-.03-.132.085.085,0,0,0-.093-.038c-.069.018-.076.076-.081.132q-.054.572-.107,1.144-.189,2.028-.378,4.056a.311.311,0,0,1-.041.135q-.125-.675-.249-1.35-.157-.858-.313-1.717c-.012-.065-.016-.143-.1-.15s-.1.071-.121.133c-.073.212-.154.422-.218.637a.175.175,0,0,1-.2.147c-1.333,0-2.666,0-4-.008a.4.4,0,0,0-.42.222,1.5,1.5,0,0,1-.141.194c-.054-.457-.1-.881-.153-1.3q-.124-1.065-.246-2.129c-.008-.069-.016-.143-.1-.142s-.094.08-.1.146q-.1,1.052-.2,2.1c-.1,1.077-.2,2.154-.331,3.235-.051-.27-.1-.539-.153-.809q-.2-1.106-.409-2.212c-.012-.067-.01-.158-.1-.164s-.1.084-.128.148c-.072.2-.148.392-.208.592-.031.1-.085.127-.187.127-1.037,0-2.073,0-3.11-.006a.36.36,0,0,0-.355.178,2.65,2.65,0,0,1-.191.243c-.043-.382-.083-.728-.122-1.075q-.129-1.157-.258-2.313c0-.031-.01-.061-.013-.091-.005-.057-.031-.1-.091-.1s-.1.047-.1.11c-.018.188-.037.376-.055.564q-.22,2.332-.44,4.665c0,.044,0,.093-.043.135-.126-.687-.252-1.368-.377-2.05q-.094-.512-.187-1.024c-.011-.062-.022-.128-.1-.134s-.1.061-.116.12c-.079.226-.163.451-.237.678a.125.125,0,0,1-.142.1c-.531,0-1.062,0-1.593,0-.109,0-.123-.044-.123-.135,0-1.016,0-2.032,0-3.049,0-.129.046-.148.158-.147q2.979,0,5.959,0c.251,0,.22.033.22-.219q0-3.071,0-6.143c.418,0,.836,0,1.254,0h5.337C2000.414-1877,2000.47-1877,2000.526-1877Z" transform="translate(-1987.43 1877)" fill="aqua"/>
      <path id="Path_44004" data-name="Path 44004" d="M1993.782-1715.218q0-3.094,0-6.188c0-.14-.04-.167-.171-.167-2,0-4,0-6,.007-.155,0-.194-.039-.193-.194q.011-1.432,0-2.864c0-.129.035-.161.161-.159.541.007,1.083,0,1.624.006a.2.2,0,0,0,.231-.164,1.942,1.942,0,0,1,.171-.417q.093.5.186,1l.441,2.409c0,.015.008.03.01.045.01.064.026.129.1.126s.09-.065.1-.132c.028-.305.059-.61.088-.915q.189-2,.379-3.994a.244.244,0,0,1,.043-.161c.053.469.1.925.155,1.38.046.406.089.812.136,1.217.007.059,0,.131.074.156s.116-.043.157-.094c.121-.151.213-.363.37-.437a1.471,1.471,0,0,1,.588-.026c.909,0,1.818,0,2.727,0,.139,0,.217-.037.252-.178a1.261,1.261,0,0,1,.159-.363c.074.4.15.8.223,1.193q.2,1.1.406,2.2c.012.069.016.158.114.153s.092-.092.1-.163q.233-2.477.467-4.955c0-.033-.006-.074.042-.094q.128,1.1.255,2.2c.018.157.039.314.056.471a.11.11,0,0,0,.069.108c.061.021.1-.019.125-.062.085-.121.176-.239.253-.365a.286.286,0,0,1,.283-.152c1.358.006,2.716,0,4.074.007.154,0,.234-.042.271-.195a1.543,1.543,0,0,1,.163-.395q.154.839.308,1.677c.106.582.211,1.165.319,1.747.01.053.007.115.06.152.071.05.139,0,.15-.12q.078-.816.153-1.631.154-1.655.309-3.309a.09.09,0,0,1,.014-.027c.062.012.038.064.041.1q.137,1.233.27,2.466c.006.061,0,.129.076.152s.107-.041.142-.09l.026-.038c.112-.151.175-.371.334-.445a1.4,1.4,0,0,1,.544-.022c.5,0,1,.005,1.5,0,.14,0,.167.043.167.173q-.008,1.417,0,2.834c0,.154-.046.182-.189.181q-2.972-.007-5.944,0c-.194,0-.194,0-.194.2q0,3.079,0,6.158c-.3,0-.592,0-.887,0h-5.722C1993.894-1715.213,1993.838-1715.216,1993.782-1715.218Z" transform="translate(-1987.418 1735.213)" fill="aqua"/>
    </g>
  </g>
</svg>
