<svg xmlns="http://www.w3.org/2000/svg" width="24" height="24" viewBox="0 0 24 24">
  <g id="online_press" transform="translate(21421 16037)">
    <rect id="Rectangle_14036" data-name="Rectangle 14036" width="24" height="24" transform="translate(-21421 -16037)" fill="none"/>
    <g id="Group_54012" data-name="Group 54012" transform="translate(-21536.832 -16136.746)">
      <path id="Path_44099" data-name="Path 44099" d="M132.457,110.08c-.007-.141-.015-.21-.015-.28q0-3.316,0-6.631a1.3,1.3,0,0,1,1.045-1.388,1.755,1.755,0,0,1,.389-.032q6.522,0,13.044,0a1.312,1.312,0,0,1,1.419,1.413q0,4.428,0,8.856a1.313,1.313,0,0,1-1.383,1.435c-1.432.019-2.865.006-4.3.006h-.044c-.329-.028-.454-.286-.431-.891.008-.219.157-.339.444-.339q1.963-.005,3.926,0c.425,0,.554-.119.555-.539q0-4.079,0-8.158c0-.409-.13-.543-.533-.543q-6.184,0-12.367,0c-.405,0-.537.135-.537.539,0,1.643,0,3.286,0,4.929a.963.963,0,0,1-.35.8C133.042,109.5,132.78,109.77,132.457,110.08Z" transform="translate(-10.509 0)" fill="aqua"/>
      <path id="Path_44100" data-name="Path 44100" d="M136.932,133.665a4.912,4.912,0,1,1,4.89-4.947A4.924,4.924,0,0,1,136.932,133.665Zm-4.2-4.913a4.172,4.172,0,1,0,4.017-4.16A4.168,4.168,0,0,0,132.736,128.752Z" transform="translate(-10.19 -15.895)" fill="aqua"/>
      <path id="Path_44101" data-name="Path 44101" d="M117.833,159.757a1.232,1.232,0,0,1,.386-.887q1.232-1.232,2.467-2.463c.329-.327.264-.388.645,0s.747.752,1.127,1.122c.123.12.143.211.01.343-.878.868-1.748,1.744-2.624,2.613a1.126,1.126,0,0,1-1.332.276A1.168,1.168,0,0,1,117.833,159.757Z" transform="translate(0 -39.129)" fill="aqua"/>
      <path id="Path_44102" data-name="Path 44102" d="M161.428,153.839c.1-.11.164-.17.219-.235a4.849,4.849,0,0,0,.64-.768.8.8,0,0,1,.851-.428c.748.025,1.5,0,2.246.01a1.067,1.067,0,0,1,1.114,1.154c0,.181-.066.263-.256.264-.661,0-1.323.015-1.984.018-.836,0-1.672,0-2.508,0C161.665,153.854,161.58,153.846,161.428,153.839Z" transform="translate(-31.361 -36.444)" fill="aqua"/>
      <path id="Path_44103" data-name="Path 44103" d="M163.471,123.95a1.626,1.626,0,0,1,1.448-1.364,4.978,4.978,0,0,1,1.362.04,1.606,1.606,0,0,1,1.236,1.113,1.585,1.585,0,0,1,.047.21Z" transform="translate(-32.831 -14.971)" fill="aqua"/>
      <path id="Path_44104" data-name="Path 44104" d="M143.8,115.78q-1.341,0-2.683,0c-.283,0-.3-.015-.29-.3.008-.446.008-.446.455-.446,1.716,0,3.431,0,5.147,0,.115,0,.318.036.327.085a1.728,1.728,0,0,1,0,.576c-.005.037-.161.073-.248.073C145.6,115.782,144.7,115.78,143.8,115.78Z" transform="translate(-16.541 -9.561)" fill="aqua"/>
      <path id="Path_44105" data-name="Path 44105" d="M169.078,113.66a1.055,1.055,0,0,1-1.043,1.062,1.07,1.07,0,0,1-1.073-1.063,1.058,1.058,0,1,1,2.116,0Z" transform="translate(-35.342 -7.809)" fill="aqua"/>
      <path id="Path_44106" data-name="Path 44106" d="M148.025,110.783c-.668,0-1.335,0-2,0-.181,0-.253-.05-.261-.246-.02-.514-.022-.506.5-.5,1.2.011,2.4.005,3.593.006.094,0,.189,0,.283,0,.043,0,.118.012.121.028a2.985,2.985,0,0,1,.074.56c0,.146-.139.161-.263.16-.682,0-1.364,0-2.046,0Z" transform="translate(-20.086 -5.964)" fill="aqua"/>
      <path id="Path_44107" data-name="Path 44107" d="M167.8,146.383c-.239,0-.479,0-.718,0-.157,0-.181-.063-.142-.2.095-.341.181-.685.263-1.029.029-.123.081-.19.219-.187.363.006.725,0,1.088,0,.139,0,.2.057.194.2,0,.348,0,.7,0,1.045,0,.13-.058.182-.185.179C168.276,146.38,168.037,146.383,167.8,146.383Z" transform="translate(-35.313 -31.089)" fill="aqua"/>
      <path id="Path_44108" data-name="Path 44108" d="M133.74,154.675a.861.861,0,0,1-.08.116c-.163.166-.331.327-.493.494-.085.087-.153.074-.241,0-.473-.411-.477-.412-.031-.855.334-.332.248-.376.617.007C133.587,154.512,133.66,154.591,133.74,154.675Z" transform="translate(-10.598 -37.707)" fill="aqua"/>
      <path id="Path_44109" data-name="Path 44109" d="M141.17,110.836c-.332,0-.361-.028-.361-.357s.027-.369.373-.368c.324,0,.352.028.353.343C141.536,110.8,141.5,110.835,141.17,110.836Z" transform="translate(-16.529 -6.017)" fill="aqua"/>
      <path id="Path_44110" data-name="Path 44110" d="M143.833,140.21a1.616,1.616,0,0,1-.149-.115c-.331-.326-.656-.658-.99-.98-.112-.108-.1-.185,0-.286.537-.513.341-.509.851-.014.288.28.219.359.574,0q.8-.8,1.6-1.606c.2-.2.223-.2.414,0l.03.032c.326.341.326.341,0,.669q-1.072,1.069-2.144,2.136C143.962,140.1,143.9,140.152,143.833,140.21Z" transform="translate(-17.827 -25.405)" fill="aqua"/>
    </g>
  </g>
</svg>
