<svg id="PRP_Logo" data-name="PRP Logo" xmlns="http://www.w3.org/2000/svg" width="103.4" height="48.942" viewBox="0 0 103.4 48.942">
  <g id="Group_47789" data-name="Group 47789" transform="translate(3.674 3.27)">
    <path id="Path_41959" data-name="Path 41959" d="M2,0H34.241a2,2,0,0,1,2,2V40.355a2,2,0,0,1-2,2H2a2,2,0,0,1-2-2V2A2.28,2.28,0,0,1,.339.886,1.869,1.869,0,0,1,2,0Z" transform="translate(0)" fill="#02c94a"/>
    <g id="Group_47788" data-name="Group 47788" transform="translate(5.333 4.274)">
      <path id="Path_27334" data-name="Path 27334" d="M1601.242,1617.349a10.64,10.64,0,0,1-2.126,6.611,12.576,12.576,0,0,1-5.851,4.225,20.869,20.869,0,0,1-4.636,1.178,39.342,39.342,0,0,1-5.194.423l.085,10.689-8.358.03c.011-1.532.025-4.869.041-7.521s.014-6.636-.006-11.956q-.01-2.854-.05-6.931t-.107-8.648q1.213-.029,2.7-.048t2.755-.022a60.518,60.518,0,0,1,8.608.448,19.245,19.245,0,0,1,5.6,1.646,11.581,11.581,0,0,1,4.817,3.959A10.349,10.349,0,0,1,1601.242,1617.349Zm-8.583.562a6.408,6.408,0,0,0-.883-3.381,6.081,6.081,0,0,0-2.647-2.288,7.136,7.136,0,0,0-2.54-.736,26.746,26.746,0,0,0-2.74-.129h-.758q0,.354-.015,2.942t-.01,4.2l.014,3.8.009,2.436h.808a18.973,18.973,0,0,0,2.714-.225,7.864,7.864,0,0,0,2.459-.729,6.613,6.613,0,0,0,2.681-2.244A6.451,6.451,0,0,0,1592.659,1617.911Z" transform="translate(-1575.04 -1605.38)" fill="#fff"/>
    </g>
  </g>
  <path id="Path_27335" data-name="Path 27335" d="M1618.854,1686.706a3.226,3.226,0,0,0-1.338-1.108,5.371,5.371,0,0,0-1.56-.465,16.853,16.853,0,0,0-2.4-.134c-.22,0-.46,0-.717,0-.184,0-.363,0-.535,0q-1.051,0-1.823.063a6.047,6.047,0,0,0-1.456.3,2.9,2.9,0,0,0-1.456.955,2.3,2.3,0,0,0-.476,1.421,2.435,2.435,0,0,0,.5,1.544,4.045,4.045,0,0,0,1.022.966v.042q-.731.924-1.562,1.879c-.553.637-2.056,2.487-2.056,2.487l2.916.013q.261-.381,1.029-1.361t2.332-3.039l-.035-.141a2.739,2.739,0,0,1-.614-.24,2.523,2.523,0,0,1-.635-.437,1.928,1.928,0,0,1-.395-.55,1.763,1.763,0,0,1-.134-.741,1.369,1.369,0,0,1,.222-.769,1.32,1.32,0,0,1,.61-.5,2.206,2.206,0,0,1,.656-.166q.338-.032.655-.032h.424q.007.839.01,1.717t0,1.576q0,1.15-.007,2.514t-.014,1.971h2.334v-.033h.008l-.014-2.632a10.934,10.934,0,0,0,1.448-.112,5.82,5.82,0,0,0,1.293-.324,3.506,3.506,0,0,0,1.635-1.172,2.964,2.964,0,0,0,.6-1.84A2.882,2.882,0,0,0,1618.854,1686.706Zm-2.177,2.815a1.844,1.844,0,0,1-.749.623,2.208,2.208,0,0,1-.686.2,5.305,5.305,0,0,1-.757.06h-.155v-.771q0-.564,0-1.615,0-.55.009-1.343h.143a7.438,7.438,0,0,1,.763.039,1.991,1.991,0,0,1,.707.207,1.7,1.7,0,0,1,.735.641,2.044,2.044,0,0,1-.014,1.96Z" transform="translate(-1585.254 -1652.067)" fill="#fff"/>
  <path id="Path_27337" data-name="Path 27337" d="M1688.587,1622.386a.6.6,0,0,1-.473-.2.881.881,0,0,1-.181-.6v-5.551a.841.841,0,0,1,.2-.631.938.938,0,0,1,.649-.185h1.872a4.86,4.86,0,0,1,1.256.125,1.826,1.826,0,0,1,.734.391,1.771,1.771,0,0,1,.468.668,2.389,2.389,0,0,1,.161.9,1.985,1.985,0,0,1-.65,1.608,3.023,3.023,0,0,1-1.969.549h-1.414v2.116a.882.882,0,0,1-.186.61A.6.6,0,0,1,1688.587,1622.386Zm.649-3.872h1.06a3.013,3.013,0,0,0,.885-.112,1.089,1.089,0,0,0,.568-.381,1.138,1.138,0,0,0,.2-.69,1.172,1.172,0,0,0-.3-.829,1.909,1.909,0,0,0-1.349-.344h-1.06Z" transform="translate(-1645.322 -1604.609)" fill="#fff"/>
  <path id="Path_27338" data-name="Path 27338" d="M1713.069,1626.5a.518.518,0,0,1-.354-.173,2.834,2.834,0,0,1-.415-.547l-.045-.074-.069.053a4.1,4.1,0,0,1-.923.557,2.562,2.562,0,0,1-.99.183,1.866,1.866,0,0,1-.87-.2,1.423,1.423,0,0,1-.571-.524,1.363,1.363,0,0,1-.2-.716,1.285,1.285,0,0,1,.328-.887,1.677,1.677,0,0,1,.917-.5q.129-.03.632-.133t.87-.19q.363-.086.787-.21l.059-.017,0-.061a1.48,1.48,0,0,0-.229-.823,1.014,1.014,0,0,0-.846-.279,1.687,1.687,0,0,0-.806.152,1.324,1.324,0,0,0-.47.453,4.133,4.133,0,0,1-.255.368c-.02.024-.081.063-.267.063a.491.491,0,0,1-.339-.126.4.4,0,0,1-.138-.312,1.062,1.062,0,0,1,.235-.641,1.722,1.722,0,0,1,.748-.525,3.461,3.461,0,0,1,1.292-.21,3.68,3.68,0,0,1,1.361.2,1.223,1.223,0,0,1,.673.621,2.825,2.825,0,0,1,.2,1.166q0,.471,0,.8l-.008.732a2.772,2.772,0,0,0,.129.812,2.33,2.33,0,0,1,.122.505.417.417,0,0,1-.167.317A.571.571,0,0,1,1713.069,1626.5Zm-.951-2.692a6.608,6.608,0,0,1-.846.225c-.377.081-.637.14-.782.178a1.14,1.14,0,0,0-.443.237.641.641,0,0,0-.224.519.758.758,0,0,0,.256.575.934.934,0,0,0,.657.234,1.655,1.655,0,0,0,.77-.183,1.24,1.24,0,0,0,.525-.48,2.1,2.1,0,0,0,.192-1.041v-.3Z" transform="translate(-1659.576 -1608.725)" fill="#fff"/>
  <path id="Path_27339" data-name="Path 27339" d="M1730.929,1626.524a.535.535,0,0,1-.419-.181.81.81,0,0,1-.166-.557v-3.733c0-.556.188-.826.575-.826a.469.469,0,0,1,.417.178,1.1,1.1,0,0,1,.148.582l.009.269.136-.233a2.272,2.272,0,0,1,.476-.6.951.951,0,0,1,.626-.193,1.661,1.661,0,0,1,.784.2.555.555,0,0,1,.357.491.455.455,0,0,1-.145.349.446.446,0,0,1-.312.138,1.553,1.553,0,0,1-.333-.087,1.734,1.734,0,0,0-.522-.094.81.81,0,0,0-.531.172,1.076,1.076,0,0,0-.314.495,3.339,3.339,0,0,0-.146.742c-.026.281-.04.628-.04,1.031v1.12a.8.8,0,0,1-.17.558A.557.557,0,0,1,1730.929,1626.524Z" transform="translate(-1674.524 -1608.747)" fill="#fff"/>
  <path id="Path_27340" data-name="Path 27340" d="M1746.3,1622.114a.527.527,0,0,1-.42-.184.823.823,0,0,1-.165-.553v-5.816a.833.833,0,0,1,.161-.558.529.529,0,0,1,.425-.18.556.556,0,0,1,.434.179.809.809,0,0,1,.167.559v5.816a.8.8,0,0,1-.168.559A.559.559,0,0,1,1746.3,1622.114Z" transform="translate(-1685.106 -1604.337)" fill="#fff"/>
  <path id="Path_27341" data-name="Path 27341" d="M1756.665,1622.244a.527.527,0,0,1-.42-.184.826.826,0,0,1-.165-.553v-3.836a.792.792,0,0,1,.164-.547.539.539,0,0,1,.422-.176.565.565,0,0,1,.43.177.71.71,0,0,1,.17.506v3.875a.8.8,0,0,1-.171.556A.556.556,0,0,1,1756.665,1622.244Zm.015-6.076a.626.626,0,0,1-.428-.153.589.589,0,0,1,.006-.838.6.6,0,0,1,.422-.165.623.623,0,0,1,.412.149.518.518,0,0,1,.173.427.537.537,0,0,1-.17.426A.6.6,0,0,1,1756.68,1616.168Z" transform="translate(-1692.246 -1604.468)" fill="#fff"/>
  <path id="Path_27342" data-name="Path 27342" d="M1769.955,1626.5a.522.522,0,0,1-.353-.172,2.821,2.821,0,0,1-.416-.547l-.045-.074-.069.053a4.087,4.087,0,0,1-.923.557,2.56,2.56,0,0,1-.989.183,1.863,1.863,0,0,1-.87-.2,1.422,1.422,0,0,1-.571-.524,1.361,1.361,0,0,1-.2-.716,1.286,1.286,0,0,1,.329-.887,1.675,1.675,0,0,1,.917-.5c.086-.02.3-.064.633-.133s.628-.132.87-.19.5-.127.787-.21l.059-.017,0-.061a1.482,1.482,0,0,0-.229-.823,1.013,1.013,0,0,0-.846-.279,1.686,1.686,0,0,0-.806.152,1.326,1.326,0,0,0-.47.453,4.363,4.363,0,0,1-.255.368c-.02.024-.081.063-.267.063a.492.492,0,0,1-.339-.126.4.4,0,0,1-.138-.312,1.062,1.062,0,0,1,.235-.641,1.718,1.718,0,0,1,.748-.525,3.462,3.462,0,0,1,1.292-.21,3.676,3.676,0,0,1,1.36.2,1.208,1.208,0,0,1,.674.621,2.831,2.831,0,0,1,.2,1.166q0,.471,0,.8t-.007.732a2.784,2.784,0,0,0,.129.812,2.319,2.319,0,0,1,.122.505.417.417,0,0,1-.167.317A.573.573,0,0,1,1769.955,1626.5Zm-.95-2.692a6.619,6.619,0,0,1-.847.225q-.565.121-.782.178a1.137,1.137,0,0,0-.443.237.641.641,0,0,0-.225.519.757.757,0,0,0,.256.575.933.933,0,0,0,.657.234,1.655,1.655,0,0,0,.771-.183,1.244,1.244,0,0,0,.525-.48,2.1,2.1,0,0,0,.192-1.041v-.3Z" transform="translate(-1698.745 -1608.725)" fill="#fff"/>
  <path id="Path_27343" data-name="Path 27343" d="M1793.91,1626.524a.563.563,0,0,1-.441-.188.839.839,0,0,1-.174-.579V1623.5a5.226,5.226,0,0,0-.038-.7.868.868,0,0,0-.219-.479.709.709,0,0,0-.548-.2.982.982,0,0,0-.546.17,1.153,1.153,0,0,0-.4.453,3.369,3.369,0,0,0-.155,1.233v1.783a.849.849,0,0,1-.172.582.572.572,0,0,1-.448.185.555.555,0,0,1-.436-.185.86.86,0,0,1-.169-.582v-2.136a7.061,7.061,0,0,0-.035-.8.938.938,0,0,0-.2-.5.675.675,0,0,0-.541-.207.929.929,0,0,0-.938.5,3.272,3.272,0,0,0-.216,1.33v1.812a.855.855,0,0,1-.169.58.554.554,0,0,1-.441.188.564.564,0,0,1-.441-.188.84.84,0,0,1-.173-.579v-3.836a.771.771,0,0,1,.154-.523.506.506,0,0,1,.4-.17.544.544,0,0,1,.4.161.608.608,0,0,1,.161.453v.343l.138-.165a2.281,2.281,0,0,1,.721-.595,1.911,1.911,0,0,1,.85-.188,1.7,1.7,0,0,1,.832.192,1.507,1.507,0,0,1,.569.58l.056.1.072-.087a2.261,2.261,0,0,1,.7-.592,1.785,1.785,0,0,1,.824-.191,1.89,1.89,0,0,1,.911.207,1.305,1.305,0,0,1,.562.585,2.792,2.792,0,0,1,.164,1.111v2.618a.848.848,0,0,1-.171.582A.572.572,0,0,1,1793.91,1626.524Z" transform="translate(-1713.542 -1608.747)" fill="#fff"/>
  <path id="Path_27344" data-name="Path 27344" d="M1819.3,1626.5a2.611,2.611,0,0,1-1.953-.714,2.681,2.681,0,0,1-.7-1.945,3.259,3.259,0,0,1,.173-1.077,2.356,2.356,0,0,1,.5-.844,2.171,2.171,0,0,1,.806-.538,2.937,2.937,0,0,1,1.072-.189,2.544,2.544,0,0,1,1.309.321,2.113,2.113,0,0,1,.813.827,2.191,2.191,0,0,1,.271,1.035c0,.3-.083.5-.248.587a1.741,1.741,0,0,1-.779.141h-2.7v.079a1.867,1.867,0,0,0,.193.84,1.312,1.312,0,0,0,1.2.745,1.694,1.694,0,0,0,.461-.06,1.513,1.513,0,0,0,.406-.186,3.007,3.007,0,0,0,.353-.265q.158-.139.41-.376a.371.371,0,0,1,.241-.067.405.405,0,0,1,.282.093.326.326,0,0,1,.1.261.808.808,0,0,1-.131.385,1.624,1.624,0,0,1-.411.444,2.389,2.389,0,0,1-.7.359A3.057,3.057,0,0,1,1819.3,1626.5Zm-.143-4.529a1.152,1.152,0,0,0-.879.371,1.8,1.8,0,0,0-.411,1.069l-.009.086h2.6l-.006-.083a1.709,1.709,0,0,0-.392-1.077A1.191,1.191,0,0,0,1819.156,1621.973Z" transform="translate(-1733.952 -1608.725)" fill="#fff"/>
  <path id="Path_27345" data-name="Path 27345" d="M1842.178,1626.524a.54.54,0,0,1-.428-.185.815.815,0,0,1-.167-.553v-2.235a2.319,2.319,0,0,0-.193-1.05.825.825,0,0,0-.8-.393,1.168,1.168,0,0,0-.7.228,1.315,1.315,0,0,0-.46.623,4.225,4.225,0,0,0-.1,1.148v1.679a.8.8,0,0,1-.168.559.555.555,0,0,1-.431.179.529.529,0,0,1-.418-.185.814.814,0,0,1-.167-.553v-3.875a.774.774,0,0,1,.147-.521.5.5,0,0,1,.4-.163.547.547,0,0,1,.28.073.525.525,0,0,1,.2.219.814.814,0,0,1,.077.372v.394l.14-.184a2.282,2.282,0,0,1,.748-.663,2,2,0,0,1,.93-.21,1.86,1.86,0,0,1,.91.221,1.4,1.4,0,0,1,.591.619,1.479,1.479,0,0,1,.165.507,5.427,5.427,0,0,1,.039.716v2.5a.82.82,0,0,1-.164.557A.535.535,0,0,1,1842.178,1626.524Z" transform="translate(-1748.75 -1608.747)" fill="#fff"/>
  <path id="Path_27346" data-name="Path 27346" d="M1859.8,1622.494a1.7,1.7,0,0,1-.911-.2.9.9,0,0,1-.392-.54,3.9,3.9,0,0,1-.1-.977v-2.652h-.255a.571.571,0,0,1-.39-.117.373.373,0,0,1-.126-.291.357.357,0,0,1,.133-.287.63.63,0,0,1,.414-.116h.225v-.883c0-.213.006-.382.017-.5a.665.665,0,0,1,.085-.284.532.532,0,0,1,.2-.2.56.56,0,0,1,.29-.075.583.583,0,0,1,.409.171.486.486,0,0,1,.151.27,2.761,2.761,0,0,1,.035.507v.992h.569a.559.559,0,0,1,.383.115.37.37,0,0,1,.124.288.308.308,0,0,1-.171.309,1.322,1.322,0,0,1-.576.1h-.329v2.544a4.181,4.181,0,0,0,.023.494.568.568,0,0,0,.138.317.476.476,0,0,0,.369.131,1.745,1.745,0,0,0,.335-.043,1.6,1.6,0,0,1,.3-.04.326.326,0,0,1,.237.107.359.359,0,0,1,.107.267.463.463,0,0,1-.31.426A2.329,2.329,0,0,1,1859.8,1622.494Z" transform="translate(-1762.167 -1604.718)" fill="#fff"/>
  <path id="Path_27347" data-name="Path 27347" d="M1693.113,1661.148a.637.637,0,0,1-.368-.1,1.045,1.045,0,0,1-.267-.272q-.119-.176-.324-.517l-.585-.972a5.492,5.492,0,0,0-.571-.828,1.484,1.484,0,0,0-.533-.4,1.822,1.822,0,0,0-.673-.108h-.589v2.392a.9.9,0,0,1-.18.62.607.607,0,0,1-.468.191.59.59,0,0,1-.481-.2.934.934,0,0,1-.173-.613V1654.8a.692.692,0,0,1,.816-.817h2.373a7.158,7.158,0,0,1,.831.042,2.036,2.036,0,0,1,.606.163,1.756,1.756,0,0,1,.576.392,1.714,1.714,0,0,1,.378.589,1.989,1.989,0,0,1,.13.717,1.73,1.73,0,0,1-.433,1.233,2.547,2.547,0,0,1-1.338.66l-.207.045.187.1a2.587,2.587,0,0,1,.719.592,6.112,6.112,0,0,1,.624.846,6.369,6.369,0,0,1,.427.81,1.484,1.484,0,0,1,.149.473.435.435,0,0,1-.078.24.564.564,0,0,1-.218.194A.706.706,0,0,1,1693.113,1661.148Zm-3.909-4.093h1.384a3.743,3.743,0,0,0,.9-.093,1.114,1.114,0,0,0,.587-.334.968.968,0,0,0,.208-.653.988.988,0,0,0-.623-.941,3.064,3.064,0,0,0-1.037-.114H1689.2Z" transform="translate(-1645.3 -1631.3)" fill="#fff"/>
  <path id="Path_27348" data-name="Path 27348" d="M1713.521,1665.265a2.611,2.611,0,0,1-1.954-.713,2.68,2.68,0,0,1-.7-1.945,3.266,3.266,0,0,1,.173-1.077,2.361,2.361,0,0,1,.5-.844,2.177,2.177,0,0,1,.807-.538,2.943,2.943,0,0,1,1.072-.189,2.548,2.548,0,0,1,1.309.321,2.113,2.113,0,0,1,.813.827,2.19,2.19,0,0,1,.271,1.035c0,.3-.083.5-.248.587a1.748,1.748,0,0,1-.78.141h-2.7v.079a1.868,1.868,0,0,0,.193.84,1.313,1.313,0,0,0,1.2.745,1.67,1.67,0,0,0,.461-.06,1.514,1.514,0,0,0,.406-.186,3.072,3.072,0,0,0,.353-.265q.159-.139.41-.376a.368.368,0,0,1,.241-.067.407.407,0,0,1,.282.094.326.326,0,0,1,.1.261.8.8,0,0,1-.132.385,1.623,1.623,0,0,1-.41.444,2.386,2.386,0,0,1-.7.359A3.048,3.048,0,0,1,1713.521,1665.265Zm-.143-4.529a1.15,1.15,0,0,0-.88.371,1.807,1.807,0,0,0-.411,1.069l-.008.086h2.6l-.006-.083a1.706,1.706,0,0,0-.392-1.077A1.191,1.191,0,0,0,1713.378,1660.736Z" transform="translate(-1661.117 -1635.416)" fill="#fff"/>
  <path id="Path_27349" data-name="Path 27349" d="M1733.755,1665.287a3.074,3.074,0,0,1-1.208-.215,1.74,1.74,0,0,1-.729-.528,1.044,1.044,0,0,1-.23-.619.436.436,0,0,1,.135-.323.461.461,0,0,1,.343-.135.393.393,0,0,1,.271.083,1.066,1.066,0,0,1,.2.27,1.363,1.363,0,0,0,1.345.752,1.211,1.211,0,0,0,.7-.193.578.578,0,0,0,.291-.474.634.634,0,0,0-.3-.582,3.412,3.412,0,0,0-.9-.319,7.209,7.209,0,0,1-1.114-.357,1.782,1.782,0,0,1-.666-.477,1.057,1.057,0,0,1-.242-.711,1.272,1.272,0,0,1,.228-.718,1.584,1.584,0,0,1,.677-.545,2.651,2.651,0,0,1,1.1-.207,3.68,3.68,0,0,1,.916.105,2.275,2.275,0,0,1,.67.28,1.363,1.363,0,0,1,.4.38.719.719,0,0,1,.132.39.419.419,0,0,1-.131.322.54.54,0,0,1-.386.126.458.458,0,0,1-.3-.1,2.253,2.253,0,0,1-.32-.342,1.292,1.292,0,0,0-.381-.333,1.213,1.213,0,0,0-.6-.128,1.176,1.176,0,0,0-.646.167.526.526,0,0,0-.277.451.493.493,0,0,0,.207.407,1.539,1.539,0,0,0,.5.237q.3.089.829.217a4.343,4.343,0,0,1,1,.357,1.621,1.621,0,0,1,.573.475,1.037,1.037,0,0,1,.19.611,1.477,1.477,0,0,1-1.019,1.477A3.52,3.52,0,0,1,1733.755,1665.287Z" transform="translate(-1675.382 -1635.438)" fill="#fff"/>
  <path id="Path_27350" data-name="Path 27350" d="M1753.17,1665.287a2.839,2.839,0,0,1-1.066-.191,2.339,2.339,0,0,1-1.339-1.382,3.1,3.1,0,0,1-.179-1.076,3.13,3.13,0,0,1,.182-1.088,2.362,2.362,0,0,1,.518-.837,2.289,2.289,0,0,1,.817-.535,3.121,3.121,0,0,1,2.144,0,2.332,2.332,0,0,1,.823.542,2.355,2.355,0,0,1,.521.836,3.315,3.315,0,0,1,0,2.157,2.376,2.376,0,0,1-.523.842,2.322,2.322,0,0,1-.818.54A2.927,2.927,0,0,1,1753.17,1665.287Zm0-4.46a1.284,1.284,0,0,0-.737.217,1.38,1.38,0,0,0-.49.637,2.546,2.546,0,0,0-.168.958,2.512,2.512,0,0,0,.166.948,1.4,1.4,0,0,0,.484.636,1.268,1.268,0,0,0,.745.223,1.249,1.249,0,0,0,1.031-.489,2.5,2.5,0,0,0,0-2.644A1.252,1.252,0,0,0,1753.17,1660.826Z" transform="translate(-1688.462 -1635.438)" fill="#fff"/>
  <path id="Path_27351" data-name="Path 27351" d="M1776.687,1665.287a.507.507,0,0,1-.4-.173.732.732,0,0,1-.159-.506v-.4l-.139.176a2.946,2.946,0,0,1-.493.5,1.788,1.788,0,0,1-.556.294,2.278,2.278,0,0,1-.694.1,1.793,1.793,0,0,1-.836-.192,1.406,1.406,0,0,1-.566-.526,2.392,2.392,0,0,1-.24-1.188v-2.657a.8.8,0,0,1,.162-.549.541.541,0,0,1,.424-.174.56.56,0,0,1,.434.177.784.784,0,0,1,.166.546v2.146a3.4,3.4,0,0,0,.081.8,1.018,1.018,0,0,0,.306.535.884.884,0,0,0,.6.2,1.209,1.209,0,0,0,.682-.215,1.259,1.259,0,0,0,.465-.56,4.211,4.211,0,0,0,.119-1.278v-1.631a.784.784,0,0,1,.166-.546.553.553,0,0,1,.429-.177.541.541,0,0,1,.424.174.8.8,0,0,1,.162.549v3.885a.758.758,0,0,1-.154.522A.5.5,0,0,1,1776.687,1665.287Z" transform="translate(-1703.627 -1635.438)" fill="#fff"/>
  <path id="Path_27352" data-name="Path 27352" d="M1794.415,1665.287a.534.534,0,0,1-.419-.181.813.813,0,0,1-.167-.557v-3.733c0-.556.189-.826.576-.826a.469.469,0,0,1,.418.178,1.1,1.1,0,0,1,.148.582l.009.269.136-.232a2.282,2.282,0,0,1,.476-.6.948.948,0,0,1,.625-.193,1.66,1.66,0,0,1,.784.2.554.554,0,0,1,.357.491.454.454,0,0,1-.145.349.447.447,0,0,1-.313.138,1.547,1.547,0,0,1-.332-.087,1.749,1.749,0,0,0-.522-.094.807.807,0,0,0-.531.173,1.074,1.074,0,0,0-.314.494,3.312,3.312,0,0,0-.146.742c-.026.278-.04.625-.04,1.031v1.12a.8.8,0,0,1-.171.559A.557.557,0,0,1,1794.415,1665.287Z" transform="translate(-1718.239 -1635.438)" fill="#fff"/>
  <path id="Path_27353" data-name="Path 27353" d="M1810.513,1665.255a2.5,2.5,0,0,1-1.884-.7,2.621,2.621,0,0,1-.676-1.889,3.138,3.138,0,0,1,.311-1.424,2.224,2.224,0,0,1,.892-.947,3.059,3.059,0,0,1,2.336-.188,2.429,2.429,0,0,1,.714.38,1.819,1.819,0,0,1,.443.492.947.947,0,0,1,.149.469.455.455,0,0,1-.154.35.534.534,0,0,1-.382.146.36.36,0,0,1-.23-.069,1.279,1.279,0,0,1-.233-.261,2.128,2.128,0,0,0-.532-.578,1.34,1.34,0,0,0-1.745.293,2.094,2.094,0,0,0-.38,1.318,2.541,2.541,0,0,0,.1.717,1.674,1.674,0,0,0,.284.566,1.236,1.236,0,0,0,.456.362,1.386,1.386,0,0,0,.583.122,1.321,1.321,0,0,0,.733-.2,1.719,1.719,0,0,0,.533-.6,1.238,1.238,0,0,1,.25-.335.424.424,0,0,1,.3-.108.439.439,0,0,1,.349.16.516.516,0,0,1,.143.346,1.087,1.087,0,0,1-.141.5,1.777,1.777,0,0,1-.438.52,2.3,2.3,0,0,1-.748.4A3.215,3.215,0,0,1,1810.513,1665.255Z" transform="translate(-1727.964 -1635.416)" fill="#fff"/>
  <path id="Path_27354" data-name="Path 27354" d="M1831.445,1665.265a2.612,2.612,0,0,1-1.954-.713,2.682,2.682,0,0,1-.695-1.945,3.256,3.256,0,0,1,.173-1.077,2.354,2.354,0,0,1,.5-.844,2.169,2.169,0,0,1,.807-.538,2.937,2.937,0,0,1,1.072-.189,2.548,2.548,0,0,1,1.309.321,2.113,2.113,0,0,1,.813.827,2.188,2.188,0,0,1,.271,1.035c0,.3-.084.5-.248.587a1.747,1.747,0,0,1-.78.141h-2.7v.079a1.871,1.871,0,0,0,.193.84,1.313,1.313,0,0,0,1.2.745,1.669,1.669,0,0,0,.461-.06,1.509,1.509,0,0,0,.406-.186,3.136,3.136,0,0,0,.353-.265q.159-.139.41-.376a.37.37,0,0,1,.241-.067.408.408,0,0,1,.282.094.326.326,0,0,1,.1.261.808.808,0,0,1-.132.385,1.623,1.623,0,0,1-.41.444,2.384,2.384,0,0,1-.7.359A3.048,3.048,0,0,1,1831.445,1665.265Zm-.143-4.529a1.15,1.15,0,0,0-.879.371,1.8,1.8,0,0,0-.411,1.069l-.008.086h2.6l-.006-.083a1.7,1.7,0,0,0-.392-1.077A1.191,1.191,0,0,0,1831.3,1660.736Z" transform="translate(-1742.316 -1635.416)" fill="#fff"/>
  <path id="Path_27355" data-name="Path 27355" d="M1688.587,1699.913a.6.6,0,0,1-.473-.2.882.882,0,0,1-.181-.6v-5.551a.841.841,0,0,1,.2-.631.938.938,0,0,1,.649-.185h1.872a4.853,4.853,0,0,1,1.256.125,1.832,1.832,0,0,1,.734.391,1.769,1.769,0,0,1,.468.668,2.388,2.388,0,0,1,.161.9,1.986,1.986,0,0,1-.65,1.608,3.023,3.023,0,0,1-1.969.549h-1.414v2.116a.882.882,0,0,1-.186.61A.594.594,0,0,1,1688.587,1699.913Zm.649-3.873h1.06a3.015,3.015,0,0,0,.885-.111,1.086,1.086,0,0,0,.568-.382,1.136,1.136,0,0,0,.2-.69,1.171,1.171,0,0,0-.3-.829,1.908,1.908,0,0,0-1.349-.344h-1.06Z" transform="translate(-1645.322 -1657.992)" fill="#fff"/>
  <path id="Path_27356" data-name="Path 27356" d="M1711.379,1699.641a.527.527,0,0,1-.42-.185.823.823,0,0,1-.165-.553v-5.816a.835.835,0,0,1,.16-.558.528.528,0,0,1,.425-.18.555.555,0,0,1,.434.178.811.811,0,0,1,.167.559v5.816a.8.8,0,0,1-.169.559A.557.557,0,0,1,1711.379,1699.641Z" transform="translate(-1661.063 -1657.72)" fill="#fff"/>
  <path id="Path_27357" data-name="Path 27357" d="M1724.669,1704.029a.525.525,0,0,1-.354-.172,2.8,2.8,0,0,1-.415-.547l-.046-.074-.068.054a4.1,4.1,0,0,1-.923.557,2.575,2.575,0,0,1-.989.183,1.867,1.867,0,0,1-.87-.195,1.428,1.428,0,0,1-.571-.524,1.362,1.362,0,0,1-.2-.716,1.283,1.283,0,0,1,.328-.886,1.679,1.679,0,0,1,.917-.5c.086-.02.3-.064.633-.132s.628-.132.87-.19.5-.127.787-.21l.059-.017,0-.061a1.483,1.483,0,0,0-.23-.823,1.013,1.013,0,0,0-.845-.278,1.688,1.688,0,0,0-.806.152,1.33,1.33,0,0,0-.47.453c-.121.187-.207.311-.255.368-.02.024-.081.063-.267.063a.493.493,0,0,1-.339-.125.392.392,0,0,1-.138-.312,1.062,1.062,0,0,1,.235-.641,1.723,1.723,0,0,1,.748-.525,3.467,3.467,0,0,1,1.292-.21,3.684,3.684,0,0,1,1.361.2,1.224,1.224,0,0,1,.674.621,2.835,2.835,0,0,1,.2,1.166q0,.471,0,.8c0,.22,0,.463-.007.731a2.78,2.78,0,0,0,.129.812,2.348,2.348,0,0,1,.122.505.416.416,0,0,1-.167.317A.57.57,0,0,1,1724.669,1704.029Zm-.95-2.692a6.666,6.666,0,0,1-.847.225q-.566.121-.782.178a1.137,1.137,0,0,0-.443.237.643.643,0,0,0-.225.519.757.757,0,0,0,.256.576.933.933,0,0,0,.657.234,1.662,1.662,0,0,0,.771-.183,1.246,1.246,0,0,0,.525-.48,2.1,2.1,0,0,0,.192-1.041v-.3Z" transform="translate(-1667.562 -1662.108)" fill="#fff"/>
  <path id="Path_27358" data-name="Path 27358" d="M1745.886,1704.051a.54.54,0,0,1-.428-.185.814.814,0,0,1-.167-.553v-2.235a2.319,2.319,0,0,0-.193-1.05.825.825,0,0,0-.8-.393,1.17,1.17,0,0,0-.7.228,1.315,1.315,0,0,0-.46.623,4.211,4.211,0,0,0-.1,1.147v1.68a.8.8,0,0,1-.168.559.557.557,0,0,1-.431.179.529.529,0,0,1-.418-.185.813.813,0,0,1-.167-.553v-3.876a.777.777,0,0,1,.147-.521.5.5,0,0,1,.4-.162.539.539,0,0,1,.28.073.525.525,0,0,1,.2.219.813.813,0,0,1,.077.372v.393l.14-.184a2.279,2.279,0,0,1,.747-.663,1.994,1.994,0,0,1,.93-.209,1.861,1.861,0,0,1,.91.221,1.4,1.4,0,0,1,.591.619,1.5,1.5,0,0,1,.165.507,5.491,5.491,0,0,1,.039.717v2.5a.818.818,0,0,1-.164.557A.533.533,0,0,1,1745.886,1704.051Z" transform="translate(-1682.446 -1662.13)" fill="#fff"/>
  <path id="Path_27359" data-name="Path 27359" d="M1767.012,1704.051a.54.54,0,0,1-.428-.185.814.814,0,0,1-.167-.553v-2.235a2.317,2.317,0,0,0-.193-1.05.824.824,0,0,0-.8-.393,1.17,1.17,0,0,0-.7.228,1.314,1.314,0,0,0-.46.623,4.2,4.2,0,0,0-.1,1.147v1.68a.8.8,0,0,1-.168.559.557.557,0,0,1-.431.179.529.529,0,0,1-.418-.185.814.814,0,0,1-.167-.553v-3.876a.778.778,0,0,1,.147-.521.5.5,0,0,1,.4-.162.539.539,0,0,1,.28.073.525.525,0,0,1,.2.219.812.812,0,0,1,.077.372v.393l.14-.184a2.285,2.285,0,0,1,.748-.663,1.994,1.994,0,0,1,.929-.209,1.861,1.861,0,0,1,.911.221,1.4,1.4,0,0,1,.592.619,1.5,1.5,0,0,1,.165.507,5.541,5.541,0,0,1,.038.717v2.5a.818.818,0,0,1-.164.557A.533.533,0,0,1,1767.012,1704.051Z" transform="translate(-1696.992 -1662.13)" fill="#fff"/>
  <path id="Path_27360" data-name="Path 27360" d="M1784.811,1699.771a.527.527,0,0,1-.42-.185.821.821,0,0,1-.165-.553V1695.2a.789.789,0,0,1,.164-.547.539.539,0,0,1,.421-.176.564.564,0,0,1,.43.177.707.707,0,0,1,.17.506v3.876a.794.794,0,0,1-.171.556A.555.555,0,0,1,1784.811,1699.771Zm.015-6.076a.627.627,0,0,1-.428-.153.591.591,0,0,1,.006-.839.606.606,0,0,1,.422-.164.622.622,0,0,1,.412.15.517.517,0,0,1,.173.426.534.534,0,0,1-.17.426A.6.6,0,0,1,1784.825,1693.694Z" transform="translate(-1711.626 -1657.85)" fill="#fff"/>
  <path id="Path_27361" data-name="Path 27361" d="M1798.507,1704.051a.539.539,0,0,1-.428-.185.813.813,0,0,1-.167-.553v-2.235a2.32,2.32,0,0,0-.193-1.05.824.824,0,0,0-.8-.393,1.171,1.171,0,0,0-.7.228,1.317,1.317,0,0,0-.46.623,4.213,4.213,0,0,0-.1,1.147v1.68a.8.8,0,0,1-.168.559.557.557,0,0,1-.431.179.529.529,0,0,1-.418-.185.816.816,0,0,1-.167-.553v-3.876a.777.777,0,0,1,.147-.521.5.5,0,0,1,.4-.162.538.538,0,0,1,.28.073.525.525,0,0,1,.2.219.815.815,0,0,1,.077.372v.393l.14-.184a2.292,2.292,0,0,1,.747-.663,2,2,0,0,1,.93-.209,1.86,1.86,0,0,1,.91.221,1.4,1.4,0,0,1,.591.619,1.475,1.475,0,0,1,.165.507,5.485,5.485,0,0,1,.039.717v2.5a.818.818,0,0,1-.165.557A.532.532,0,0,1,1798.507,1704.051Z" transform="translate(-1718.679 -1662.13)" fill="#fff"/>
  <path id="Path_27362" data-name="Path 27362" d="M1817.225,1706.04a3.63,3.63,0,0,1-1.212-.19,2.069,2.069,0,0,1-.81-.481.842.842,0,0,1-.273-.577.441.441,0,0,1,.142-.343.492.492,0,0,1,.35-.134.581.581,0,0,1,.456.233c.072.088.146.177.224.268a1.373,1.373,0,0,0,.271.245,1.08,1.08,0,0,0,.362.154,2.023,2.023,0,0,0,.47.049,1.913,1.913,0,0,0,.843-.153.909.909,0,0,0,.439-.443,1.71,1.71,0,0,0,.142-.584c.013-.2.023-.513.03-.959l0-.249-.145.2a2.133,2.133,0,0,1-.69.636,1.882,1.882,0,0,1-.927.216,1.969,1.969,0,0,1-1.133-.33,2.132,2.132,0,0,1-.746-.93,3.488,3.488,0,0,1-.264-1.4,3.342,3.342,0,0,1,.16-1.065,2.225,2.225,0,0,1,.453-.793,1.93,1.93,0,0,1,.675-.484,2.142,2.142,0,0,1,.844-.164,2.029,2.029,0,0,1,.951.21,2.324,2.324,0,0,1,.75.663l.14.181v-.41a.711.711,0,0,1,.152-.488.488.488,0,0,1,.384-.166.447.447,0,0,1,.446.21,1.587,1.587,0,0,1,.12.694v3.9a4.018,4.018,0,0,1-.139,1.127,1.77,1.77,0,0,1-.437.763,1.85,1.85,0,0,1-.79.447A4.43,4.43,0,0,1,1817.225,1706.04Zm.068-6.439a1.2,1.2,0,0,0-.982.466,2.045,2.045,0,0,0-.363,1.291,1.937,1.937,0,0,0,.375,1.283,1.233,1.233,0,0,0,.98.445,1.286,1.286,0,0,0,.671-.191,1.394,1.394,0,0,0,.513-.571,1.982,1.982,0,0,0,.2-.913,2.1,2.1,0,0,0-.378-1.325A1.232,1.232,0,0,0,1817.293,1699.6Z" transform="translate(-1732.65 -1662.13)" fill="#fff"/>
  <path id="Path_41958" data-name="Path 41958" d="M3447.694,910.195q-23.511,0-47.021,0a4.365,4.365,0,0,1-3.989-2.1,4.579,4.579,0,0,1-.646-2.5q.005-14.753,0-29.507,0-5.132,0-10.263a4.354,4.354,0,0,1,4.5-4.565h.167q47.021,0,94.042,0a4.416,4.416,0,0,1,3.884,1.893,4.574,4.574,0,0,1,.8,2.684q.008,19.941,0,39.881a4.385,4.385,0,0,1-4.6,4.477Q3471.26,910.2,3447.694,910.195Zm.008-1.292h33.359q7,0,14,0a3.005,3.005,0,0,0,2.288-.968,3.58,3.58,0,0,0,.864-2.629q0-19.525,0-39.05c0-.13,0-.26,0-.391a3.213,3.213,0,0,0-3.382-3.333q-47.11.037-94.221,0a3.308,3.308,0,0,0-3.365,3.345q.048,19.831,0,39.663a3.259,3.259,0,0,0,3.371,3.384Q3424.16,908.864,3447.7,908.9Z" transform="translate(-3396.037 -861.258)" fill="#03c84a"/>
</svg>
