<svg xmlns="http://www.w3.org/2000/svg" width="5" height="8.382" viewBox="0 0 5 8.382">
  <g id="right_arrow_press" transform="translate(-76 -78)">
    <path id="Path_44116" data-name="Path 44116" d="M4.685.209,8.177,3.781,7.19,4.791,3.7,1.219ZM.2,3.781,3.7.209l.988,1.01L1.193,4.791Zm7.973,0a.725.725,0,0,1,0,1.01.687.687,0,0,1-.988,0ZM4.191.714,3.7.209a.687.687,0,0,1,.988,0Zm-3,4.076a.687.687,0,0,1-.988,0,.725.725,0,0,1,0-1.01Z" transform="translate(81 78) rotate(90)" fill="aqua"/>
  </g>
</svg>
