<svg xmlns="http://www.w3.org/2000/svg" width="10" height="10" viewBox="0 0 10 10">
  <g id="sub" transform="translate(-26.002 -10.059)">
    <path id="Path_44056" data-name="Path 44056" d="M.714,0H3.571a.714.714,0,0,1,.714.714V3.571a.714.714,0,0,1-.714.714H.714A.714.714,0,0,1,0,3.571V.714A.714.714,0,0,1,.714,0Z" transform="translate(26.002 10.059)" fill="#fcb32f"/>
    <path id="Path_44053" data-name="Path 44053" d="M.714,0H3.571a.714.714,0,0,1,.714.714V3.571a.714.714,0,0,1-.714.714H.714A.714.714,0,0,1,0,3.571V.714A.714.714,0,0,1,.714,0Z" transform="translate(26.002 15.773)" fill="#fcb32f"/>
    <path id="Path_44055" data-name="Path 44055" d="M.714,0H3.571a.714.714,0,0,1,.714.714V3.571a.714.714,0,0,1-.714.714H.714A.714.714,0,0,1,0,3.571V.714A.714.714,0,0,1,.714,0Z" transform="translate(31.716 10.059)" fill="#fcb32f"/>
    <path id="Path_44054" data-name="Path 44054" d="M.714,0H3.571a.714.714,0,0,1,.714.714V3.571a.714.714,0,0,1-.714.714H.714A.714.714,0,0,1,0,3.571V.714A.714.714,0,0,1,.714,0Z" transform="translate(31.716 15.773)" fill="#fcb32f"/>
  </g>
</svg>
