<svg xmlns="http://www.w3.org/2000/svg" width="24" height="24" viewBox="0 0 24 24">
  <g id="technology" transform="translate(21420 15531)">
    <rect id="Rectangle_14045" data-name="Rectangle 14045" width="24" height="24" transform="translate(-21420 -15531)" fill="none"/>
    <g id="Group_53737" data-name="Group 53737" transform="translate(-21418 -15527)">
      <g id="Group_52156" data-name="Group 52156">
        <path id="Path_42907" data-name="Path 42907" d="M-2026.222,1041.656q.393-1.148.787-2.3a.63.63,0,0,1,.442-.38c.127.008.254.023.381.023q3.407,0,6.815,0,3.485,0,6.971,0c.7,0,1.4-.007,2.1-.011l.013.009h.016l.069,0c.345.054.462.3.558.6.219.688.465,1.368.7,2.051.177.5.358,1.008.531,1.514a.559.559,0,0,1-.526.745,2.992,2.992,0,0,1-.554-.023c-.121-.02-.253.033-.378.021-.466-.042-.934-.01-1.4-.011-.394,0-.795,0-1.189,0a13.79,13.79,0,0,1-1.417-.009c-.217-.024-.45.044-.673.018a8.536,8.536,0,0,0-1.1-.009c-.448,0-.9,0-1.346,0a10.434,10.434,0,0,1-1.226-.009c-.216-.027-.45.043-.673.017a8.645,8.645,0,0,0-1.1-.01c-.442,0-.888,0-1.329,0a10.724,10.724,0,0,1-1.243-.009c-.216-.026-.45.043-.673.017a8.582,8.582,0,0,0-1.1-.009c-.43.005-.864,0-1.294,0a8.444,8.444,0,0,1-1.278-.012c-.165-.025-.343.037-.517.026s-.358-.018-.535-.037a.549.549,0,0,1-.384-.684c.166-.436.336-.871.462-1.321C-2026.3,1041.8-2026.224,1041.743-2026.222,1041.656Zm9.345.109h8.258c.331,0,.331,0,.244-.3-.011-.039-.02-.078-.032-.117-.148-.517-.3-1.032-.443-1.55a.184.184,0,0,0-.207-.158q-3.016,0-6.033,0h-9.406c-.342,0-.342,0-.428.331-.006.022-.01.045-.015.068-.122.554-.332,1.083-.471,1.632-.021.085,0,.089.065.092.04,0,.081,0,.122,0Zm.068,1.461h2.139c.088,0,.2.009.172-.126-.048-.272-.11-.542-.165-.813-.017-.085-.077-.108-.154-.108h-.417c-1.154,0-2.307,0-3.46,0-.148,0-.225.041-.246.194-.03.217-.107.425-.127.646-.019.2-.028.209.173.21Z" transform="translate(2026.803 -1027.484)" fill="#fff"/>
        <path id="Path_42908" data-name="Path 42908" d="M-1967.649,720l-.069,0-.03-.009c-.7,0-1.4.011-2.1.011q-3.486,0-6.971,0-3.408,0-6.815,0c-.127,0-.254-.015-.381-.023a.7.7,0,0,1-.329-.673q.013-4.709.005-9.418c0-.058-.006-.115-.009-.173,0-.231,0-.463.009-.694a.5.5,0,0,1,.521-.531c.231-.008.463,0,.694-.006.805,0,1.61.01,2.416.01h12.062c.058,0,.115-.006.173-.009.213,0,.426,0,.639.005a.515.515,0,0,1,.535.552c.005.224.006.449.01.673q0,1.6-.005,3.2,0,3.232,0,6.464a.578.578,0,0,1-.312.575C-1967.628,719.953-1967.636,719.979-1967.649,720Zm-2.218-.941h.139l.691,0h.179l.586,0c.1-.042.055-.13.055-.2,0-1.078,0-2.156,0-3.234q0-3.026,0-6.052c0-.056.037-.132-.052-.163a3.593,3.593,0,0,0-.586,0h-.178a5.656,5.656,0,0,0-.691,0h-1.048l-1.561,0h-.074a6.81,6.81,0,0,0-.8,0h-.074a6.812,6.812,0,0,0-.8,0h-.074a6.814,6.814,0,0,0-.8,0h-.074a6.814,6.814,0,0,0-.8,0h-.074c-.087,0-.174-.009-.26-.009q-3.53,0-7.06,0c-.174,0-.222.041-.222.219.007,2.063,0,4.127,0,6.19q0,1.539,0,3.078c0,.09-.026.187.128.184.452-.01.9-.008,1.356-.011h.04l.69,0a.353.353,0,0,0,.179,0h.869c.869,0,1.738.006,2.607.006q1.72,0,3.441-.007h.04l.691,0h.179l.691,0h.179l.691,0h.179l.691,0h.179l.691,0Z" transform="translate(1985.828 -708.478)" fill="#fff"/>
        <path id="Path_42911" data-name="Path 42911" d="M-1506.985,1039.309l.03.009h-.016Z" transform="translate(1525.065 -1027.802)" fill="#fff"/>
        <path id="Path_42913" data-name="Path 42913" d="M-1522.453,744.964c-.022-.512-.007-1.026-.008-1.538,0-.43,0-.863,0-1.293q0-.681,0-1.364c0-.454,0-.909,0-1.363,0-.431-.005-.863,0-1.293,0-.46,0-.921,0-1.381a10.921,10.921,0,0,0,0-1.172,1.552,1.552,0,0,1,.011-.24c.09.03.052.107.052.163q0,3.026,0,6.052c0,1.078,0,2.156,0,3.234C-1522.4,744.834-1522.354,744.922-1522.453,744.964Z" transform="translate(1540.007 -734.385)" fill="#fff"/>
        <path id="Path_42914" data-name="Path 42914" d="M-1894.078,1009.9a.116.116,0,0,1,.141-.1c.057.005.032.063.039.1A.356.356,0,0,1-1894.078,1009.9Z" transform="translate(1898.695 -999.324)" fill="#fff"/>
        <path id="Path_42915" data-name="Path 42915" d="M-1640.99,735.3c-.025.063-.049.064-.074,0Z" transform="translate(1654.481 -734.368)" fill="#fff"/>
        <path id="Path_42916" data-name="Path 42916" d="M-1740.99,735.3c-.025.063-.049.064-.074,0Z" transform="translate(1751.002 -734.368)" fill="#fff"/>
        <path id="Path_42917" data-name="Path 42917" d="M-1715.99,735.3c-.025.063-.049.064-.074,0Z" transform="translate(1726.872 -734.368)" fill="#fff"/>
        <path id="Path_42918" data-name="Path 42918" d="M-1690.99,735.3c-.025.063-.049.064-.074,0Z" transform="translate(1702.741 -734.368)" fill="#fff"/>
        <path id="Path_42919" data-name="Path 42919" d="M-1665.99,735.3c-.025.063-.049.064-.074,0Z" transform="translate(1678.611 -734.368)" fill="#fff"/>
        <path id="Path_42920" data-name="Path 42920" d="M-1594.019,735.252c0,.01-.007.027-.013.028-.023.005-.024-.014-.026-.03Z" transform="translate(1609.11 -734.319)" fill="#fff"/>
        <path id="Path_42921" data-name="Path 42921" d="M-1915.075,1011.839c0-.01.007-.026.013-.028.023-.006.024.013.027.029Z" transform="translate(1918.961 -1001.26)" fill="#fff"/>
        <path id="Path_42922" data-name="Path 42922" d="M-1865.075,1011.839c0-.01.007-.026.013-.028.023-.006.025.013.027.029Z" transform="translate(1870.7 -1001.26)" fill="#fff"/>
        <path id="Path_42923" data-name="Path 42923" d="M-1690.075,1011.839c0-.01.007-.026.013-.028.022-.006.024.013.026.029Z" transform="translate(1701.787 -1001.259)" fill="#fff"/>
        <path id="Path_42924" data-name="Path 42924" d="M-1669.077,1011.818c0-.016.005-.035.027-.028.006,0,.009.018.013.028Z" transform="translate(1681.519 -1001.239)" fill="#fff"/>
        <path id="Path_42925" data-name="Path 42925" d="M-1665.075,1011.839c0-.01.007-.026.013-.028.023-.006.024.013.027.029Z" transform="translate(1677.656 -1001.259)" fill="#fff"/>
        <path id="Path_42926" data-name="Path 42926" d="M-1644.077,1011.818c0-.016.005-.035.028-.028.006,0,.008.018.013.028Z" transform="translate(1657.389 -1001.239)" fill="#fff"/>
        <path id="Path_42927" data-name="Path 42927" d="M-1640.075,1011.839c0-.01.007-.026.013-.028.023-.006.024.013.027.029Z" transform="translate(1653.526 -1001.259)" fill="#fff"/>
        <path id="Path_42928" data-name="Path 42928" d="M-1619.077,1011.818c0-.016.005-.035.027-.028.006,0,.009.018.013.028Z" transform="translate(1633.258 -1001.239)" fill="#fff"/>
        <path id="Path_42929" data-name="Path 42929" d="M-1615.075,1011.839c0-.01.007-.026.013-.028.023-.006.025.013.027.029Z" transform="translate(1629.396 -1001.259)" fill="#fff"/>
        <path id="Path_42930" data-name="Path 42930" d="M-1544.019,735.252c0,.01-.007.027-.013.028-.023.006-.024-.014-.026-.03Z" transform="translate(1560.849 -734.319)" fill="#fff"/>
        <path id="Path_42931" data-name="Path 42931" d="M-1590.075,1011.839c0-.01.007-.026.013-.028.023-.006.025.013.027.029Z" transform="translate(1605.265 -1001.259)" fill="#fff"/>
        <path id="Path_42932" data-name="Path 42932" d="M-1569.076,1011.818c0-.016.005-.035.027-.028.006,0,.009.018.013.028Z" transform="translate(1584.997 -1001.239)" fill="#fff"/>
        <path id="Path_42933" data-name="Path 42933" d="M-1565.075,1011.839c0-.01.007-.026.013-.028.022-.006.024.013.027.029Z" transform="translate(1581.135 -1001.259)" fill="#fff"/>
        <path id="Path_42934" data-name="Path 42934" d="M-1544.076,1011.818c0-.016.005-.035.027-.028.007,0,.009.018.013.028Z" transform="translate(1560.866 -1001.239)" fill="#fff"/>
        <path id="Path_42935" data-name="Path 42935" d="M-1540.075,1011.839c0-.01.007-.026.013-.028.022-.006.024.013.026.029Z" transform="translate(1557.004 -1001.259)" fill="#fff"/>
        <path id="Path_42936" data-name="Path 42936" d="M-1565.029,735.3c0,.016,0,.035-.027.028-.006,0-.009-.018-.013-.028Z" transform="translate(1581.128 -734.368)" fill="#fff"/>
        <path id="Path_42937" data-name="Path 42937" d="M-1540.029,735.3c0,.016,0,.035-.027.028-.006,0-.008-.018-.012-.028Z" transform="translate(1556.998 -734.368)" fill="#fff"/>
        <path id="Path_42938" data-name="Path 42938" d="M-1569.019,735.252c0,.01-.007.027-.013.028-.023.006-.024-.014-.026-.03Z" transform="translate(1584.979 -734.319)" fill="#fff"/>
        <path id="Path_42939" data-name="Path 42939" d="M-1594.077,1011.818c0-.016.005-.035.027-.028.007,0,.009.018.013.028Z" transform="translate(1609.128 -1001.239)" fill="#fff"/>
        <path id="Path_42940" data-name="Path 42940" d="M-1671.72,757c-.006.273-.013.28-.314.344A.528.528,0,0,1-1671.72,757Z" transform="translate(1684.373 -755.31)" fill="#fff"/>
        <path id="Path_42941" data-name="Path 42941" d="M-1799.821,765.84a.455.455,0,0,1-.247,0A.177.177,0,0,1-1799.821,765.84Z" transform="translate(1807.954 -763.796)" fill="#fff"/>
        <path id="Path_42942" data-name="Path 42942" d="M-1701.743,776.149l-.014.1C-1701.835,776.2-1701.828,776.171-1701.743,776.149Z" transform="translate(1713.115 -773.795)" fill="#fff"/>
        <path id="Path_42943" data-name="Path 42943" d="M-1675.924,767.339a.126.126,0,0,1-.1.048A.066.066,0,0,1-1675.924,767.339Z" transform="translate(1688.22 -765.286)" fill="#fff"/>
        <path id="Path_42944" data-name="Path 42944" d="M-1700.636,795.932a.072.072,0,0,1-.029.07C-1700.7,795.96-1700.675,795.943-1700.636,795.932Z" transform="translate(1712.024 -792.89)" fill="#fff"/>
      </g>
      <path id="Path_42945" data-name="Path 42945" d="M-1879.208,771.469c.176.294.176.294-.078.548-.094.094-.19.187-.282.283-.05.053-.1.084-.16.022a.447.447,0,0,0-.665-.082.078.078,0,0,1-.032.013c-.285.052-.467.189-.443.512.007.085-.04.133-.14.13q-.322-.01-.643,0c-.106,0-.153-.041-.151-.139,0-.279-.133-.4-.4-.5-.289-.116-.515-.19-.745.069-.05.056-.1.034-.148-.015-.162-.165-.325-.33-.492-.491a.1.1,0,0,1-.015-.152,1.054,1.054,0,0,1,.1-.119.293.293,0,0,0,.052-.424.744.744,0,0,1-.132-.319c-.029-.189-.139-.238-.306-.254-.274-.027-.274-.033-.272-.311,0-.162.005-.325,0-.487,0-.1.024-.162.13-.158a.41.41,0,0,0,.49-.4.077.077,0,0,1,.013-.032.471.471,0,0,0-.061-.706c-.06-.053-.043-.107.013-.162q.244-.236.479-.479c.055-.057.112-.067.163-.01.219.245.432.19.713.07.263-.112.434-.218.42-.521,0-.1.054-.126.147-.124.138,0,.277-.007.416-.011a.453.453,0,0,0,.247,0,.129.129,0,0,1,.126.136c0,.046.014.092.015.138a.287.287,0,0,0,.264.318.852.852,0,0,1,.333.14.258.258,0,0,0,.368-.039c.038-.035.086-.059.125-.094a.124.124,0,0,1,.2.01c.146.156.3.307.452.454.07.067.077.126.01.19-.214.205-.193.4-.072.669s.219.476.554.45c.1-.008.111.077.11.157,0,.243,0,.486,0,.728l-.055.041a.9.9,0,0,1-.155.018.345.345,0,0,0-.4.323,1.9,1.9,0,0,1-.143.352C-1879.374,771.327-1879.287,771.4-1879.208,771.469Zm-.643-1.414a1.485,1.485,0,0,0-1.487-1.474,1.474,1.474,0,0,0-1.476,1.482,1.481,1.481,0,0,0,1.474,1.485A1.487,1.487,0,0,0-1879.851,770.055Z" transform="translate(1889.124 -765.182)" fill="#fff"/>
      <path id="Path_42946" data-name="Path 42946" d="M-1711.284,756.338a1.039,1.039,0,0,1-.089-.223.269.269,0,0,0-.335-.251l-.114-.068,0-.569.061-.056.07-.007c.094-.01.2.028.26-.09l.013-.07a.072.072,0,0,0,.029-.07c.046-.084.053-.184.122-.259.054-.058.018-.116-.024-.168s-.085-.107-.128-.16l.014-.1a3.528,3.528,0,0,0,.26-.251c.106-.125.2-.172.331-.028.063.071.148.117.238.026a.126.126,0,0,0,.1-.048l.043-.022c.3-.063.308-.071.314-.344.156-.236.389-.05.58-.1.074-.021.095.041.11.1.021.089-.012.212.071.259a2.243,2.243,0,0,0,.478.2c.087.025.153-.07.219-.122s.128-.064.191.011c.044.053.1.1.146.148.2.2.2.2.058.453-.021.035-.051.073-.027.112a4.559,4.559,0,0,1,.187.443c.042.093.15.078.23.084.121.009.16.06.152.176s0,.255,0,.382c0,.1-.025.156-.139.144-.158-.017-.271.033-.293.211a.263.263,0,0,1-.045.112.3.3,0,0,0,.033.442.105.105,0,0,1-.008.177c-.061.054-.115.114-.173.171-.19.191-.191.193-.422.041a.149.149,0,0,0-.175-.014c-.086.048-.177.086-.266.128-.125.01-.221.048-.195.2l-.012.1-.035.1-.174.02a.418.418,0,0,0-.239,0c-.174.016-.268-.056-.261-.239,0-.01-.009-.021-.014-.031.018-.143-.088-.147-.183-.161a.583.583,0,0,1-.109-.049.312.312,0,0,0-.465.036c-.062.068-.116.035-.172-.023-.107-.111-.221-.216-.332-.323-.027-.114.068-.171.117-.249C-1711.256,756.464-1711.2,756.406-1711.284,756.338Zm.465-.638a1.026,1.026,0,0,0,.766.837.055.055,0,0,0,.068.021l.142.012a.078.078,0,0,0,.1,0l.071-.005a1.01,1.01,0,0,0,.95-.969,1.049,1.049,0,0,0-1.331-1.108.994.994,0,0,0-.751.764l-.011.07A.48.48,0,0,0-1710.82,755.7Z" transform="translate(1722.78 -751.893)" fill="#fff"/>
      <path id="Path_42947" data-name="Path 42947" d="M-1735.419,878.7a.044.044,0,0,0-.031.009c-.12.01-.265-.042-.334.105a3.252,3.252,0,0,0-.116.34l-.038.068c-.064.064-.015.1.033.139a1.255,1.255,0,0,0,.086.129.1.1,0,0,1-.012.163c-.039.034-.074.073-.111.109-.083.08-.152.192-.251.232s-.177-.1-.273-.145a.09.09,0,0,0-.1,0,.638.638,0,0,1-.141.057.457.457,0,0,0-.415.5c-.168,0-.336-.006-.5,0-.095,0-.141-.028-.142-.123a.292.292,0,0,0-.276-.327.3.3,0,0,1-.126-.056.22.22,0,0,0-.323.025c-.1.112-.2.094-.282-.023-.024-.032-.058-.057-.085-.087-.068-.078-.183-.129-.205-.229s.09-.165.142-.246a.145.145,0,0,0,0-.16,1.3,1.3,0,0,1-.147-.347c-.019-.123-.136-.118-.222-.12-.139,0-.183-.067-.169-.2a1.882,1.882,0,0,0,0-.191c0-.264,0-.264.262-.325.051-.012.106-.022.123-.082a2.619,2.619,0,0,1,.175-.415c.049-.1-.049-.16-.1-.221-.077-.1-.089-.168.015-.246a1.127,1.127,0,0,0,.1-.1c.075-.072.139-.174.229-.208.107-.041.172.09.259.14a.138.138,0,0,0,.146,0c.088-.045.177-.085.266-.127.071-.032.2.01.184-.134l.018-.1a.1.1,0,0,0,.022-.1c.047-.143.178-.049.26-.093a.324.324,0,0,0,.206,0c.067.028.154-.018.208.057a.09.09,0,0,0,.02.094l.021.152c.006.143.129.105.209.134a.621.621,0,0,1,.124.059.261.261,0,0,0,.393-.034c.078-.081.148-.069.215.018a1.269,1.269,0,0,0,.109.112c.22.22.22.22.068.49-.006.01-.018.019-.018.029.005.184.146.318.178.495.015.084.106.075.173.087s.125.019.188.029A2.356,2.356,0,0,1-1735.419,878.7Zm-3.068-.379a1.053,1.053,0,0,0,1.434,1.035.1.1,0,0,0,.1-.047l.043-.025a.816.816,0,0,0,.449-.479.326.326,0,0,0,.063-.177.093.093,0,0,0,.027-.1.778.778,0,0,0-.005-.346.05.05,0,0,0-.018-.067,1.006,1.006,0,0,0-.726-.765.055.055,0,0,0-.067-.023l-.141-.016A1.037,1.037,0,0,0-1738.487,878.324Z" transform="translate(1749.462 -870.477)" fill="#fff"/>
    </g>
  </g>
</svg>
