<svg xmlns="http://www.w3.org/2000/svg" width="24" height="24" viewBox="0 0 24 24">
  <g id="transport" transform="translate(21421 15869)">
    <rect id="Rectangle_14039" data-name="Rectangle 14039" width="24" height="24" transform="translate(-21421 -15869)" fill="none"/>
    <g id="Group_53738" data-name="Group 53738" transform="translate(-21419.76 -15869)">
      <path id="Path_43901" data-name="Path 43901" d="M-1975.355-1662.018c-.151,0-.243,0-.333,0a.752.752,0,0,1-.71-.64c-.012-.1.027-.187.12-.191a2.013,2.013,0,0,1,.82.041.728.728,0,0,1,.331.314c.2-.408.382-.785.558-1.167a1,1,0,0,1,1-.628q2.348.009,4.7-.005a1.026,1.026,0,0,1,1.033.654c.168.37.349.734.542,1.139.255-.459.678-.365,1.069-.363.184,0,.241.1.183.274a.726.726,0,0,1-.8.579h-.187a2.678,2.678,0,0,0,.475.671,2.3,2.3,0,0,1,.467,1.876c0,.082-.055.122-.105.168q-1.055.962-2.17,1.853c-.045.036-.09.108-.155.067s-.054-.105-.062-.167c-.018-.149.075-.357-.044-.433s-.311-.029-.471-.03c-1.5,0-3.008,0-4.512-.01-.192,0-.246.051-.243.242.01.524-.142.667-.667.667-.2,0-.4,0-.6,0a.493.493,0,0,1-.546-.538,1.361,1.361,0,0,1,0-.184c.016-.136-.032-.183-.177-.186a.812.812,0,0,1-.747-1.18c.015-.034.034-.081.063-.094.228-.094.183-.289.2-.476a2.3,2.3,0,0,0,0-.59.9.9,0,0,1,.221-.66C-1975.858-1661.335-1975.624-1661.655-1975.355-1662.018Zm4.155,0v-.005h.184c1.042,0,2.085,0,3.127,0,.074,0,.239.058.143-.138-.215-.44-.427-.882-.64-1.323a.411.411,0,0,0-.4-.25q-2.414,0-4.829-.006a.44.44,0,0,0-.437.272c-.2.423-.4.846-.607,1.264-.082.163-.03.189.128.188C-1973.423-1662.022-1972.312-1662.02-1971.2-1662.02Zm0,1.852v-.006c-.459,0-.919-.005-1.379,0a.481.481,0,0,0-.5.486.483.483,0,0,0,.511.475c.207,0,.414,0,.621,0s.415.012.62,0c.183-.014.362.021.548,0a8.422,8.422,0,0,1,.9,0c.335,0,.533-.174.538-.464s-.2-.485-.54-.488C-1970.329-1660.171-1970.766-1660.168-1971.2-1660.168Zm3.522-.345a.812.812,0,0,0-.816.837.826.826,0,0,0,.821.816.838.838,0,0,0,.833-.832A.826.826,0,0,0-1967.681-1660.513Zm-6.239.824a.828.828,0,0,0-.833-.829.821.821,0,0,0-.831.829.833.833,0,0,0,.831.834A.839.839,0,0,0-1973.92-1659.689Z" transform="translate(1982.227 1671.591)" fill="#fff"/>
      <path id="Path_43902" data-name="Path 43902" d="M-2097.121-1811.719c-.107-.1-.236-.088-.288-.326a4.171,4.171,0,0,1,.143-1.778,11.081,11.081,0,0,1,8.855-8.728,12.611,12.611,0,0,1,1.828-.189c.161-.007.217.041.206.2-.014.214.067.475-.029.631-.108.174-.392.066-.6.081a10.25,10.25,0,0,0-9.26,7.621,10.076,10.076,0,0,0-.329,2.386c0,.18-.065.223-.228.208-.137-.013-.276,0-.414,0-.067,0-.165.009-.159-.082.008-.111.1-.054.16-.041C-2097.2-1811.728-2097.158-1811.724-2097.121-1811.719Z" transform="translate(2097.46 1822.741)" fill="#fff"/>
      <path id="Path_43903" data-name="Path 43903" d="M-1911.333-1464.49a15.287,15.287,0,0,0,2.129-.552,19.435,19.435,0,0,0,4.981-2.772c.455-.337.892-.7,1.337-1.05.041-.032.073-.081.135-.074.026.107-.063.164-.109.234a29.434,29.434,0,0,1-2.155,2.694q-1.852,2.2-3.706,4.4c-.063.076-.106.116-.192.013Q-1910.118-1463.046-1911.333-1464.49Z" transform="translate(1919.902 1485.534)" fill="#fff"/>
      <path id="Path_43904" data-name="Path 43904" d="M-2055.069-1788.534c.478-.014.478-.014.478.451,0,.427,0,.427-.444.452a8.664,8.664,0,0,0-8.1,7.285,9.368,9.368,0,0,0-.107,1.19c0,.144-.053.185-.19.176a3.537,3.537,0,0,0-.506,0c-.162.013-.208-.042-.2-.2a8.576,8.576,0,0,1,.447-2.688,9.439,9.439,0,0,1,7.8-6.578C-2055.621-1788.5-2055.344-1788.507-2055.069-1788.534Z" transform="translate(2065.672 1790.113)" fill="#fff"/>
      <path id="Path_43905" data-name="Path 43905" d="M-1724.923-1470.421l.048-.072C-1724.865-1470.452-1724.864-1470.417-1724.923-1470.421Z" transform="translate(1742.074 1486.71)" fill="#fff"/>
      <path id="Path_43906" data-name="Path 43906" d="M-1807.2-1487.59a.409.409,0,0,1-.37.259c-.124.005-.115.06-.129.149a1.393,1.393,0,0,1-.158-.37c.153.008.2.148.333.163-.088-.2-.044-.318.184-.38a1.56,1.56,0,0,0,.4-.255l0,0c.016.1.175,0,.178.12,0,.076-.057.1-.12.1.006-.046.006-.09-.056-.091a.058.058,0,0,0-.045.031c-.018.052.017.079.058.1a.147.147,0,0,1-.208.106l-.058-.079c-.018-.005-.041-.021-.052-.015-.029.016-.023.045-.007.07Z" transform="translate(1821.189 1503.438)" fill="#fff"/>
      <path id="Path_43907" data-name="Path 43907" d="M-1774.482-1512.881a2.384,2.384,0,0,1-.359.355l0,0a.135.135,0,0,0-.131-.128c-.071,0-.043.081-.056.128l0,0c-.047-.01-.1-.026-.1-.078,0-.083.083-.02.093-.04a.644.644,0,0,1,.326-.3c.187-.074.129-.135.056-.237a.542.542,0,0,1,.379.173c-.1-.045-.095.094-.176.081-.048-.092-.107-.119-.2-.048-.045.034-.061.057-.026.108C-1774.592-1512.751-1774.543-1512.867-1774.482-1512.881Z" transform="translate(1789.962 1527.429)" fill="#fff"/>
      <path id="Path_43908" data-name="Path 43908" d="M-1782.876-1494.874c-.026.084-.066.162-.165.154-.059-.005-.092-.056-.11-.125-.035-.135.09-.113.14-.164l0,0a.174.174,0,0,0,.14.141Z" transform="translate(1797.628 1510.101)" fill="#fff"/>
      <path id="Path_43909" data-name="Path 43909" d="M-1780.164-1499.038c.061.2.188.021.279.048l0,0a.237.237,0,0,1-.183.28l0,0c0-.079.12-.085.1-.182a.308.308,0,0,0-.243.041l0,0c.078-.046-.094-.154.046-.185Z" transform="translate(1794.824 1513.941)" fill="#fff"/>
      <path id="Path_43910" data-name="Path 43910" d="M-1710.131-1550.992a.252.252,0,0,0,.15-.161C-1709.947-1551.026-1709.985-1550.962-1710.131-1550.992Z" transform="translate(1727.964 1563.657)" fill="#fff"/>
      <path id="Path_43911" data-name="Path 43911" d="M-1773.069-1498.994v-.048l0,0c.063-.006.125.055.188,0l0,0c-.041.1-.111.088-.187.044Z" transform="translate(1788.008 1513.946)" fill="#fff"/>
      <path id="Path_43912" data-name="Path 43912" d="M-1779.046-1499.815l.043-.041.019.023-.066.015Z" transform="translate(1793.708 1514.722)" fill="#fff"/>
      <path id="Path_43913" data-name="Path 43913" d="M-1788.039-1488.688c0-.026.014-.039.04-.035.006,0,.01.009.016.014l-.059.018Z" transform="translate(1802.287 1504.102)" fill="#fff"/>
      <path id="Path_43918" data-name="Path 43918" d="M-1789.035-1485.026c-.041-.02-.076-.046-.059-.1a.059.059,0,0,1,.046-.031c.062,0,.062.045.056.091Z" transform="translate(1803.295 1500.697)" fill="#fff"/>
      <path id="Path_43919" data-name="Path 43919" d="M-1794.718-1481.768l.059.08-.063.07-.054-.094Z" transform="translate(1808.713 1497.466)" fill="#fff"/>
      <path id="Path_43920" data-name="Path 43920" d="M-1795.06-1482.043c-.017-.025-.022-.054.006-.07.011-.006.035.009.053.015Z" transform="translate(1808.996 1497.797)" fill="#fff"/>
      <path id="Path_43921" data-name="Path 43921" d="M-1765.475-1509.461c-.061.014-.11.13-.187.018-.035-.052-.019-.074.026-.109.092-.071.152-.044.2.049Z" transform="translate(1780.956 1524.009)" fill="#fff"/>
      <path id="Path_43922" data-name="Path 43922" d="M-1772.852-1501.622c-.062.055-.125-.005-.188,0,.013-.047-.015-.129.056-.128A.135.135,0,0,1-1772.852-1501.622Z" transform="translate(1787.976 1516.528)" fill="#fff"/>
      <path id="Path_43923" data-name="Path 43923" d="M-1780.027-1496.008a.308.308,0,0,1,.243-.041c.017.1-.1.1-.1.182A.173.173,0,0,1-1780.027-1496.008Z" transform="translate(1794.641 1511.097)" fill="#fff"/>
      <path id="Path_43924" data-name="Path 43924" d="M-2014.149-1747.428a7.469,7.469,0,0,0-1.468-3.285,7.805,7.805,0,0,0-7.713-3.066c-.132.019-.266.037-.4.06h0a2.906,2.906,0,0,0-.52.13,8.051,8.051,0,0,0-1.131.451h0c-.092.045-.19.089-.284.14s-.177.1-.265.148l-.113.065h0a7.7,7.7,0,0,0-2.761,2.748,7.452,7.452,0,0,0-.733,6.413,14.637,14.637,0,0,0,2.761,4.62.283.283,0,0,0,.268.088,5.673,5.673,0,0,0,2.066-.586,3.413,3.413,0,0,0,.629-.322c-.073-.029-.119-.049-.168-.065a6.387,6.387,0,0,1-4.282-7.062,6.355,6.355,0,0,1,7.562-5.2,6.194,6.194,0,0,1,4.889,4.713c.048.176.118.227.294.221.4-.014.8-.011,1.2,0C-2014.152-1747.216-2014.118-1747.26-2014.149-1747.428Zm-11.9-5.106-.01-.006Z" transform="translate(2033.062 1757.055)" fill="#fff"/>
      <path id="Path_43925" data-name="Path 43925" d="M-2011.838-1596.521q-2.314,0-4.627,0c-.061,0-.138-.037-.189.056.371.4.737.8,1.117,1.188.118.121.121.181,0,.3a37.839,37.839,0,0,1-4.4,3.731,20.455,20.455,0,0,1-3.619,2.182,5.774,5.774,0,0,1-3.307.569,2.3,2.3,0,0,1-2.059-1.822,3.65,3.65,0,0,1-.08-1.1q.034-.416.069-.831a2.05,2.05,0,0,0-.361.687,4.825,4.825,0,0,0-.293,2.19,3.9,3.9,0,0,0,.839,1.826,3.286,3.286,0,0,0,1.958,1.211,6.862,6.862,0,0,0,2.626.124,15.3,15.3,0,0,0,2.129-.552,19.451,19.451,0,0,0,4.981-2.772c.455-.337.892-.7,1.337-1.05.041-.032.073-.081.136-.074h0l.048-.072a.2.2,0,0,0,.041-.022c.714-.639,1.44-1.266,2.122-1.94.11-.108.173-.105.272.007.192.219.4.429.6.639a4.3,4.3,0,0,0,.514.516c.122-1.629.238-3.227.364-4.824C-2011.618-1596.537-2011.718-1596.522-2011.838-1596.521Z" transform="translate(2032.742 1606.941)" fill="#fff"/>
    </g>
  </g>
</svg>
